<svg width="104" height="16" viewBox="0 0 104 16" fill="none" xmlns="http://www.w3.org/2000/svg">
<g clip-path="url(#clip0_4807_1453)">
<path fill-rule="evenodd" clip-rule="evenodd" d="M8 0.349609C8.30049 0.349609 8.57286 0.526401 8.6952 0.800861L10.6192 5.11713L15.3187 5.61314C15.6176 5.64468 15.8699 5.84908 15.9627 6.13486C16.0556 6.42065 15.9716 6.73431 15.7484 6.93548L12.2379 10.0991L13.2184 14.7219C13.2808 15.0159 13.1643 15.319 12.9212 15.4956C12.6781 15.6722 12.3539 15.6893 12.0936 15.5392L8 13.1781L3.90643 15.5392C3.64614 15.6893 3.32187 15.6722 3.07877 15.4956C2.83567 15.319 2.71923 15.0159 2.78158 14.7219L3.76209 10.0991L0.251619 6.93548C0.0283977 6.73431 -0.0555759 6.42065 0.0372811 6.13486C0.130138 5.84908 0.382443 5.64468 0.681275 5.61314L5.38083 5.11713L7.3048 0.800861C7.42714 0.526401 7.69951 0.349609 8 0.349609Z" fill="#176AE5"/>
</g>
<g clip-path="url(#clip1_4807_1453)">
<path fill-rule="evenodd" clip-rule="evenodd" d="M30 0.349609C30.3005 0.349609 30.5729 0.526401 30.6952 0.800861L32.6192 5.11713L37.3187 5.61314C37.6176 5.64468 37.8699 5.84908 37.9627 6.13486C38.0556 6.42065 37.9716 6.73431 37.7484 6.93548L34.2379 10.0991L35.2184 14.7219C35.2808 15.0159 35.1643 15.319 34.9212 15.4956C34.6781 15.6722 34.3539 15.6893 34.0936 15.5392L30 13.1781L25.9064 15.5392C25.6461 15.6893 25.3219 15.6722 25.0788 15.4956C24.8357 15.319 24.7192 15.0159 24.7816 14.7219L25.7621 10.0991L22.2516 6.93548C22.0284 6.73431 21.9444 6.42065 22.0373 6.13486C22.1301 5.84908 22.3824 5.64468 22.6813 5.61314L27.3808 5.11713L29.3048 0.800861C29.4271 0.526401 29.6995 0.349609 30 0.349609Z" fill="#176AE5"/>
</g>
<g clip-path="url(#clip2_4807_1453)">
<path fill-rule="evenodd" clip-rule="evenodd" d="M52 0.349609C52.3005 0.349609 52.5729 0.526401 52.6952 0.800861L54.6192 5.11713L59.3187 5.61314C59.6176 5.64468 59.8699 5.84908 59.9627 6.13486C60.0556 6.42065 59.9716 6.73431 59.7484 6.93548L56.2379 10.0991L57.2184 14.7219C57.2808 15.0159 57.1643 15.319 56.9212 15.4956C56.6781 15.6722 56.3539 15.6893 56.0936 15.5392L52 13.1781L47.9064 15.5392C47.6461 15.6893 47.3219 15.6722 47.0788 15.4956C46.8357 15.319 46.7192 15.0159 46.7816 14.7219L47.7621 10.0991L44.2516 6.93548C44.0284 6.73431 43.9444 6.42065 44.0373 6.13486C44.1301 5.84908 44.3824 5.64468 44.6813 5.61314L49.3808 5.11713L51.3048 0.800861C51.4271 0.526401 51.6995 0.349609 52 0.349609Z" fill="#176AE5"/>
</g>
<g clip-path="url(#clip3_4807_1453)">
<path fill-rule="evenodd" clip-rule="evenodd" d="M74 0.349609C74.3005 0.349609 74.5729 0.526401 74.6952 0.800861L76.6192 5.11713L81.3187 5.61314C81.6176 5.64468 81.8699 5.84908 81.9627 6.13486C82.0556 6.42065 81.9716 6.73431 81.7484 6.93548L78.2379 10.0991L79.2184 14.7219C79.2808 15.0159 79.1643 15.319 78.9212 15.4956C78.6781 15.6722 78.3539 15.6893 78.0936 15.5392L74 13.1781L69.9064 15.5392C69.6461 15.6893 69.3219 15.6722 69.0788 15.4956C68.8357 15.319 68.7192 15.0159 68.7816 14.7219L69.7621 10.0991L66.2516 6.93548C66.0284 6.73431 65.9444 6.42065 66.0373 6.13486C66.1301 5.84908 66.3824 5.64468 66.6813 5.61314L71.3808 5.11713L73.3048 0.800861C73.4271 0.526401 73.6995 0.349609 74 0.349609Z" fill="#176AE5"/>
</g>
<g clip-path="url(#clip4_4807_1453)">
<path fill-rule="evenodd" clip-rule="evenodd" d="M96 0.349609C96.3005 0.349609 96.5729 0.526401 96.6952 0.800861L98.6192 5.11713L103.319 5.61314C103.618 5.64468 103.87 5.84908 103.963 6.13486C104.056 6.42065 103.972 6.73431 103.748 6.93548L100.238 10.0991L101.218 14.7219C101.281 15.0159 101.164 15.319 100.921 15.4956C100.678 15.6722 100.354 15.6893 100.094 15.5392L96 13.1781L91.9064 15.5392C91.6461 15.6893 91.3219 15.6722 91.0788 15.4956C90.8357 15.319 90.7192 15.0159 90.7816 14.7219L91.7621 10.0991L88.2516 6.93548C88.0284 6.73431 87.9444 6.42065 88.0373 6.13486C88.1301 5.84908 88.3824 5.64468 88.6813 5.61314L93.3808 5.11713L95.3048 0.800861C95.4271 0.526401 95.6995 0.349609 96 0.349609Z" fill="#A2C3F5"/>
</g>
<mask id="mask0_4807_1453" style="mask-type:alpha" maskUnits="userSpaceOnUse" x="88" y="0" width="16" height="16">
<g clip-path="url(#clip5_4807_1453)">
<path fill-rule="evenodd" clip-rule="evenodd" d="M96 0.349609C96.3005 0.349609 96.5729 0.526401 96.6952 0.800861L98.6192 5.11713L103.319 5.61314C103.618 5.64468 103.87 5.84908 103.963 6.13486C104.056 6.42065 103.972 6.73431 103.748 6.93548L100.238 10.0991L101.218 14.7219C101.281 15.0159 101.164 15.319 100.921 15.4956C100.678 15.6722 100.354 15.6893 100.094 15.5392L96 13.1781L91.9064 15.5392C91.6461 15.6893 91.3219 15.6722 91.0788 15.4956C90.8357 15.319 90.7192 15.0159 90.7816 14.7219L91.7621 10.0991L88.2516 6.93548C88.0284 6.73431 87.9444 6.42065 88.0373 6.13486C88.1301 5.84908 88.3824 5.64468 88.6813 5.61314L93.3808 5.11713L95.3048 0.800861C95.4271 0.526401 95.6995 0.349609 96 0.349609Z" fill="#F0C000"/>
</g>
</mask>
<g mask="url(#mask0_4807_1453)">
<path d="M88 0H98.6V16H88V0Z" fill="#176AE5"/>
</g>
<defs>
<clipPath id="clip0_4807_1453">
<rect width="16" height="16" fill="white"/>
</clipPath>
<clipPath id="clip1_4807_1453">
<rect width="16" height="16" fill="white" transform="translate(22)"/>
</clipPath>
<clipPath id="clip2_4807_1453">
<rect width="16" height="16" fill="white" transform="translate(44)"/>
</clipPath>
<clipPath id="clip3_4807_1453">
<rect width="16" height="16" fill="white" transform="translate(66)"/>
</clipPath>
<clipPath id="clip4_4807_1453">
<rect width="16" height="16" fill="white" transform="translate(88)"/>
</clipPath>
<clipPath id="clip5_4807_1453">
<rect width="16" height="16" fill="white" transform="translate(88)"/>
</clipPath>
</defs>
</svg>
