<svg width="16" height="16" viewBox="0 0 16 16" fill="none" xmlns="http://www.w3.org/2000/svg">
<g clip-path="url(#clip0_925_20801)">
<path fill-rule="evenodd" clip-rule="evenodd" d="M14.5 8C14.5 11.5899 11.5899 14.5 8 14.5C4.41015 14.5 1.5 11.5899 1.5 8C1.5 4.41015 4.41015 1.5 8 1.5C11.5899 1.5 14.5 4.41015 14.5 8ZM16 8C16 12.4183 12.4183 16 8 16C3.58172 16 0 12.4183 0 8C0 3.58172 3.58172 0 8 0C12.4183 0 16 3.58172 16 8ZM12.5303 6.53033C12.8232 6.23744 12.8232 5.76256 12.5303 5.46967C12.2374 5.17678 11.7626 5.17678 11.4697 5.46967L7 9.93934L5.03033 7.96967C4.73744 7.67678 4.26256 7.67678 3.96967 7.96967C3.67678 8.26256 3.67678 8.73744 3.96967 9.03033L6.46967 11.5303C6.76256 11.8232 7.23744 11.8232 7.53033 11.5303L12.5303 6.53033Z" fill="#38794E"/>
</g>
<defs>
<clipPath id="clip0_925_20801">
<rect width="16" height="16" fill="white"/>
</clipPath>
</defs>
</svg>
