<svg width="16" height="16" viewBox="0 0 16 16" fill="none" xmlns="http://www.w3.org/2000/svg">
<g clip-path="url(#clip0_854_20527)">
<path fill-rule="evenodd" clip-rule="evenodd" d="M6.80822 0.0882705C7.19744 0.0300895 7.59544 0 8 0C8.40456 0 8.80256 0.0300895 9.19178 0.0882705C9.60144 0.149507 9.88389 0.531246 9.82266 0.940908C9.76142 1.35057 9.37968 1.63302 8.97002 1.57179C8.65396 1.52454 8.33008 1.5 8 1.5C7.66992 1.5 7.34604 1.52454 7.02998 1.57179C6.62032 1.63302 6.23858 1.35057 6.17734 0.940907C6.11611 0.531245 6.39856 0.149507 6.80822 0.0882705ZM11.7023 1.7204C11.9485 1.38731 12.4181 1.3169 12.7512 1.56313C13.3935 2.03792 13.9621 2.6065 14.4369 3.24877C14.6831 3.58185 14.6127 4.05147 14.2796 4.2977C13.9465 4.54393 13.4769 4.47352 13.2307 4.14044C12.8445 3.61807 12.3819 3.15549 11.8596 2.76933C11.5265 2.5231 11.4561 2.05348 11.7023 1.7204ZM4.2977 1.7204C4.54393 2.05348 4.47352 2.5231 4.14044 2.76933C3.61807 3.15549 3.15549 3.61807 2.76933 4.14044C2.5231 4.47352 2.05348 4.54393 1.7204 4.2977C1.38731 4.05147 1.3169 3.58185 1.56313 3.24877C2.03792 2.6065 2.6065 2.03792 3.24877 1.56313C3.58185 1.3169 4.05147 1.38731 4.2977 1.7204ZM0.940908 6.17734C1.35057 6.23858 1.63302 6.62032 1.57179 7.02998C1.52454 7.34604 1.5 7.66992 1.5 8C1.5 8.33008 1.52454 8.65396 1.57179 8.97002C1.63302 9.37968 1.35057 9.76142 0.940907 9.82266C0.531245 9.88389 0.149507 9.60144 0.0882705 9.19178C0.0300895 8.80256 0 8.40456 0 8C0 7.59544 0.0300895 7.19744 0.0882705 6.80822C0.149507 6.39856 0.531246 6.11611 0.940908 6.17734ZM15.0591 6.17734C15.4688 6.11611 15.8505 6.39856 15.9117 6.80822C15.9699 7.19744 16 7.59544 16 8C16 8.40456 15.9699 8.80256 15.9117 9.19178C15.8505 9.60144 15.4688 9.88389 15.0591 9.82266C14.6494 9.76142 14.367 9.37968 14.4282 8.97002C14.4755 8.65396 14.5 8.33008 14.5 8C14.5 7.66992 14.4755 7.34604 14.4282 7.02998C14.367 6.62032 14.6494 6.23858 15.0591 6.17734ZM14.2796 11.7023C14.6127 11.9485 14.6831 12.4181 14.4369 12.7512C13.9621 13.3935 13.3935 13.9621 12.7512 14.4369C12.4182 14.6831 11.9485 14.6127 11.7023 14.2796C11.4561 13.9465 11.5265 13.4769 11.8596 13.2307C12.3819 12.8445 12.8445 12.3819 13.2307 11.8596C13.4769 11.5265 13.9465 11.4561 14.2796 11.7023ZM1.7204 11.7023C2.05348 11.4561 2.5231 11.5265 2.76933 11.8596C3.15549 12.3819 3.61807 12.8445 4.14044 13.2307C4.47352 13.4769 4.54393 13.9465 4.2977 14.2796C4.05147 14.6127 3.58185 14.6831 3.24877 14.4369C2.6065 13.9621 2.03792 13.3935 1.56313 12.7512C1.3169 12.4182 1.38731 11.9485 1.7204 11.7023ZM6.17734 15.0591C6.23858 14.6494 6.62032 14.367 7.02998 14.4282C7.34604 14.4755 7.66992 14.5 8 14.5C8.33008 14.5 8.65396 14.4755 8.97002 14.4282C9.37968 14.367 9.76142 14.6494 9.82266 15.0591C9.88389 15.4688 9.60144 15.8505 9.19178 15.9117C8.80256 15.9699 8.40456 16 8 16C7.59544 16 7.19744 15.9699 6.80822 15.9117C6.39856 15.8505 6.11611 15.4688 6.17734 15.0591Z" fill="#6A707C"/>
</g>
<defs>
<clipPath id="clip0_854_20527">
<rect width="16" height="16" fill="white"/>
</clipPath>
</defs>
</svg>
