<svg width="16" height="16" viewBox="0 0 16 16" fill="none" xmlns="http://www.w3.org/2000/svg">
<g clip-path="url(#clip0_925_20807)">
<path d="M8.5 4C8.5 3.58579 8.16421 3.25 7.75 3.25C7.33579 3.25 7 3.58579 7 4V8.25C7 8.66421 7.33579 9 7.75 9H12C12.4142 9 12.75 8.66421 12.75 8.25C12.75 7.83579 12.4142 7.5 12 7.5H8.5L8.5 4Z" fill="#974E00"/>
<path fill-rule="evenodd" clip-rule="evenodd" d="M8 0C3.58172 0 0 3.58172 0 8C0 12.4183 3.58172 16 8 16C12.4183 16 16 12.4183 16 8C16 3.58172 12.4183 0 8 0ZM1.5 8C1.5 4.41015 4.41015 1.5 8 1.5C11.5899 1.5 14.5 4.41015 14.5 8C14.5 11.5899 11.5899 14.5 8 14.5C4.41015 14.5 1.5 11.5899 1.5 8Z" fill="#974E00"/>
</g>
<defs>
<clipPath id="clip0_925_20807">
<rect width="16" height="16" fill="white"/>
</clipPath>
</defs>
</svg>
