<svg width="24" height="25" viewBox="0 0 24 25" fill="none" xmlns="http://www.w3.org/2000/svg">
<g clip-path="url(#clip0_4083_3696)">
<path fill-rule="evenodd" clip-rule="evenodd" d="M22.2236 0.5H1.77127C0.793937 0.5 -6.10352e-05 1.27467 -6.10352e-05 2.22983V22.7682C-6.10352e-05 23.7242 0.793937 24.5 1.77127 24.5H22.2236C23.2026 24.5 24.0003 23.7242 24.0003 22.7682V2.22983C24.0003 1.27467 23.2026 0.5 22.2236 0.5ZM5.33876 3.80417C6.4771 3.80417 7.40176 4.72901 7.40176 5.86751C7.40176 7.00684 6.4771 7.93201 5.33876 7.93201C4.1981 7.93201 3.2746 7.00684 3.2746 5.86751C3.2746 4.72901 4.1981 3.80417 5.33876 3.80417ZM3.55826 9.49767H7.11793V20.9512H3.55826V9.49767ZM12.7654 9.49766H9.35059V20.9512H12.9078V15.2852C12.9078 13.7912 13.1914 12.3442 15.0439 12.3442C16.8693 12.3442 16.8938 14.0525 16.8938 15.3813V20.9512H20.4509V14.6687C20.4509 11.5848 19.7854 9.21266 16.1808 9.21266C14.4491 9.21266 13.2878 10.1622 12.8128 11.0625H12.7654V9.49766Z" fill="#2F2F30"/>
</g>
<defs>
<clipPath id="clip0_4083_3696">
<rect width="24" height="24" fill="white" transform="translate(-6.10352e-05 0.5)"/>
</clipPath>
</defs>
</svg>
