<svg width="24" height="25" viewBox="0 0 24 25" fill="none" xmlns="http://www.w3.org/2000/svg">
<g clip-path="url(#clip0_4083_3698)">
<path fill-rule="evenodd" clip-rule="evenodd" d="M23.9999 12.5C23.9999 19.1274 18.6274 24.5 11.9999 24.5C5.37252 24.5 -6.10352e-05 19.1274 -6.10352e-05 12.5C-6.10352e-05 5.87258 5.37252 0.5 11.9999 0.5C18.6274 0.5 23.9999 5.87258 23.9999 12.5ZM7.79996 6.5H13.6C15.92 6.5 17.8 8.38 17.8 10.7C17.8 13.02 15.92 14.9 13.6 14.9H10.2V18.5H7.79996V6.5ZM10.2 12.5H13.6C14.59 12.5 15.4 11.69 15.4 10.7C15.4 9.71 14.59 8.9 13.6 8.9H10.2V12.5Z" fill="#2F2F30"/>
</g>
<defs>
<clipPath id="clip0_4083_3698">
<rect width="24" height="24" fill="white" transform="translate(-6.10352e-05 0.5)"/>
</clipPath>
</defs>
</svg>
