<svg width="160" height="160" viewBox="0 0 160 160" fill="none" xmlns="http://www.w3.org/2000/svg">
<g clip-path="url(#clip0_2148_11236)">
<rect x="0.5" y="0.5" width="73" height="73" rx="13.5" stroke="#2F2F30"/>
<rect x="6" y="6.08008" width="62" height="62" rx="8" fill="white"/>
<g clip-path="url(#clip1_2148_11236)">
<path d="M33.5003 49.0801C35.7083 49.0801 37.5006 47.2878 37.5006 45.0798V41.0795H33.5003C31.2923 41.0795 29.5 42.8718 29.5 45.0798C29.5 47.2878 31.2923 49.0801 33.5003 49.0801Z" fill="#0ACF83"/>
<path d="M29.5 37.08C29.5 34.872 31.2923 33.0797 33.5003 33.0797H37.5006V41.0793H33.5003C31.2923 41.0803 29.5 39.288 29.5 37.08Z" fill="#A259FF"/>
<path d="M29.5 29.0804C29.5 26.8724 31.2923 25.0801 33.5003 25.0801H37.5006V33.0798H33.5003C31.2923 33.0798 29.5 31.2884 29.5 29.0804Z" fill="#F24E1E"/>
<path d="M37.4996 25.0801H41.5C43.708 25.0801 45.5003 26.8724 45.5003 29.0804C45.5003 31.2884 43.708 33.0798 41.5 33.0798H37.4996V25.0801Z" fill="#FF7262"/>
<path d="M45.5003 37.08C45.5003 39.288 43.708 41.0804 41.5 41.0804C39.292 41.0804 37.4996 39.288 37.4996 37.08C37.4996 34.872 39.292 33.0797 41.5 33.0797C43.708 33.0797 45.5003 34.872 45.5003 37.08Z" fill="#1ABCFE"/>
</g>
<rect x="86.5" y="0.5" width="73" height="73" rx="13.5" stroke="#2F2F30"/>
<rect x="92" y="6" width="62" height="62" rx="8" fill="white"/>
<g clip-path="url(#clip2_2148_11236)">
<path d="M130.824 46.12C131.064 45.928 131.256 45.736 131.448 45.496C136.152 40.792 136.152 33.208 131.448 28.504C126.744 23.8 119.16 23.8 114.456 28.504C114.264 28.744 114.072 28.936 113.88 29.176L130.824 46.12Z" fill="#5E6AD2"/>
<path d="M129.384 47.176L112.824 30.616C112.488 31.144 112.2 31.672 111.96 32.248L127.752 48.04C128.328 47.8 128.856 47.512 129.384 47.176Z" fill="#5E6AD2"/>
<path d="M125.928 48.6639L111.336 34.0719C111.144 34.7919 111.048 35.5119 111 36.2319L123.768 48.9999C124.488 48.9519 125.208 48.8559 125.928 48.6639Z" fill="#5E6AD2"/>
<path d="M121.128 48.9039L111.096 38.8719C111.48 41.3199 112.584 43.6239 114.456 45.5439C116.376 47.3679 118.728 48.5199 121.128 48.9039Z" fill="#5E6AD2"/>
</g>
<rect x="0.5" y="86.5" width="73" height="73" rx="13.5" stroke="#2F2F30"/>
<rect x="6" y="92" width="62" height="62" rx="8" fill="white"/>
<g clip-path="url(#clip3_2148_11236)">
<path d="M28 111C26.3431 111 25 112.343 25 114V132C25 133.657 26.3431 135 28 135H46C47.6569 135 49 133.657 49 132V114C49 112.343 47.6569 111 46 111H28Z" fill="#3279BA"/>
<path d="M35.5 129.5C35.5 130.052 35.0523 130.5 34.5 130.5H29C28.4477 130.5 28 130.052 28 129.5V115C28 114.448 28.4477 114 29 114H34.5C35.0523 114 35.5 114.448 35.5 115V129.5ZM46 123.5C46 124.052 45.5523 124.5 45 124.5H39.5C38.9477 124.5 38.5 124.052 38.5 123.5V115C38.5 114.448 38.9477 114 39.5 114H45C45.5523 114 46 114.448 46 115V123.5Z" fill="white"/>
</g>
<rect x="86.5" y="86.5" width="73" height="73" rx="13.5" stroke="#2F2F30"/>
<rect x="93" y="92" width="62" height="62" rx="8" fill="white"/>
<path d="M118 115.5C118 116.121 117.496 116.625 116.875 116.625C116.254 116.625 115.75 116.121 115.75 115.5C115.75 114.879 116.254 114.375 116.875 114.375C117.496 114.375 118 114.879 118 115.5Z" fill="#6A707C"/>
<path d="M121 115.5C121 116.121 120.496 116.625 119.875 116.625C119.254 116.625 118.75 116.121 118.75 115.5C118.75 114.879 119.254 114.375 119.875 114.375C120.496 114.375 121 114.879 121 115.5Z" fill="#6A707C"/>
<path d="M122.875 116.625C123.496 116.625 124 116.121 124 115.5C124 114.879 123.496 114.375 122.875 114.375C122.254 114.375 121.75 114.879 121.75 115.5C121.75 116.121 122.254 116.625 122.875 116.625Z" fill="#6A707C"/>
<path fill-rule="evenodd" clip-rule="evenodd" d="M112 114.375C112 112.511 113.511 111 115.375 111H132.625C134.489 111 136 112.511 136 114.375V131.625C136 133.489 134.489 135 132.625 135H124.25C123.629 135 123.125 134.496 123.125 133.875C123.125 133.254 123.629 132.75 124.25 132.75H132.625C133.246 132.75 133.75 132.246 133.75 131.625V120L114.25 120V123.5C114.25 124.121 113.746 124.625 113.125 124.625C112.504 124.625 112 124.121 112 123.5V114.375ZM114.25 117.75L133.75 117.75V114.375C133.75 113.754 133.246 113.25 132.625 113.25H115.375C114.754 113.25 114.25 113.754 114.25 114.375V117.75Z" fill="#6A707C"/>
<path fill-rule="evenodd" clip-rule="evenodd" d="M118.25 126.205C118.25 125.584 117.746 125.08 117.125 125.08C116.504 125.08 116 125.584 116 126.205V128.83H113.375C112.754 128.83 112.25 129.334 112.25 129.955C112.25 130.576 112.754 131.08 113.375 131.08H116V133.705C116 134.326 116.504 134.83 117.125 134.83C117.746 134.83 118.25 134.326 118.25 133.705V131.08H120.875C121.496 131.08 122 130.576 122 129.955C122 129.334 121.496 128.83 120.875 128.83H118.25V126.205Z" fill="#6A707C"/>
</g>
<defs>
<clipPath id="clip0_2148_11236">
<rect width="160" height="160" fill="white"/>
</clipPath>
<clipPath id="clip1_2148_11236">
<rect width="24" height="24" fill="white" transform="translate(25 25.0801)"/>
</clipPath>
<clipPath id="clip2_2148_11236">
<rect width="24" height="24" fill="white" transform="translate(111 25)"/>
</clipPath>
<clipPath id="clip3_2148_11236">
<rect width="24" height="24" fill="white" transform="translate(25 111)"/>
</clipPath>
</defs>
</svg>
