<svg width="160" height="160" viewBox="0 0 160 160" fill="none" xmlns="http://www.w3.org/2000/svg">
<path d="M84.5 29.5V13.5C84.5 6.3203 78.6797 0.5 71.5 0.5H13.5C6.3203 0.5 0.5 6.3203 0.5 13.5V89.5C0.5 96.6797 6.3203 102.5 13.5 102.5H38.5" stroke="#2F2F30"/>
<path d="M6.5 14.5C6.5 10.0817 10.0817 6.5 14.5 6.5H70.5C74.9183 6.5 78.5 10.0817 78.5 14.5V29H50C43.3726 29 38 34.3726 38 41V96.5H14.5C10.0817 96.5 6.5 92.9183 6.5 88.5V14.5Z" fill="white"/>
<rect x="18.5" y="21.5" width="34" height="1" rx="0.5" fill="#2F2F30"/>
<path d="M18.5 29C18.5 28.7239 18.7239 28.5 19 28.5H63C63.2761 28.5 63.5 28.7239 63.5 29V29C63.5 29.2761 63.2761 29.5 63 29.5H19C18.7239 29.5 18.5 29.2761 18.5 29V29Z" fill="#2F2F30"/>
<path d="M18.5 40C18.5 39.4477 18.9477 39 19.5 39V39C20.0523 39 20.5 39.4477 20.5 40V40C20.5 40.5523 20.0523 41 19.5 41V41C18.9477 41 18.5 40.5523 18.5 40V40Z" fill="#2F2F30"/>
<path d="M18.5 47C18.5 46.4477 18.9477 46 19.5 46V46C20.0523 46 20.5 46.4477 20.5 47V47C20.5 47.5523 20.0523 48 19.5 48V48C18.9477 48 18.5 47.5523 18.5 47V47Z" fill="#2F2F30"/>
<path d="M18.5 54C18.5 53.4477 18.9477 53 19.5 53V53C20.0523 53 20.5 53.4477 20.5 54V54C20.5 54.5523 20.0523 55 19.5 55V55C18.9477 55 18.5 54.5523 18.5 54V54Z" fill="#2F2F30"/>
<path d="M18.5 61C18.5 60.4477 18.9477 60 19.5 60V60C20.0523 60 20.5 60.4477 20.5 61V61C20.5 61.5523 20.0523 62 19.5 62V62C18.9477 62 18.5 61.5523 18.5 61V61Z" fill="#2F2F30"/>
<path d="M23.5 40C23.5 39.7239 23.7239 39.5 24 39.5H38C38.2761 39.5 38.5 39.7239 38.5 40V40C38.5 40.2761 38.2761 40.5 38 40.5H24C23.7239 40.5 23.5 40.2761 23.5 40V40Z" fill="#2F2F30"/>
<path d="M23.5 47C23.5 46.7239 23.7239 46.5 24 46.5H38C38.2761 46.5 38.5 46.7239 38.5 47V47C38.5 47.2761 38.2761 47.5 38 47.5H24C23.7239 47.5 23.5 47.2761 23.5 47V47Z" fill="#2F2F30"/>
<path d="M23.5 54C23.5 53.7239 23.7239 53.5 24 53.5H38C38.2761 53.5 38.5 53.7239 38.5 54V54C38.5 54.2761 38.2761 54.5 38 54.5H24C23.7239 54.5 23.5 54.2761 23.5 54V54Z" fill="#2F2F30"/>
<path d="M23.5 61C23.5 60.7239 23.7239 60.5 24 60.5H38C38.2761 60.5 38.5 60.7239 38.5 61V61C38.5 61.2761 38.2761 61.5 38 61.5H24C23.7239 61.5 23.5 61.2761 23.5 61V61Z" fill="#2F2F30"/>
<rect x="18.5" y="71.5" width="20" height="1" rx="0.5" fill="#2F2F30"/>
<rect x="18.5" y="78.5" width="20" height="1" rx="0.5" fill="#2F2F30"/>
<path d="M122 57.2871V42C122 34.8203 116.18 29 109 29H51C43.8203 29 38 34.8203 38 42V118C38 125.18 43.8203 131 51 131H76.4578" stroke="#2F2F30"/>
<path d="M44 43C44 38.5817 47.5817 35 52 35H108C112.418 35 116 38.5817 116 43V57.5H88.5C81.3203 57.5 75.5 63.3203 75.5 70.5V125H52C47.5817 125 44 121.418 44 117V43Z" fill="white"/>
<rect x="56" y="50" width="34" height="1" rx="0.5" fill="#2F2F30"/>
<rect x="56" y="57" width="45" height="1" rx="0.5" fill="#2F2F30"/>
<path d="M56 93.5C56 93.2239 56.2239 93 56.5 93H75.5C75.7761 93 76 93.2239 76 93.5V93.5C76 93.7761 75.7761 94 75.5 94H56.5C56.2239 94 56 93.7761 56 93.5V93.5Z" fill="#2F2F30"/>
<rect x="56" y="100" width="20" height="1" rx="0.5" fill="#2F2F30"/>
<path d="M56 107.5C56 107.224 56.2239 107 56.5 107H75.5C75.7761 107 76 107.224 76 107.5V107.5C76 107.776 75.7761 108 75.5 108H56.5C56.2239 108 56 107.776 56 107.5V107.5Z" fill="#2F2F30"/>
<path d="M76.6595 65H59.5C57.8431 65 56.5 66.3431 56.5 68V83C56.5 84.6569 57.8431 86 59.5 86H75.5" stroke="#2F2F30" stroke-linejoin="round"/>
<rect x="81.5" y="63.5" width="72" height="90" rx="8" fill="white"/>
<path d="M146.5 57.5H88.5C81.3203 57.5 75.5 63.3203 75.5 70.5V146.5C75.5 153.68 81.3203 159.5 88.5 159.5H146.5C153.68 159.5 159.5 153.68 159.5 146.5V70.5C159.5 63.3203 153.68 57.5 146.5 57.5Z" stroke="#2F2F30"/>
<rect x="93.5" y="78.5" width="34" height="1" rx="0.5" fill="#2F2F30"/>
<rect x="93.5" y="85.5" width="45" height="1" rx="0.5" fill="#2F2F30"/>
<rect x="93.5" y="128.5" width="45" height="1" rx="0.5" fill="#2F2F30"/>
<rect x="93.5" y="135.5" width="26" height="1" rx="0.5" fill="#2F2F30"/>
<rect x="94" y="93.5" width="21" height="28" rx="2.5" stroke="#2F2F30" stroke-linejoin="round"/>
<rect x="120" y="93.5" width="21" height="28" rx="2.5" stroke="#2F2F30" stroke-linejoin="round"/>
</svg>
