<svg width="160" height="160" viewBox="0 0 160 160" fill="none" xmlns="http://www.w3.org/2000/svg">
<g clip-path="url(#clip0_2148_11167)">
<rect x="0.5" y="0.5" width="73" height="73" rx="13.5" stroke="#2F2F30"/>
<rect x="6" y="6" width="62" height="62" rx="8" fill="white"/>
<g clip-path="url(#clip1_2148_11167)">
<path d="M33.7898 25.7536C30.1254 26.0253 27.0102 26.2753 26.8638 26.3045C26.4531 26.3779 26.0795 26.6571 25.9039 27.0246L25.75 27.3479L25.7648 35.0536L25.7866 42.7593L26.0211 43.2368C26.1532 43.5012 27.0473 44.7354 28.0221 46.0059C29.9497 48.5107 30.0888 48.6505 30.8216 48.7239C31.0343 48.7458 32.632 48.6724 34.3618 48.5697C36.099 48.4596 38.8837 48.2905 40.555 48.1953C47.6933 47.761 47.3267 47.7977 47.7369 47.4451C48.25 47.0191 48.2134 47.7168 48.2352 38.3513C48.25 30.4106 48.2426 29.8893 48.1253 29.6469C47.9863 29.3751 47.7369 29.1842 44.4827 26.8922C42.3061 25.3643 42.1522 25.2835 41.177 25.2686C40.7743 25.2542 37.4468 25.4744 33.7898 25.7536V25.7536ZM42.0276 26.7598C42.3353 26.8991 44.5856 28.4711 44.9151 28.7726C45.0032 28.8609 45.0324 28.9343 44.9884 28.9784C44.8859 29.0667 30.9602 29.8968 30.5574 29.8378C30.3743 29.8085 30.1032 29.6984 29.9493 29.5953C29.3115 29.1619 27.7287 27.8616 27.7287 27.7664C27.7287 27.5165 27.6772 27.5165 33.8853 27.0687C35.0728 26.9879 37.0222 26.8411 38.2097 26.7454C40.7817 26.5396 41.5515 26.547 42.0276 26.7598V26.7598ZM46.4544 30.778C46.5568 30.8807 46.6449 31.079 46.6741 31.2699C46.6959 31.4465 46.7107 34.7372 46.6959 38.5715C46.6741 45.1531 46.6667 45.5646 46.542 45.7556C46.4688 45.8731 46.3223 45.998 46.212 46.0347C45.9047 46.1597 31.3124 46.9898 31.0121 46.9016C30.873 46.8649 30.6821 46.7473 30.5796 46.6447L30.4035 46.4537L30.3817 39.358C30.3669 34.3777 30.3817 32.1739 30.4406 31.9756C30.4846 31.8288 30.5945 31.6523 30.69 31.5937C30.822 31.5055 31.6869 31.4321 34.6626 31.256C36.7516 31.1385 39.9835 30.9401 41.838 30.83C46.2491 30.5578 46.2347 30.5578 46.4544 30.778V30.778Z" fill="#2F2F30"/>
<path d="M42.5331 33.2093C41.7414 33.2609 41.0378 33.3343 40.9572 33.3784C40.7152 33.5034 40.5688 33.7091 40.5396 33.9442C40.5178 34.1867 40.591 34.216 41.3822 34.3116L41.7266 34.3558V37.4923C41.7266 39.3578 41.6974 40.5921 41.6608 40.5554C41.6242 40.5113 40.5836 38.9249 39.3447 37.0296C38.1062 35.1274 37.08 33.5624 37.0652 33.548C37.0504 33.5331 36.2443 33.5772 35.277 33.6437C34.0895 33.7245 33.4374 33.7979 33.3053 33.8713C33.0926 33.9814 32.858 34.3706 32.858 34.628C32.858 34.7822 33.1366 34.863 33.7229 34.863H34.0307V43.8833L33.5324 44.0375C33.144 44.155 33.0119 44.2284 32.9461 44.3752C32.8288 44.6252 32.8362 44.8528 32.9535 44.8528C32.9975 44.8528 33.8258 44.8012 34.7783 44.7427C36.662 44.6326 36.8742 44.581 37.0721 44.1917C37.131 44.0742 37.182 43.9493 37.182 43.9126C37.182 43.8833 36.9257 43.795 36.6175 43.7216C36.3023 43.6482 35.9871 43.5748 35.9213 43.56C35.7966 43.5233 35.7892 43.2957 35.7892 40.1369V36.7504L38.0172 40.2544C40.3551 43.927 40.6485 44.346 41.0077 44.5295C41.455 44.7645 42.591 44.6029 43.1625 44.2284L43.3386 44.1183L43.3535 39.1089L43.3752 34.0919L43.7637 34.0185C44.2253 33.9303 44.438 33.7175 44.438 33.3501C44.438 33.115 44.4232 33.1001 44.2035 33.1076C44.0723 33.1136 43.3173 33.1578 42.5331 33.2093V33.2093Z" fill="#2F2F30"/>
</g>
<rect x="86.5" y="0.5" width="73" height="73" rx="13.5" stroke="#2F2F30"/>
<rect x="92" y="6" width="62" height="62" rx="8" fill="white"/>
<g clip-path="url(#clip2_2148_11167)">
<path d="M135.049 29.131C135.19 28.9001 135.118 28.5987 134.889 28.455C133.879 27.8217 131.23 26.1612 129.505 25.0814C129.268 24.9334 128.956 25.0091 128.808 25.2455C126.591 28.7819 124.779 29.9582 120.428 27.8611C118.949 27.1502 116.295 25.8626 115.221 25.3411C114.964 25.2164 114.656 25.3314 114.543 25.5936C113.715 27.516 112.428 30.4628 111.943 31.5709C111.835 31.8174 111.94 32.1041 112.182 32.2209C113.227 32.7241 115.909 34.0171 117.405 34.739C125.181 38.6304 130.846 36.0174 135.049 29.131Z" fill="url(#paint0_linear_2148_11167)"/>
<path d="M110.951 44.8689C110.81 45.0998 110.881 45.4012 111.111 45.5449C112.121 46.1782 114.77 47.8386 116.495 48.9185C116.732 49.0665 117.043 48.9907 117.192 48.7543C119.409 45.218 121.221 44.0416 125.571 46.1388C127.051 46.8497 129.705 48.1372 130.779 48.6588C131.036 48.7835 131.344 48.6684 131.457 48.4063C132.285 46.4838 133.572 43.537 134.057 42.429C134.165 42.1825 134.06 41.8958 133.817 41.779C132.773 41.2758 130.09 39.9828 128.595 39.2608C120.819 35.3695 115.154 37.9825 110.951 44.8689Z" fill="url(#paint1_linear_2148_11167)"/>
</g>
<rect x="0.5" y="86.5" width="73" height="73" rx="13.5" stroke="#2F2F30"/>
<rect x="6" y="92" width="62" height="62" rx="8" fill="white"/>
<path d="M29.2 133.416L25 126.222L32.8 112.584L37 119.778L29.2 133.416Z" fill="#0DA960"/>
<path d="M29.2 133.416L33.4 126.222H48.9999L44.8 133.416H29.2Z" fill="url(#paint2_radial_2148_11167)"/>
<path d="M49.0001 126.222H40.6001L32.8 112.584H41.2001L49.0001 126.222Z" fill="url(#paint3_radial_2148_11167)"/>
<path d="M37 126.222H33.4L35.2 123.075L29.2 133.416L37 126.222Z" fill="#2D6FDD"/>
<path d="M40.6 126.222H49.0001L38.8 123.075L40.6 126.222Z" fill="#E5B93C"/>
<path d="M35.2 123.075L37 119.778L32.8 112.584L35.2 123.075Z" fill="#0C9B57"/>
<g clip-path="url(#clip3_2148_11167)">
<path fill-rule="evenodd" clip-rule="evenodd" d="M133 132.062C133 132.58 132.58 133 132.062 133H113.938C113.42 133 113 132.58 113 132.062C113 131.545 113.42 131.125 113.938 131.125H132.062C132.58 131.125 133 131.545 133 132.062ZM128.083 122.6C127.717 122.233 127.123 122.233 126.757 122.6L123.937 125.419V113.938C123.937 113.42 123.518 113 123 113C122.482 113 122.062 113.42 122.062 113.938V125.418L119.244 122.6C118.878 122.233 118.284 122.233 117.918 122.6C117.552 122.966 117.552 123.559 117.918 123.925L122.338 128.345C122.704 128.711 123.297 128.711 123.663 128.345L128.083 123.925C128.449 123.559 128.449 122.966 128.083 122.6Z" fill="black" fill-opacity="0.5"/>
</g>
<rect x="86.5" y="86.5" width="73" height="73" rx="7.5" stroke="black" stroke-opacity="0.5" stroke-dasharray="4 4"/>
</g>
<defs>
<linearGradient id="paint0_linear_2148_11167" x1="112.611" y1="23.1883" x2="118.377" y2="36.1279" gradientUnits="userSpaceOnUse">
<stop offset="0.18" stop-color="#0052CC"/>
<stop offset="1" stop-color="#2684FF"/>
</linearGradient>
<linearGradient id="paint1_linear_2148_11167" x1="133.389" y1="50.8115" x2="127.622" y2="37.872" gradientUnits="userSpaceOnUse">
<stop offset="0.18" stop-color="#0052CC"/>
<stop offset="1" stop-color="#2684FF"/>
</linearGradient>
<radialGradient id="paint2_radial_2148_11167" cx="0" cy="0" r="1" gradientUnits="userSpaceOnUse" gradientTransform="translate(63.6768 127.332) rotate(30.1117) scale(46.7874 46.7874)">
<stop stop-color="#4387FD"/>
<stop offset="0.65" stop-color="#3078F0"/>
<stop offset="0.91" stop-color="#2B72EA"/>
<stop offset="1" stop-color="#286EE6"/>
</radialGradient>
<radialGradient id="paint3_radial_2148_11167" cx="0" cy="0" r="1" gradientUnits="userSpaceOnUse" gradientTransform="translate(63.185 126.993) rotate(30.0657) scale(46.8237 46.8049)">
<stop stop-color="#FFD24D"/>
<stop offset="1" stop-color="#F6C338"/>
</radialGradient>
<clipPath id="clip0_2148_11167">
<rect width="160" height="160" fill="white"/>
</clipPath>
<clipPath id="clip1_2148_11167">
<rect width="24" height="24" fill="white" transform="translate(25 25)"/>
</clipPath>
<clipPath id="clip2_2148_11167">
<rect width="24" height="24" fill="white" transform="translate(111 25)"/>
</clipPath>
<clipPath id="clip3_2148_11167">
<rect width="20" height="20" fill="white" transform="translate(113 113)"/>
</clipPath>
</defs>
</svg>
