<svg width="160" height="160" viewBox="0 0 160 160" fill="none" xmlns="http://www.w3.org/2000/svg">
<rect x="14" y="14.5" width="62" height="62" rx="8" fill="white"/>
<g clip-path="url(#clip0_2148_10737)">
<path fill-rule="evenodd" clip-rule="evenodd" d="M39.2037 48.8745C39.3045 49.0491 39.4715 49.1758 39.6668 49.2259C39.8622 49.2761 40.0695 49.2454 40.242 49.1408L45.1652 46.1559L48.2702 52.2974C48.8321 53.4086 50.212 53.8197 51.2904 53.1971C52.3688 52.5745 52.7027 51.1739 52.0212 50.1317L48.2132 44.3079L50.5861 42.8692C50.935 42.6577 51.0508 42.2062 50.8468 41.8529L48.6234 38.0017C48.5215 37.8252 48.3522 37.6978 48.1544 37.6488C47.9566 37.5997 47.7474 37.6332 47.5749 37.7416L40.501 42.1856C40.1586 42.3982 40.0446 42.8459 40.2475 43.1975C40.5819 43.7766 40.3779 44.5173 39.7941 44.8435L38.2521 45.7052C38.0768 45.8031 37.9482 45.9672 37.8949 46.1608C37.8415 46.3543 37.868 46.5611 37.9684 46.7349L39.2037 48.8745ZM46.9298 45.086L46.4517 45.3759L49.6089 51.6206C49.7822 51.9633 50.2078 52.0901 50.5404 51.8981C50.873 51.7061 50.976 51.2741 50.7658 50.9526L46.9298 45.086ZM40.5258 46.1529C41.6202 45.5414 42.1218 44.2826 41.8241 43.1258L47.7136 39.4259L49.1807 41.9671L40.1196 47.4609L39.6477 46.6436L40.5258 46.1529Z" fill="#6A707C"/>
</g>
<rect x="14" y="14.5" width="62" height="62" rx="8" stroke="#F9EFE4"/>
<rect x="84" y="14.5" width="62" height="62" rx="8" fill="white"/>
<g clip-path="url(#clip1_2148_10737)">
<path fill-rule="evenodd" clip-rule="evenodd" d="M121 53.5V52C121 50.7574 119.993 49.75 118.75 49.75H116.5C116.086 49.75 115.75 49.4142 115.75 49V48.25H116C117.519 48.25 118.75 47.0188 118.75 45.5V42H120.25C120.664 42 121 41.6642 121 41.25C121 40.8358 120.664 40.5 120.25 40.5L117.75 40.5V38.25C117.75 37.8358 117.414 37.5 117 37.5C116.586 37.5 116.25 37.8358 116.25 38.25V40.5H113.75V38.25C113.75 37.8358 113.414 37.5 113 37.5C112.586 37.5 112.25 37.8358 112.25 38.25V40.5H109.75C109.336 40.5 109 40.8358 109 41.25C109 41.6642 109.336 42 109.75 42H111.25V45.5C111.25 47.0188 112.481 48.25 114 48.25H114.25V49C114.25 50.2426 115.257 51.25 116.5 51.25H118.75C119.164 51.25 119.5 51.5858 119.5 52V53.5H121ZM112.75 42H117.25V45.5C117.25 46.1904 116.69 46.75 116 46.75H114C113.31 46.75 112.75 46.1904 112.75 45.5V42Z" fill="#6A707C"/>
</g>
<rect x="84" y="14.5" width="62" height="62" rx="8" stroke="#F9EFE4"/>
<rect x="14" y="84.5" width="62" height="62" rx="8" fill="white"/>
<g clip-path="url(#clip2_2148_10737)">
<path d="M48.9771 113.407C48.4599 113.925 47.6213 113.925 47.1041 113.407C46.5869 112.89 46.5869 112.052 47.1041 111.534C47.6213 111.017 48.4599 111.017 48.9771 111.534C49.4943 112.052 49.4943 112.89 48.9771 113.407Z" fill="#6A707C"/>
<path fill-rule="evenodd" clip-rule="evenodd" d="M50.3607 107.553C51.6409 107.694 52.6517 108.705 52.7928 109.985L52.8143 110.181C53.1746 113.449 51.6739 116.605 48.9991 118.401C49.4698 119.985 48.9283 121.726 47.5858 122.757L47.1573 123.086C46.977 123.224 46.7436 123.273 46.5227 123.22C46.3018 123.166 46.1173 123.014 46.021 122.809L44.9319 120.478L44.2063 120.833C43.9185 120.973 43.5734 120.915 43.347 120.689L43.0644 120.406C42.9349 120.79 42.7164 121.15 42.4152 121.451C42.1031 121.763 41.6705 121.944 41.301 122.058C40.9119 122.178 40.4894 122.255 40.1128 122.305C39.7329 122.355 39.3802 122.381 39.1237 122.394C38.9948 122.401 38.8889 122.404 38.8142 122.406C38.7768 122.407 38.7472 122.408 38.7264 122.408L38.7018 122.408L38.6947 122.408L38.6925 122.408L38.6915 122.408L38.6872 121.658L37.9372 121.654L37.9372 121.653L37.9372 121.651L37.9373 121.644L37.9376 121.619C37.9379 121.598 37.9384 121.569 37.9394 121.531C37.9413 121.457 37.9449 121.351 37.9516 121.222C37.9648 120.965 37.9906 120.613 38.0409 120.233C38.0908 119.856 38.1673 119.434 38.2876 119.045C38.4018 118.675 38.5827 118.242 38.8948 117.93C39.1959 117.629 39.5559 117.411 39.9393 117.281L39.6573 116.999C39.4309 116.773 39.3732 116.428 39.5136 116.14L39.8689 115.412L37.5379 114.322C37.3319 114.226 37.1807 114.042 37.1268 113.821C37.073 113.6 37.1222 113.367 37.2607 113.186L37.5897 112.758C38.6211 111.415 40.3622 110.873 41.9462 111.345C43.7434 108.671 46.8984 107.172 50.1652 107.532L50.3607 107.553ZM51.3018 110.15C51.2377 109.568 50.7782 109.108 50.1963 109.044L50.0009 109.023C46.9586 108.687 44.0334 110.299 42.691 113.049L41.0963 116.317L44.0293 119.25L47.2968 117.655C50.0474 116.313 51.6587 113.388 51.3234 110.345L51.3018 110.15ZM46.2802 119.82L47.6356 119.159C47.756 119.93 47.5147 120.723 46.9707 121.298L46.2802 119.82ZM41.1885 112.708C40.4173 112.587 39.6234 112.829 39.0486 113.373L40.5269 114.064L41.1885 112.708ZM39.9554 118.991C40.4198 118.527 41.0819 118.554 41.4366 118.909C41.7912 119.264 41.819 119.926 41.3546 120.39C41.3044 120.44 41.1562 120.533 40.8581 120.625C40.5798 120.711 40.2481 120.774 39.9158 120.818C39.7647 120.838 39.6174 120.853 39.48 120.866C39.4922 120.728 39.5079 120.581 39.5279 120.43C39.572 120.097 39.6347 119.766 39.7207 119.487C39.8128 119.189 39.9053 119.041 39.9554 118.991Z" fill="#6A707C"/>
<path d="M37.9372 121.654C37.9372 121.654 37.9372 121.654 38.6872 121.658C38.6912 122.408 38.6915 122.408 38.6915 122.408C38.4911 122.41 38.2985 122.33 38.1568 122.189C38.0152 122.047 37.9361 121.854 37.9372 121.654Z" fill="#6A707C"/>
</g>
<rect x="14" y="84.5" width="62" height="62" rx="8" stroke="#F9EFE4"/>
<rect x="84" y="84.5" width="62" height="62" rx="8" fill="white"/>
<g clip-path="url(#clip3_2148_10737)">
<path fill-rule="evenodd" clip-rule="evenodd" d="M112.965 108.275C112.867 107.962 112.577 107.75 112.25 107.75C111.923 107.75 111.633 107.962 111.535 108.275L110.19 112.549C110.005 113.136 109.588 113.622 109.035 113.893L107.419 114.687C107.16 114.814 106.997 115.079 107 115.367C107.003 115.656 107.171 115.917 107.432 116.04L108.978 116.762C109.562 117.035 110.001 117.544 110.183 118.162L111.531 122.713C111.625 123.031 111.918 123.25 112.25 123.25C112.582 123.25 112.875 123.031 112.969 122.713L114.317 118.162C114.499 117.544 114.938 117.035 115.522 116.762L117.068 116.04C117.329 115.917 117.497 115.656 117.5 115.367C117.503 115.079 117.34 114.814 117.081 114.687L115.465 113.893C114.912 113.622 114.495 113.136 114.31 112.549L112.965 108.275ZM111.62 112.999L112.25 110.999L112.88 112.999C113.188 113.978 113.883 114.787 114.803 115.24L115.014 115.343L114.886 115.403C113.914 115.858 113.183 116.707 112.878 117.736L112.25 119.858L111.622 117.736C111.317 116.707 110.586 115.858 109.614 115.403L109.486 115.343L109.697 115.24C110.617 114.787 111.312 113.978 111.62 112.999Z" fill="#6A707C"/>
<path d="M120 107.75C120.31 107.75 120.588 107.941 120.7 108.23L121.049 109.137C121.288 109.755 121.806 110.222 122.446 110.395C122.628 110.444 122.776 110.557 122.873 110.702C122.901 110.744 122.925 110.788 122.944 110.835C122.998 110.965 123.015 111.111 122.987 111.258C122.981 111.29 122.973 111.321 122.963 111.352C122.912 111.51 122.812 111.64 122.684 111.731C122.659 111.748 122.633 111.764 122.607 111.779L120 107.75Z" fill="#6A707C"/>
<path fill-rule="evenodd" clip-rule="evenodd" d="M120 107.75L122.605 111.78L122.145 112.029C121.697 112.271 121.344 112.658 121.145 113.126L120.69 114.194C120.572 114.47 120.301 114.65 120 114.65C119.699 114.65 119.428 114.47 119.31 114.194L118.855 113.126C118.656 112.658 118.303 112.271 117.855 112.029L117.393 111.779C117.123 111.633 116.97 111.337 117.005 111.032C117.04 110.728 117.258 110.475 117.554 110.395C118.194 110.222 118.712 109.755 118.951 109.137L119.3 108.23C119.412 107.941 119.69 107.75 120 107.75ZM120.751 111.181C120.46 110.948 120.206 110.671 120 110.357C119.794 110.671 119.54 110.948 119.249 111.181C119.544 111.438 119.798 111.741 120 112.077C120.202 111.741 120.456 111.438 120.751 111.181Z" fill="#6A707C"/>
<path d="M120 116.25C120.31 116.25 120.588 116.441 120.7 116.73L121.049 117.637C121.288 118.255 121.806 118.722 122.446 118.895C122.628 118.944 122.776 119.057 122.873 119.202C122.901 119.244 122.925 119.288 122.944 119.335C122.998 119.465 123.015 119.611 122.987 119.758C122.981 119.79 122.973 119.821 122.963 119.852C122.912 120.01 122.812 120.14 122.684 120.231C122.659 120.248 122.633 120.264 122.607 120.279L120 116.25Z" fill="#6A707C"/>
<path fill-rule="evenodd" clip-rule="evenodd" d="M120 116.25L122.605 120.28L122.145 120.529C121.697 120.771 121.344 121.158 121.145 121.626L120.69 122.694C120.572 122.97 120.301 123.15 120 123.15C119.699 123.15 119.428 122.97 119.31 122.694L118.855 121.626C118.656 121.158 118.303 120.771 117.855 120.529L117.393 120.279C117.123 120.133 116.97 119.837 117.005 119.532C117.04 119.228 117.258 118.975 117.554 118.895C118.194 118.722 118.712 118.255 118.951 117.637L119.3 116.73C119.412 116.441 119.69 116.25 120 116.25ZM120.751 119.681C120.46 119.448 120.206 119.171 120 118.857C119.794 119.171 119.54 119.448 119.249 119.681C119.544 119.938 119.798 120.241 120 120.577C120.202 120.241 120.456 119.938 120.751 119.681Z" fill="#6A707C"/>
</g>
<rect x="84" y="84.5" width="62" height="62" rx="8" stroke="#F9EFE4"/>
<path d="M135.25 9H137.25C144.982 9 151.25 15.268 151.25 23V60.585C151.25 67.0823 153.884 73.302 158.551 77.8228L159.25 78.5L158.551 79.1772C153.884 83.698 151.25 89.9177 151.25 96.415V137C151.25 144.732 144.982 151 137.25 151H132.25" stroke="#2F2F30"/>
<path d="M25.25 9H23.25C15.518 9 9.25 15.268 9.25 23V60.585C9.25 67.0823 6.61571 73.302 1.94909 77.8228L1.25 78.5L1.94909 79.1772C6.61571 83.698 9.25 89.9177 9.25 96.415V137C9.25 144.732 15.518 151 23.25 151H28.25" stroke="#2F2F30"/>
<defs>
<clipPath id="clip0_2148_10737">
<rect width="16" height="16" fill="white" transform="translate(37 37.5)"/>
</clipPath>
<clipPath id="clip1_2148_10737">
<rect width="16" height="16" fill="white" transform="matrix(1 0 0 -1 107 53.5)"/>
</clipPath>
<clipPath id="clip2_2148_10737">
<rect width="16" height="16" fill="white" transform="translate(37 107.5)"/>
</clipPath>
<clipPath id="clip3_2148_10737">
<rect width="16" height="16" fill="white" transform="translate(107 107.5)"/>
</clipPath>
</defs>
</svg>
