<svg width="197" height="123" viewBox="0 0 197 123" fill="none" xmlns="http://www.w3.org/2000/svg">
<g clip-path="url(#clip0_2148_8435)">
<rect width="196.772" height="122.581" fill="white"/>
<rect width="196.772" height="24.4071" transform="translate(0 2.85181)" fill="white"/>
<path d="M10.8785 18.5554V13.4074H8.82811V12.3602H14.1081V13.4074H12.0665V18.5554H10.8785ZM15.4503 18.5554V12.3602H16.6383V14.877H19.6039V12.3602H20.7831V18.5554H19.6039V15.9242H16.6383V18.5554H15.4503ZM22.6362 18.5554V12.3602H23.8242V18.5554H22.6362ZM27.8888 18.6962C27.4546 18.6962 27.0586 18.6317 26.7008 18.5026C26.3488 18.3677 26.0496 18.1917 25.8032 17.9746C25.5626 17.7576 25.369 17.5112 25.2224 17.2354L26.1816 16.5314C26.3106 16.7485 26.4573 16.9333 26.6216 17.0858C26.7858 17.2384 26.9736 17.3586 27.1848 17.4466C27.4018 17.5288 27.6365 17.5698 27.8888 17.5698C28.2584 17.5698 28.5576 17.5024 28.7864 17.3674C29.021 17.2325 29.1384 17.0389 29.1384 16.7866C29.1384 16.6282 29.0856 16.4992 28.98 16.3994C28.8802 16.2997 28.7277 16.2176 28.5224 16.153C28.3229 16.0885 28.0266 16.0152 27.6336 15.933C27.1466 15.8333 26.7477 15.716 26.4368 15.581C26.1258 15.4402 25.8794 15.2525 25.6976 15.0178C25.5216 14.7773 25.4336 14.4693 25.4336 14.0938C25.4336 13.7008 25.5333 13.3634 25.7328 13.0818C25.9381 12.8002 26.2226 12.5861 26.5864 12.4394C26.9501 12.2928 27.3696 12.2194 27.8448 12.2194C28.2144 12.2194 28.5634 12.2752 28.892 12.3866C29.2205 12.4922 29.4816 12.6389 29.6752 12.8266C29.8688 13.0085 30.0448 13.2256 30.2032 13.4778L29.3848 14.1906C29.1442 13.9149 28.8949 13.7008 28.6368 13.5482C28.3845 13.3957 28.1117 13.3194 27.8184 13.3194C27.484 13.3194 27.2141 13.381 27.0088 13.5042C26.8093 13.6274 26.7096 13.7917 26.7096 13.997C26.7096 14.1437 26.7565 14.261 26.8504 14.349C26.9442 14.437 27.085 14.5133 27.2728 14.5778C27.4605 14.6365 27.7333 14.704 28.0912 14.7802C28.6192 14.8917 29.0445 15.0178 29.3672 15.1586C29.6957 15.2994 29.9509 15.496 30.1328 15.7482C30.3205 15.9946 30.4144 16.3202 30.4144 16.725C30.4144 17.124 30.3058 17.473 30.0888 17.7722C29.8776 18.0656 29.5813 18.2944 29.2 18.4586C28.8186 18.617 28.3816 18.6962 27.8888 18.6962ZM34.2081 18.5554V12.3602H36.5401C37.1796 12.3602 37.7223 12.4893 38.1681 12.7474C38.614 12.9997 38.9513 13.3605 39.1801 13.8298C39.4148 14.2933 39.5321 14.8389 39.5321 15.4666C39.5321 16.0944 39.4148 16.64 39.1801 17.1034C38.9513 17.5669 38.614 17.9248 38.1681 18.177C37.7223 18.4293 37.1796 18.5554 36.5401 18.5554H34.2081ZM36.5313 17.5082C37.0945 17.5082 37.5345 17.3322 37.8513 16.9802C38.1681 16.6224 38.3265 16.1178 38.3265 15.4666C38.3265 14.8154 38.1681 14.3109 37.8513 13.953C37.5345 13.5893 37.0945 13.4074 36.5313 13.4074H35.3961V17.5082H36.5313ZM43.796 18.6962C43.1858 18.6962 42.6461 18.5613 42.1768 18.2914C41.7133 18.0157 41.3525 17.6344 41.0944 17.1474C40.8421 16.6605 40.716 16.1032 40.716 15.4754C40.716 14.8477 40.8421 14.2874 41.0944 13.7946C41.3525 13.3018 41.7133 12.9176 42.1768 12.6418C42.6461 12.3602 43.1858 12.2194 43.796 12.2194C44.412 12.2194 44.9517 12.3602 45.4152 12.6418C45.8786 12.9176 46.2336 13.3018 46.48 13.7946C46.7322 14.2874 46.8584 14.8477 46.8584 15.4754C46.8584 16.1032 46.7322 16.6605 46.48 17.1474C46.2336 17.6344 45.8786 18.0157 45.4152 18.2914C44.9517 18.5613 44.412 18.6962 43.796 18.6962ZM43.796 17.6226C44.1656 17.6226 44.4912 17.5346 44.7728 17.3586C45.0544 17.1768 45.2714 16.9245 45.424 16.6018C45.5765 16.2792 45.6528 15.9037 45.6528 15.4754C45.6528 15.0472 45.5765 14.6688 45.424 14.3402C45.2714 14.0117 45.0544 13.7565 44.7728 13.5746C44.4912 13.3869 44.1656 13.293 43.796 13.293C43.4205 13.293 43.092 13.3869 42.8104 13.5746C42.5288 13.7565 42.3088 14.0117 42.1504 14.3402C41.9978 14.6688 41.9216 15.0472 41.9216 15.4754C41.9216 15.9037 41.9978 16.2792 42.1504 16.6018C42.3088 16.9245 42.5288 17.1768 42.8104 17.3586C43.092 17.5346 43.4205 17.6226 43.796 17.6226ZM51.1282 18.6962C50.5063 18.6962 49.9607 18.5613 49.4914 18.2914C49.0279 18.0157 48.6701 17.6344 48.4178 17.1474C48.1655 16.6546 48.0394 16.0914 48.0394 15.4578C48.0394 14.836 48.1626 14.2816 48.409 13.7946C48.6554 13.3018 49.0133 12.9176 49.4826 12.6418C49.9519 12.3602 50.5122 12.2194 51.1634 12.2194C51.5565 12.2194 51.9055 12.2752 52.2106 12.3866C52.5215 12.4922 52.7855 12.636 53.0026 12.8178C53.2197 12.9997 53.425 13.2226 53.6186 13.4866L52.7562 14.1906C52.545 13.9325 52.3103 13.7301 52.0522 13.5834C51.7941 13.4368 51.489 13.3634 51.137 13.3634C50.7322 13.3634 50.3861 13.4573 50.0986 13.645C49.817 13.8269 49.6029 14.0762 49.4562 14.393C49.3154 14.7098 49.245 15.0677 49.245 15.4666C49.245 15.8832 49.3183 16.2469 49.465 16.5578C49.6117 16.8688 49.8258 17.1122 50.1074 17.2882C50.389 17.4642 50.7293 17.5522 51.1282 17.5522C51.3746 17.5522 51.5946 17.517 51.7882 17.4466C51.9877 17.3762 52.1607 17.2824 52.3074 17.165C52.4599 17.0418 52.6095 16.8922 52.7562 16.7162L53.6186 17.4202C53.4367 17.6725 53.2285 17.8925 52.9938 18.0802C52.7591 18.268 52.4863 18.4176 52.1754 18.529C51.8645 18.6405 51.5154 18.6962 51.1282 18.6962ZM57.3059 18.5554V12.3602H58.4939V18.5554H57.3059ZM62.5585 18.6962C62.1243 18.6962 61.7283 18.6317 61.3705 18.5026C61.0185 18.3677 60.7193 18.1917 60.4729 17.9746C60.2323 17.7576 60.0387 17.5112 59.8921 17.2354L60.8513 16.5314C60.9803 16.7485 61.127 16.9333 61.2913 17.0858C61.4555 17.2384 61.6433 17.3586 61.8545 17.4466C62.0715 17.5288 62.3062 17.5698 62.5585 17.5698C62.9281 17.5698 63.2273 17.5024 63.4561 17.3674C63.6907 17.2325 63.8081 17.0389 63.8081 16.7866C63.8081 16.6282 63.7553 16.4992 63.6497 16.3994C63.5499 16.2997 63.3974 16.2176 63.1921 16.153C62.9926 16.0885 62.6963 16.0152 62.3033 15.933C61.8163 15.8333 61.4174 15.716 61.1065 15.581C60.7955 15.4402 60.5491 15.2525 60.3673 15.0178C60.1913 14.7773 60.1033 14.4693 60.1033 14.0938C60.1033 13.7008 60.203 13.3634 60.4025 13.0818C60.6078 12.8002 60.8923 12.5861 61.2561 12.4394C61.6198 12.2928 62.0393 12.2194 62.5145 12.2194C62.8841 12.2194 63.2331 12.2752 63.5617 12.3866C63.8902 12.4922 64.1513 12.6389 64.3449 12.8266C64.5385 13.0085 64.7145 13.2256 64.8729 13.4778L64.0545 14.1906C63.8139 13.9149 63.5646 13.7008 63.3065 13.5482C63.0542 13.3957 62.7814 13.3194 62.4881 13.3194C62.1537 13.3194 61.8838 13.381 61.6785 13.5042C61.479 13.6274 61.3793 13.7917 61.3793 13.997C61.3793 14.1437 61.4262 14.261 61.5201 14.349C61.6139 14.437 61.7547 14.5133 61.9425 14.5778C62.1302 14.6365 62.403 14.704 62.7609 14.7802C63.2889 14.8917 63.7142 15.0178 64.0369 15.1586C64.3654 15.2994 64.6206 15.496 64.8025 15.7482C64.9902 15.9946 65.0841 16.3202 65.0841 16.725C65.0841 17.124 64.9755 17.473 64.7585 17.7722C64.5473 18.0656 64.251 18.2944 63.8697 18.4586C63.4883 18.617 63.0513 18.6962 62.5585 18.6962ZM68.8778 18.5554V12.3602H70.4442L72.2394 16.9274L74.017 12.3602H75.5746V18.5554H74.3954V14.2874L72.7058 18.5554H71.773L70.0658 14.2786V18.5554H68.8778ZM77.4302 18.5554V12.3602H81.9094V13.4074H78.6182V14.8858H81.5398V15.8802H78.6182V17.5082H81.9094V18.5554H77.4302ZM83.4474 18.5554V12.3602H84.741L87.6714 16.5578V12.3602H88.8506V18.5554H87.6362L84.6354 14.261V18.5554H83.4474ZM92.2507 18.5554V13.4074H90.2003V12.3602H95.4803V13.4074H93.4387V18.5554H92.2507ZM96.8224 18.5554V12.3602H98.0104V18.5554H96.8224ZM102.612 18.6962C102.002 18.6962 101.462 18.5613 100.993 18.2914C100.529 18.0157 100.168 17.6344 99.9102 17.1474C99.6579 16.6605 99.5318 16.1032 99.5318 15.4754C99.5318 14.8477 99.6579 14.2874 99.9102 13.7946C100.168 13.3018 100.529 12.9176 100.993 12.6418C101.462 12.3602 102.002 12.2194 102.612 12.2194C103.228 12.2194 103.768 12.3602 104.231 12.6418C104.694 12.9176 105.049 13.3018 105.296 13.7946C105.548 14.2874 105.674 14.8477 105.674 15.4754C105.674 16.1032 105.548 16.6605 105.296 17.1474C105.049 17.6344 104.694 18.0157 104.231 18.2914C103.768 18.5613 103.228 18.6962 102.612 18.6962ZM102.612 17.6226C102.981 17.6226 103.307 17.5346 103.589 17.3586C103.87 17.1768 104.087 16.9245 104.24 16.6018C104.392 16.2792 104.469 15.9037 104.469 15.4754C104.469 15.0472 104.392 14.6688 104.24 14.3402C104.087 14.0117 103.87 13.7565 103.589 13.5746C103.307 13.3869 102.981 13.293 102.612 13.293C102.236 13.293 101.908 13.3869 101.626 13.5746C101.345 13.7565 101.125 14.0117 100.966 14.3402C100.814 14.6688 100.737 15.0472 100.737 15.4754C100.737 15.9037 100.814 16.2792 100.966 16.6018C101.125 16.9245 101.345 17.1768 101.626 17.3586C101.908 17.5346 102.236 17.6226 102.612 17.6226ZM107.19 18.5554V12.3602H108.483L111.414 16.5578V12.3602H112.593V18.5554H111.378L108.378 14.261V18.5554H107.19ZM114.453 18.5554V12.3602H118.932V13.4074H115.641V14.8858H118.563V15.8802H115.641V17.5082H118.932V18.5554H114.453ZM120.47 18.5554V12.3602H122.802C123.442 12.3602 123.984 12.4893 124.43 12.7474C124.876 12.9997 125.213 13.3605 125.442 13.8298C125.677 14.2933 125.794 14.8389 125.794 15.4666C125.794 16.0944 125.677 16.64 125.442 17.1034C125.213 17.5669 124.876 17.9248 124.43 18.177C123.984 18.4293 123.442 18.5554 122.802 18.5554H120.47ZM122.793 17.5082C123.357 17.5082 123.797 17.3322 124.113 16.9802C124.43 16.6224 124.589 16.1178 124.589 15.4666C124.589 14.8154 124.43 14.3109 124.113 13.953C123.797 13.5893 123.357 13.4074 122.793 13.4074H121.658V17.5082H122.793ZM129.669 18.5554V12.3602H130.857V18.5554H129.669ZM132.712 18.5554V12.3602H134.006L136.936 16.5578V12.3602H138.116V18.5554H136.901L133.9 14.261V18.5554H132.712Z" fill="#ACB1B9"/>
<rect width="196.772" height="6.41648" transform="translate(0 27.2588)" fill="white"/>
<rect y="30.1106" width="196.772" height="0.712943" fill="#ECEDEF"/>
<rect width="196.772" height="28.6847" transform="translate(0 33.6753)" fill="white"/>
<rect x="2.85177" y="33.6753" width="191.069" height="28.6847" rx="2.85177" fill="#686F7D" fill-opacity="0.06"/>
<g clip-path="url(#clip1_2148_8435)">
<path fill-rule="evenodd" clip-rule="evenodd" d="M17.1106 43.3001C14.945 43.3001 13.1894 45.0557 13.1894 47.2213C13.1894 48.5469 13.8467 49.719 14.8555 50.4296H19.3658C20.266 49.7955 20.8862 48.7935 21.0093 47.6445C21.0407 47.3508 21.3043 47.1383 21.5979 47.1697C21.8915 47.2012 22.1041 47.4647 22.0726 47.7584C21.9419 48.9788 21.3717 50.0666 20.5248 50.8613C20.5585 50.9003 20.5899 50.9416 20.6189 50.9851L21.0942 51.6981C21.647 52.5272 21.0526 53.6378 20.0561 53.6378H14.1651C13.1686 53.6378 12.5742 52.5272 13.127 51.6981L13.6023 50.9851C13.6313 50.9416 13.6628 50.9003 13.6965 50.8613C12.7268 49.9514 12.12 48.6572 12.12 47.2213C12.12 44.4651 14.3544 42.2307 17.1106 42.2307C17.4059 42.2307 17.6453 42.4701 17.6453 42.7654C17.6453 43.0607 17.4059 43.3001 17.1106 43.3001ZM14.6404 51.499C14.5808 51.499 14.5252 51.5288 14.4921 51.5783L14.0168 52.2913C13.9378 52.4097 14.0228 52.5684 14.1651 52.5684H20.0561C20.1985 52.5684 20.2834 52.4097 20.2044 52.2913L19.7291 51.5783C19.6961 51.5288 19.6404 51.499 19.5808 51.499H14.6404Z" fill="#6A707C"/>
<path fill-rule="evenodd" clip-rule="evenodd" d="M19.7465 42.7466C19.6657 42.5428 19.4687 42.4089 19.2494 42.4089C19.0302 42.4089 18.8332 42.5428 18.7524 42.7466L18.3284 43.8159C18.1404 44.2899 17.7382 44.6464 17.245 44.776L16.9747 44.8471C16.7613 44.9031 16.6043 45.0845 16.5793 45.3036C16.5544 45.5228 16.6666 45.7348 16.8618 45.8375L17.5147 46.1807C17.8368 46.35 18.0917 46.6238 18.2377 46.957L18.7597 48.1488C18.8449 48.3433 19.0371 48.469 19.2494 48.469C19.4618 48.469 19.654 48.3433 19.7392 48.1488L20.2612 46.957C20.4072 46.6238 20.6621 46.35 20.9841 46.1807L21.6371 45.8375C21.8323 45.7348 21.9445 45.5228 21.9195 45.3036C21.8946 45.0845 21.7375 44.9031 21.5242 44.8471L21.2539 44.776C20.7607 44.6464 20.3585 44.2899 20.1705 43.8159L19.7465 42.7466ZM18.3386 45.4368C18.7272 45.173 19.0433 44.8088 19.2494 44.3774C19.4556 44.8088 19.7717 45.173 20.1603 45.4368C19.7775 45.7146 19.4733 46.0905 19.2816 46.528L19.2494 46.6015L19.2172 46.528C19.0256 46.0905 18.7214 45.7146 18.3386 45.4368Z" fill="#6A707C"/>
</g>
<path d="M34.4836 51.6568C34.0264 51.6568 33.6186 51.5889 33.2602 51.4529C32.9018 51.317 32.5991 51.1347 32.3519 50.9061C32.1109 50.6713 31.9132 50.3995 31.7587 50.0905L32.528 49.553C32.6639 49.8063 32.8215 50.0225 33.0007 50.2017C33.1799 50.3747 33.393 50.5138 33.6402 50.6188C33.8935 50.7177 34.1747 50.7671 34.4836 50.7671C34.9347 50.7671 35.3023 50.6744 35.5865 50.489C35.8769 50.2975 36.0221 50.0349 36.0221 49.7012C36.0221 49.485 35.9604 49.312 35.8368 49.1822C35.7194 49.0463 35.5371 48.9351 35.2899 48.8486C35.0428 48.7621 34.6875 48.6725 34.2241 48.5798C33.7236 48.4747 33.3127 48.3512 32.9914 48.2091C32.6763 48.0669 32.4322 47.8785 32.2592 47.6437C32.0862 47.4027 31.9997 47.0938 31.9997 46.7169C31.9997 46.3338 32.1017 46.0001 32.3056 45.7159C32.5157 45.4317 32.803 45.2154 33.1675 45.0671C33.5382 44.9188 33.9584 44.8447 34.428 44.8447C34.7987 44.8447 35.1355 44.9003 35.4382 45.0115C35.741 45.1227 36.0067 45.2772 36.2353 45.4749C36.4639 45.6665 36.6586 45.8951 36.8192 46.1608L36.087 46.7169C35.8893 46.4017 35.6483 46.1577 35.3641 45.9847C35.0799 45.8117 34.7617 45.7252 34.4095 45.7252C33.9893 45.7252 33.6495 45.8117 33.39 45.9847C33.1366 46.1515 33.01 46.3739 33.01 46.652C33.01 46.8435 33.0625 46.998 33.1675 47.1154C33.2787 47.2328 33.4425 47.3317 33.6587 47.412C33.8812 47.4923 34.1994 47.5757 34.6134 47.6622C35.1633 47.7796 35.6082 47.9094 35.948 48.0515C36.2878 48.1936 36.5535 48.3913 36.7451 48.6447C36.9366 48.898 37.0324 49.2286 37.0324 49.6364C37.0324 50.0442 36.9242 50.4025 36.708 50.7115C36.4917 51.0142 36.189 51.249 35.7997 51.4159C35.4166 51.5765 34.9779 51.6568 34.4836 51.6568ZM39.8212 51.6012C39.3578 51.6012 39.021 51.4931 38.8109 51.2768C38.607 51.0544 38.5051 50.7424 38.5051 50.3408V47.5881H37.7544V46.8281H38.5051V45.6232H39.4226V46.8281H40.4329V47.5881H39.4226V50.2944C39.4226 50.4798 39.4721 50.6126 39.5709 50.6929C39.676 50.7733 39.8335 50.8134 40.0436 50.8134C40.1425 50.8134 40.2691 50.8042 40.4236 50.7856V51.5271C40.2135 51.5765 40.0127 51.6012 39.8212 51.6012ZM41.4421 51.5178V46.8281H42.3597V47.5881C42.4832 47.3348 42.6532 47.137 42.8694 46.9949C43.0857 46.8528 43.3421 46.7817 43.6387 46.7817C43.6819 46.7817 43.7221 46.7848 43.7592 46.791C43.7962 46.791 43.8364 46.7941 43.8797 46.8003V47.6715C43.8055 47.6591 43.7221 47.653 43.6294 47.653C43.2463 47.653 42.9374 47.7827 42.7026 48.0422C42.474 48.2956 42.3597 48.6385 42.3597 49.071V51.5178H41.4421ZM45.9409 51.629C45.6134 51.629 45.3323 51.5703 45.0975 51.4529C44.8689 51.3355 44.6959 51.1749 44.5785 50.971C44.4611 50.7671 44.4024 50.5385 44.4024 50.2851C44.4024 49.8712 44.5445 49.5437 44.8287 49.3027C45.1191 49.0617 45.5424 48.898 46.0985 48.8115L47.0438 48.6725C47.2107 48.6478 47.325 48.6076 47.3868 48.552C47.4485 48.4902 47.4794 48.4037 47.4794 48.2925C47.4794 48.0515 47.3898 47.8538 47.2107 47.6993C47.0315 47.5387 46.7843 47.4583 46.4692 47.4583C46.1973 47.4583 45.9625 47.5232 45.7648 47.653C45.5671 47.7827 45.3879 47.9681 45.2273 48.2091L44.5229 47.8105C44.6588 47.5634 44.8225 47.3564 45.0141 47.1895C45.2118 47.0227 45.4312 46.8961 45.6721 46.8095C45.9193 46.723 46.1912 46.6798 46.4877 46.6798C46.8708 46.6798 47.2045 46.7509 47.4887 46.893C47.7729 47.0289 47.9923 47.2235 48.1468 47.4769C48.3012 47.724 48.3785 48.0113 48.3785 48.3388V51.5178H47.4794V50.6651C47.3311 50.9679 47.1211 51.2058 46.8492 51.3788C46.5773 51.5456 46.2746 51.629 45.9409 51.629ZM46.1726 50.8968C46.4321 50.8968 46.6607 50.832 46.8585 50.7022C47.0562 50.5663 47.2076 50.384 47.3126 50.1554C47.4238 49.9206 47.4794 49.6549 47.4794 49.3583V49.1359C47.4362 49.1606 47.3744 49.1853 47.2941 49.21C47.2137 49.2286 47.1242 49.2471 47.0253 49.2656L46.3394 49.3769C46.0181 49.4263 45.7648 49.5159 45.5794 49.6456C45.4003 49.7692 45.3107 49.9515 45.3107 50.1925C45.3107 50.4087 45.3879 50.5817 45.5424 50.7115C45.6968 50.8351 45.9069 50.8968 46.1726 50.8968ZM51.1531 51.6012C50.6897 51.6012 50.3529 51.4931 50.1428 51.2768C49.9389 51.0544 49.837 50.7424 49.837 50.3408V47.5881H49.0862V46.8281H49.837V45.6232H50.7545V46.8281H51.7648V47.5881H50.7545V50.2944C50.7545 50.4798 50.804 50.6126 50.9028 50.6929C51.0079 50.7733 51.1654 50.8134 51.3755 50.8134C51.4744 50.8134 51.601 50.8042 51.7555 50.7856V51.5271C51.5454 51.5765 51.3446 51.6012 51.1531 51.6012ZM54.7404 51.6661C54.2708 51.6661 53.8568 51.5611 53.4984 51.351C53.1463 51.1347 52.8744 50.8382 52.6828 50.4612C52.4975 50.0782 52.4048 49.6456 52.4048 49.1637C52.4048 48.6941 52.4975 48.2708 52.6828 47.8939C52.8682 47.517 53.137 47.2204 53.4892 47.0042C53.8414 46.7879 54.2523 46.6798 54.7219 46.6798C55.1729 46.6798 55.5591 46.7817 55.8804 46.9856C56.2017 47.1895 56.4458 47.4769 56.6126 47.8476C56.7794 48.2121 56.8628 48.6416 56.8628 49.1359C56.8628 49.2224 56.8597 49.2996 56.8536 49.3676H53.2945C53.3254 49.8743 53.4676 50.2573 53.7209 50.5169C53.9804 50.7702 54.3295 50.8968 54.7682 50.8968C55.0833 50.8968 55.3521 50.832 55.5745 50.7022C55.797 50.5663 56.0009 50.3809 56.1862 50.1461L56.7609 50.6466C56.5137 50.9741 56.2233 51.2274 55.8897 51.4066C55.556 51.5796 55.1729 51.6661 54.7404 51.6661ZM55.9638 48.7188C55.9453 48.311 55.8248 47.9959 55.6023 47.7734C55.3799 47.551 55.0864 47.4398 54.7219 47.4398C54.3388 47.4398 54.0236 47.551 53.7765 47.7734C53.5355 47.9959 53.3841 48.311 53.3223 48.7188H55.9638ZM60.1092 53.4271C59.6581 53.4271 59.2503 53.3468 58.8858 53.1861C58.5212 53.0255 58.2215 52.803 57.9867 52.5188L58.5984 51.972C58.7962 52.1759 59.0186 52.3365 59.2658 52.4539C59.5191 52.5713 59.8002 52.63 60.1092 52.63C60.3934 52.63 60.6313 52.5806 60.8228 52.4817C61.0144 52.3829 61.1596 52.2346 61.2584 52.0368C61.3573 51.8391 61.4067 51.592 61.4067 51.2954V50.6744C61.2275 50.9154 61.0051 51.1038 60.7394 51.2398C60.4737 51.3695 60.1802 51.4344 59.8589 51.4344C59.4388 51.4344 59.0649 51.3355 58.7375 51.1378C58.4162 50.9339 58.1628 50.6528 57.9775 50.2944C57.7983 49.936 57.7087 49.5251 57.7087 49.0617C57.7087 48.5983 57.7983 48.1874 57.9775 47.8291C58.1628 47.4645 58.4162 47.1834 58.7375 46.9856C59.0649 46.7817 59.4388 46.6798 59.8589 46.6798C60.1802 46.6798 60.4737 46.7478 60.7394 46.8837C61.0051 47.0135 61.2275 47.1988 61.4067 47.4398V46.8281H62.315V51.3139C62.315 51.7588 62.2254 52.1388 62.0462 52.4539C61.8671 52.7752 61.6106 53.0162 61.277 53.1768C60.9495 53.3437 60.5602 53.4271 60.1092 53.4271ZM60.035 50.6837C60.3069 50.6837 60.5448 50.6188 60.7487 50.489C60.9588 50.3531 61.1194 50.1647 61.2306 49.9237C61.348 49.6827 61.4067 49.3954 61.4067 49.0617C61.4067 48.5612 61.2832 48.1658 61.036 47.8754C60.795 47.5788 60.4614 47.4305 60.035 47.4305C59.6025 47.4305 59.2627 47.5788 59.0155 47.8754C58.7684 48.1658 58.6448 48.5612 58.6448 49.0617C58.6448 49.3954 58.7004 49.6827 58.8116 49.9237C58.929 50.1647 59.0897 50.3531 59.2936 50.489C59.5036 50.6188 59.7508 50.6837 60.035 50.6837ZM63.7712 53.2788V52.4632H64.1049C64.352 52.4632 64.5405 52.4199 64.6702 52.3334C64.8 52.2469 64.905 52.1017 64.9854 51.8978L65.1429 51.5086L63.2244 46.8281H64.1698L65.5971 50.4242L67.0151 46.8281H67.9605L65.801 52.111C65.6341 52.525 65.4148 52.8216 65.1429 53.0007C64.8772 53.1861 64.5312 53.2788 64.1049 53.2788H63.7712ZM70.7863 51.5178V50.6744L73.3537 48.4964C73.5884 48.2986 73.7738 48.1287 73.9097 47.9866C74.0519 47.8383 74.1693 47.6715 74.2619 47.4861C74.3608 47.3008 74.4102 47.0814 74.4102 46.8281C74.4102 46.5068 74.2928 46.238 74.058 46.0217C73.8232 45.8055 73.5019 45.6974 73.0941 45.6974C72.7172 45.6974 72.4021 45.7931 72.1488 45.9847C71.8954 46.1762 71.6915 46.4172 71.5371 46.7076L70.7771 46.2349C70.9007 45.9939 71.0613 45.7684 71.259 45.5583C71.4629 45.3483 71.7193 45.1783 72.0283 45.0486C72.3372 44.9126 72.6925 44.8447 73.0941 44.8447C73.5452 44.8447 73.9406 44.9312 74.2805 45.1042C74.6265 45.271 74.8922 45.5089 75.0775 45.8178C75.2691 46.1206 75.3649 46.4697 75.3649 46.8652C75.3649 47.1988 75.2938 47.5047 75.1517 47.7827C75.0096 48.0608 74.8366 48.3048 74.6327 48.5149C74.4349 48.725 74.1785 48.9598 73.8634 49.2193L72.1673 50.6744H75.3927V51.5178H70.7863ZM79.0336 51.6661C78.4652 51.6661 77.9863 51.5209 77.5971 51.2305C77.2078 50.9401 76.9143 50.5385 76.7166 50.0256C76.5189 49.5128 76.42 48.9165 76.42 48.2369C76.42 47.5695 76.5189 46.9826 76.7166 46.4759C76.9143 45.963 77.2078 45.5645 77.5971 45.2803C77.9925 44.9899 78.4683 44.8447 79.0244 44.8447C79.5805 44.8447 80.0501 44.9899 80.4331 45.2803C80.8224 45.5645 81.1159 45.963 81.3136 46.4759C81.5114 46.9826 81.6102 47.5695 81.6102 48.2369C81.6102 48.9165 81.5114 49.5159 81.3136 50.0349C81.1221 50.5477 80.8317 50.9494 80.4424 51.2398C80.0593 51.524 79.5897 51.6661 79.0336 51.6661ZM79.0336 50.8042C79.5465 50.8042 79.945 50.5817 80.2292 50.1369C80.5135 49.6858 80.6556 49.0525 80.6556 48.2369C80.6556 47.4398 80.5104 46.8188 80.22 46.3739C79.9358 45.9291 79.5372 45.7066 79.0244 45.7066C78.5054 45.7066 78.1006 45.9291 77.8102 46.3739C77.5198 46.8188 77.3746 47.4398 77.3746 48.2369C77.3746 49.0463 77.5198 49.6765 77.8102 50.1276C78.1006 50.5786 78.5084 50.8042 79.0336 50.8042ZM82.5255 51.5178V50.6744L85.0928 48.4964C85.3276 48.2986 85.513 48.1287 85.6489 47.9866C85.791 47.8383 85.9084 47.6715 86.0011 47.4861C86.1 47.3008 86.1494 47.0814 86.1494 46.8281C86.1494 46.5068 86.032 46.238 85.7972 46.0217C85.5624 45.8055 85.2411 45.6974 84.8333 45.6974C84.4564 45.6974 84.1413 45.7931 83.888 45.9847C83.6346 46.1762 83.4307 46.4172 83.2763 46.7076L82.5163 46.2349C82.6398 45.9939 82.8005 45.7684 82.9982 45.5583C83.2021 45.3483 83.4585 45.1783 83.7675 45.0486C84.0764 44.9126 84.4317 44.8447 84.8333 44.8447C85.2844 44.8447 85.6798 44.9312 86.0197 45.1042C86.3657 45.271 86.6314 45.5089 86.8167 45.8178C87.0083 46.1206 87.104 46.4697 87.104 46.8652C87.104 47.1988 87.033 47.5047 86.8909 47.7827C86.7488 48.0608 86.5758 48.3048 86.3719 48.5149C86.1741 48.725 85.9177 48.9598 85.6026 49.2193L83.9065 50.6744H87.1318V51.5178H82.5255ZM90.1245 51.6568C89.7599 51.6568 89.4355 51.6105 89.1513 51.5178C88.8671 51.4251 88.623 51.2985 88.4191 51.1378C88.2214 50.9772 88.0484 50.7887 87.9001 50.5725L88.5489 49.9978C88.7404 50.2512 88.9567 50.452 89.1977 50.6003C89.4386 50.7424 89.7352 50.8134 90.0874 50.8134C90.5261 50.8134 90.8783 50.7022 91.144 50.4798C91.4159 50.2573 91.5518 49.9638 91.5518 49.5993C91.5518 49.2347 91.4189 48.9567 91.1533 48.7652C90.8937 48.5736 90.5385 48.4778 90.0874 48.4778H89.6333V47.6993H90.0689C90.4705 47.6993 90.7794 47.6066 90.9957 47.4213C91.212 47.2297 91.3201 46.9856 91.3201 46.6891C91.3201 46.3739 91.2089 46.1299 90.9864 45.9569C90.764 45.7777 90.4643 45.6881 90.0874 45.6881C89.7785 45.6881 89.5035 45.7591 89.2625 45.9013C89.0277 46.0434 88.8207 46.2411 88.6416 46.4944L88.0021 45.9291C88.2554 45.5831 88.552 45.3174 88.8918 45.132C89.2378 44.9405 89.6487 44.8447 90.1245 44.8447C90.5817 44.8447 90.9679 44.925 91.283 45.0857C91.5981 45.2401 91.8453 45.4533 92.0245 45.7252C92.2037 45.9909 92.2933 46.2874 92.2933 46.6149C92.2933 46.9115 92.2129 47.1834 92.0523 47.4305C91.8916 47.6715 91.6723 47.8692 91.3942 48.0237C91.7711 48.172 92.0523 48.3882 92.2376 48.6725C92.4292 48.9505 92.525 49.2718 92.525 49.6364C92.525 50.0195 92.4292 50.3655 92.2376 50.6744C92.0461 50.9772 91.7681 51.2181 91.4035 51.3973C91.0389 51.5703 90.6126 51.6568 90.1245 51.6568Z" fill="#3F434A"/>
<rect width="196.772" height="28.6847" transform="translate(0 62.3601)" fill="white"/>
<g clip-path="url(#clip2_2148_8435)">
<path fill-rule="evenodd" clip-rule="evenodd" d="M18.6333 70.9824C18.8429 71.0983 18.9498 71.3394 18.895 71.5726L18.1244 74.8521L21.8083 75.293C22.011 75.3172 22.1823 75.4548 22.2496 75.6476C22.3169 75.8404 22.2685 76.0547 22.1249 76.1999L16.227 82.1639C16.059 82.3337 15.7989 82.3716 15.5895 82.2567C15.3801 82.1417 15.2724 81.9019 15.3254 81.6691L16.0971 78.2838L12.4276 77.9468C12.2216 77.9278 12.045 77.7918 11.9741 77.5975C11.9033 77.4032 11.9509 77.1854 12.0963 77.0383L17.9943 71.0743C18.1627 70.904 18.4238 70.8664 18.6333 70.9824ZM13.6527 76.9854L16.8031 77.2747C16.9565 77.2888 17.0965 77.3685 17.187 77.4932C17.2775 77.618 17.3097 77.7758 17.2755 77.926L16.7847 80.079L20.5961 76.2249L17.4035 75.8428C17.2524 75.8247 17.1162 75.7431 17.029 75.6184C16.9417 75.4937 16.9118 75.3377 16.9466 75.1896L17.4197 73.1762L13.6527 76.9854Z" fill="#6A707C"/>
</g>
<path d="M35.086 80.3509C34.4373 80.3509 33.8719 80.2057 33.39 79.9153C32.9142 79.6249 32.5465 79.2233 32.287 78.7104C32.0275 78.1976 31.8978 77.6137 31.8978 76.9587C31.8978 76.3038 32.0275 75.7168 32.287 75.1978C32.5465 74.6788 32.9142 74.271 33.39 73.9744C33.8719 73.6778 34.4373 73.5295 35.086 73.5295C35.7286 73.5295 36.2878 73.6778 36.7636 73.9744C37.2455 74.2648 37.6132 74.6726 37.8665 75.1978C38.1199 75.7168 38.2465 76.3038 38.2465 76.9587C38.2465 77.6137 38.1199 78.1976 37.8665 78.7104C37.6132 79.2233 37.2486 79.6249 36.7729 79.9153C36.2971 80.2057 35.7348 80.3509 35.086 80.3509ZM35.0768 79.489C35.5278 79.489 35.9202 79.3839 36.2538 79.1739C36.5875 78.9576 36.8408 78.6579 37.0138 78.2748C37.193 77.8918 37.2826 77.4531 37.2826 76.9587C37.2826 76.4583 37.193 76.0165 37.0138 75.6334C36.8347 75.2441 36.5782 74.9414 36.2446 74.7251C35.9171 74.5027 35.5278 74.3914 35.0768 74.3914C34.6319 74.3914 34.2426 74.5027 33.909 74.7251C33.5753 74.9414 33.3158 75.2441 33.1304 75.6334C32.9513 76.0165 32.8617 76.4583 32.8617 76.9587C32.8617 77.4531 32.9513 77.8918 33.1304 78.2748C33.3096 78.6579 33.5661 78.9576 33.8997 79.1739C34.2334 79.3839 34.6257 79.489 35.0768 79.489ZM39.6815 80.2026V73.6778H40.6176V76.7548L43.7503 73.6778H44.9644L42.1469 76.449L44.9644 80.2026H43.7966L41.4795 77.1163L40.6176 77.9505V80.2026H39.6815ZM46.1439 80.2026V73.6778H49.2025C49.8389 73.6778 50.3332 73.8446 50.6854 74.1783C51.0376 74.5058 51.2137 74.9475 51.2137 75.5036C51.2137 75.7817 51.1612 76.0319 51.0561 76.2544C50.9573 76.4768 50.8151 76.6622 50.6298 76.8105C50.4444 76.9587 50.2282 77.0638 49.981 77.1256C50.1911 77.2121 50.3641 77.3449 50.5 77.5241C50.636 77.6971 50.7503 77.9412 50.8429 78.2563L51.4083 80.2026H50.3981L49.8976 78.5065C49.8296 78.2594 49.7493 78.0648 49.6566 77.9226C49.5639 77.7805 49.4373 77.6755 49.2766 77.6075C49.116 77.5334 48.909 77.4963 48.6556 77.4963H47.08V80.2026H46.1439ZM49.1005 76.7085C49.4774 76.7085 49.7647 76.6158 49.9625 76.4305C50.1602 76.2389 50.259 75.9609 50.259 75.5963C50.259 75.2318 50.1602 74.9568 49.9625 74.7714C49.7647 74.5861 49.4774 74.4934 49.1005 74.4934H47.08V76.7085H49.1005ZM55.0502 80.2026V73.6778H57.3487C58.0098 73.6778 58.5721 73.8106 59.0355 74.0763C59.5051 74.3358 59.8604 74.7097 60.1014 75.1978C60.3485 75.6859 60.4721 76.2698 60.4721 76.9495C60.4721 77.623 60.3485 78.2038 60.1014 78.6919C59.8604 79.18 59.5051 79.5539 59.0355 79.8134C58.5721 80.0729 58.0098 80.2026 57.3487 80.2026H55.0502ZM57.3394 79.3592C58.0253 79.3592 58.5566 79.1553 58.9336 78.7475C59.3166 78.3335 59.5082 77.7342 59.5082 76.9495C59.5082 76.1648 59.3166 75.5623 58.9336 75.1422C58.5566 74.722 58.0253 74.5119 57.3394 74.5119H55.9862V79.3592H57.3394ZM62.8573 80.3139C62.5298 80.3139 62.2487 80.2552 62.0139 80.1378C61.7853 80.0204 61.6122 79.8597 61.4948 79.6558C61.3774 79.4519 61.3188 79.2233 61.3188 78.97C61.3188 78.556 61.4609 78.2285 61.7451 77.9875C62.0355 77.7465 62.4587 77.5828 63.0148 77.4963L63.9602 77.3573C64.127 77.3326 64.2413 77.2924 64.3031 77.2368C64.3649 77.175 64.3958 77.0885 64.3958 76.9773C64.3958 76.7363 64.3062 76.5386 64.127 76.3841C63.9478 76.2235 63.7007 76.1431 63.3856 76.1431C63.1137 76.1431 62.8789 76.208 62.6812 76.3378C62.4835 76.4675 62.3043 76.6529 62.1436 76.8939L61.4392 76.4953C61.5752 76.2482 61.7389 76.0412 61.9305 75.8744C62.1282 75.7075 62.3475 75.5809 62.5885 75.4944C62.8357 75.4079 63.1075 75.3646 63.4041 75.3646C63.7872 75.3646 64.1209 75.4357 64.4051 75.5778C64.6893 75.7137 64.9087 75.9083 65.0631 76.1617C65.2176 76.4088 65.2948 76.6961 65.2948 77.0236V80.2026H64.3958V79.35C64.2475 79.6527 64.0374 79.8906 63.7656 80.0636C63.4937 80.2304 63.1909 80.3139 62.8573 80.3139ZM63.089 79.5817C63.3485 79.5817 63.5771 79.5168 63.7748 79.387C63.9726 79.2511 64.1239 79.0688 64.229 78.8402C64.3402 78.6054 64.3958 78.3397 64.3958 78.0431V77.8207C64.3526 77.8454 64.2908 77.8701 64.2104 77.8948C64.1301 77.9134 64.0405 77.9319 63.9417 77.9505L63.2558 78.0617C62.9345 78.1111 62.6812 78.2007 62.4958 78.3304C62.3166 78.454 62.227 78.6363 62.227 78.8773C62.227 79.0935 62.3043 79.2665 62.4587 79.3963C62.6132 79.5199 62.8233 79.5817 63.089 79.5817ZM68.2897 80.3509C67.8078 80.3509 67.3907 80.2521 67.0385 80.0543C66.6863 79.8566 66.4052 79.5848 66.1951 79.2387L66.8531 78.7568C67.02 79.0225 67.2239 79.2295 67.4648 79.3778C67.712 79.5261 67.9931 79.6002 68.3082 79.6002C68.6295 79.6002 68.8798 79.5353 69.059 79.4056C69.2443 79.2758 69.337 79.1059 69.337 78.8958C69.337 78.729 69.2752 78.6023 69.1517 78.5158C69.0281 78.4293 68.8026 78.3459 68.4751 78.2656C68.4133 78.2532 68.3546 78.2409 68.299 78.2285C68.2434 78.2161 68.1816 78.2038 68.1136 78.1914C67.7305 78.1049 67.4185 78.0092 67.1775 77.9041C66.9365 77.7991 66.7512 77.66 66.6214 77.487C66.4917 77.3079 66.4268 77.0761 66.4268 76.7919C66.4268 76.5077 66.5009 76.2574 66.6492 76.0412C66.8037 75.8249 67.02 75.6581 67.298 75.5407C67.5761 75.4233 67.8943 75.3646 68.2526 75.3646C68.6975 75.3646 69.0621 75.448 69.3463 75.6149C69.6305 75.7817 69.8777 76.0072 70.0877 76.2914L69.476 76.7827C69.303 76.5664 69.1239 76.4027 68.9385 76.2914C68.7593 76.174 68.5369 76.1153 68.2712 76.1153C67.9931 76.1153 67.7676 76.174 67.5946 76.2914C67.4216 76.4027 67.3351 76.5509 67.3351 76.7363C67.3351 76.9031 67.4092 77.0267 67.5575 77.107C67.7058 77.1874 67.9715 77.2708 68.3546 77.3573C68.3793 77.3635 68.404 77.3696 68.4287 77.3758C68.4534 77.382 68.4782 77.3882 68.5029 77.3944C68.9169 77.4747 69.2474 77.5705 69.4946 77.6817C69.7479 77.7867 69.9395 77.9319 70.0692 78.1173C70.199 78.2965 70.2638 78.5374 70.2638 78.8402C70.2638 79.1368 70.1835 79.3994 70.0229 79.628C69.8684 79.8566 69.6429 80.0358 69.3463 80.1656C69.0497 80.2891 68.6975 80.3509 68.2897 80.3509ZM71.3196 80.2026V73.4832H72.2278V76.1061C72.3885 75.8713 72.5924 75.689 72.8396 75.5592C73.0929 75.4295 73.3802 75.3646 73.7015 75.3646C74.2329 75.3646 74.6469 75.5376 74.9434 75.8836C75.2462 76.2235 75.3976 76.69 75.3976 77.2831V80.2026H74.48V77.3758C74.48 76.9742 74.3935 76.6714 74.2205 76.4675C74.0475 76.2575 73.788 76.1524 73.442 76.1524C73.201 76.1524 72.9878 76.2142 72.8025 76.3378C72.6233 76.4552 72.4812 76.6282 72.3761 76.8568C72.2773 77.0792 72.2278 77.3418 72.2278 77.6446V80.2026H71.3196ZM79.2155 80.3509C78.8942 80.3509 78.5976 80.2799 78.3258 80.1378C78.0601 79.9956 77.8377 79.7979 77.6585 79.5446V80.2026H76.7502V73.4832H77.6585V76.1709C77.8377 75.9176 78.0601 75.7199 78.3258 75.5778C78.5976 75.4357 78.8942 75.3646 79.2155 75.3646C79.6357 75.3646 80.0095 75.4727 80.337 75.689C80.6706 75.8991 80.9271 76.1926 81.1063 76.5695C81.2916 76.9464 81.3843 77.3758 81.3843 77.8578C81.3843 78.3397 81.2916 78.7691 81.1063 79.1461C80.9271 79.523 80.6706 79.8195 80.337 80.0358C80.0095 80.2459 79.6357 80.3509 79.2155 80.3509ZM79.0394 79.5631C79.3237 79.5631 79.5708 79.4952 79.7809 79.3592C79.991 79.2171 80.1516 79.0194 80.2628 78.7661C80.3802 78.5065 80.4389 78.2038 80.4389 77.8578C80.4389 77.3326 80.3123 76.9186 80.0589 76.6158C79.8118 76.3069 79.472 76.1524 79.0394 76.1524C78.6131 76.1524 78.2763 76.3069 78.0292 76.6158C77.782 76.9186 77.6585 77.3326 77.6585 77.8578C77.6585 78.2038 77.7141 78.5065 77.8253 78.7661C77.9427 79.0194 78.1033 79.2171 78.3072 79.3592C78.5173 79.4952 78.7614 79.5631 79.0394 79.5631ZM84.5454 80.3509C84.0882 80.3509 83.6835 80.2459 83.3313 80.0358C82.9791 79.8257 82.7041 79.5322 82.5064 79.1553C82.3087 78.7784 82.2098 78.3459 82.2098 77.8578C82.2098 77.3758 82.3087 76.9464 82.5064 76.5695C82.7041 76.1864 82.9791 75.8898 83.3313 75.6797C83.6835 75.4696 84.0882 75.3646 84.5454 75.3646C84.9965 75.3646 85.3981 75.4696 85.7503 75.6797C86.1025 75.8898 86.3744 76.1864 86.5659 76.5695C86.7636 76.9464 86.8625 77.3758 86.8625 77.8578C86.8625 78.3459 86.7636 78.7784 86.5659 79.1553C86.3744 79.5322 86.1025 79.8257 85.7503 80.0358C85.3981 80.2459 84.9965 80.3509 84.5454 80.3509ZM84.5454 79.5631C84.8235 79.5631 85.0644 79.4952 85.2684 79.3592C85.4784 79.2233 85.6391 79.0287 85.7503 78.7753C85.8615 78.5158 85.9171 78.21 85.9171 77.8578C85.9171 77.5056 85.8615 77.2028 85.7503 76.9495C85.6453 76.69 85.4877 76.4922 85.2776 76.3563C85.0737 76.2204 84.8297 76.1524 84.5454 76.1524C84.255 76.1524 84.0048 76.2204 83.7947 76.3563C83.5908 76.4922 83.4301 76.69 83.3127 76.9495C83.2015 77.2028 83.1459 77.5056 83.1459 77.8578C83.1459 78.21 83.2015 78.5127 83.3127 78.7661C83.4301 79.0194 83.5939 79.2171 83.804 79.3592C84.014 79.4952 84.2612 79.5631 84.5454 79.5631ZM89.1686 80.3139C88.8411 80.3139 88.56 80.2552 88.3252 80.1378C88.0966 80.0204 87.9236 79.8597 87.8062 79.6558C87.6888 79.4519 87.6301 79.2233 87.6301 78.97C87.6301 78.556 87.7722 78.2285 88.0564 77.9875C88.3468 77.7465 88.7701 77.5828 89.3262 77.4963L90.2715 77.3573C90.4384 77.3326 90.5527 77.2924 90.6145 77.2368C90.6763 77.175 90.7072 77.0885 90.7072 76.9773C90.7072 76.7363 90.6176 76.5386 90.4384 76.3841C90.2592 76.2235 90.012 76.1431 89.6969 76.1431C89.425 76.1431 89.1902 76.208 88.9925 76.3378C88.7948 76.4675 88.6156 76.6529 88.455 76.8939L87.7506 76.4953C87.8865 76.2482 88.0503 76.0412 88.2418 75.8744C88.4395 75.7075 88.6589 75.5809 88.8998 75.4944C89.147 75.4079 89.4189 75.3646 89.7154 75.3646C90.0985 75.3646 90.4322 75.4357 90.7164 75.5778C91.0006 75.7137 91.22 75.9083 91.3745 76.1617C91.5289 76.4088 91.6062 76.6961 91.6062 77.0236V80.2026H90.7072V79.35C90.5589 79.6527 90.3488 79.8906 90.0769 80.0636C89.805 80.2304 89.5023 80.3139 89.1686 80.3139ZM89.4003 79.5817C89.6598 79.5817 89.8885 79.5168 90.0862 79.387C90.2839 79.2511 90.4353 79.0688 90.5403 78.8402C90.6515 78.6054 90.7072 78.3397 90.7072 78.0431V77.8207C90.6639 77.8454 90.6021 77.8701 90.5218 77.8948C90.4415 77.9134 90.3519 77.9319 90.253 77.9505L89.5672 78.0617C89.2459 78.1111 88.9925 78.2007 88.8072 78.3304C88.628 78.454 88.5384 78.6363 88.5384 78.8773C88.5384 79.0935 88.6156 79.2665 88.7701 79.3963C88.9246 79.5199 89.1346 79.5817 89.4003 79.5817ZM92.9606 80.2026V75.5129H93.8781V76.2729C94.0017 76.0196 94.1716 75.8218 94.3879 75.6797C94.6041 75.5376 94.8606 75.4666 95.1571 75.4666C95.2004 75.4666 95.2406 75.4696 95.2776 75.4758C95.3147 75.4758 95.3549 75.4789 95.3981 75.4851V76.3563C95.324 76.344 95.2406 76.3378 95.1479 76.3378C94.7648 76.3378 94.4558 76.4675 94.2211 76.727C93.9924 76.9804 93.8781 77.3233 93.8781 77.7558V80.2026H92.9606ZM98.1452 80.3509C97.7189 80.3509 97.342 80.2459 97.0145 80.0358C96.687 79.8195 96.4306 79.523 96.2452 79.1461C96.066 78.7691 95.9764 78.3397 95.9764 77.8578C95.9764 77.3758 96.066 76.9464 96.2452 76.5695C96.4306 76.1926 96.687 75.8991 97.0145 75.689C97.342 75.4727 97.7189 75.3646 98.1452 75.3646C98.4665 75.3646 98.76 75.4357 99.0257 75.5778C99.2914 75.7199 99.5169 75.9176 99.7023 76.1709V73.4832H100.611V80.2026H99.7023V79.5446C99.5169 79.7979 99.2914 79.9956 99.0257 80.1378C98.76 80.2799 98.4665 80.3509 98.1452 80.3509ZM98.312 79.5631C98.5901 79.5631 98.8342 79.4952 99.0442 79.3592C99.2543 79.2171 99.415 79.0194 99.5262 78.7661C99.6436 78.5065 99.7023 78.2038 99.7023 77.8578C99.7023 77.3326 99.5756 76.9186 99.3223 76.6158C99.0751 76.3069 98.7384 76.1524 98.312 76.1524C97.8857 76.1524 97.5459 76.3069 97.2925 76.6158C97.0392 76.9186 96.9125 77.3326 96.9125 77.8578C96.9125 78.2038 96.9681 78.5065 97.0794 78.7661C97.1968 79.0194 97.3605 79.2171 97.5706 79.3592C97.7868 79.4952 98.034 79.5631 98.312 79.5631Z" fill="#3F434A"/>
<rect width="196.772" height="28.6847" transform="translate(0 91.0449)" fill="white"/>
<g clip-path="url(#clip3_2148_8435)">
<path fill-rule="evenodd" clip-rule="evenodd" d="M19.2495 100.135C19.2495 99.8397 19.4888 99.6003 19.7842 99.6003C20.0795 99.6003 20.3189 99.8397 20.3189 100.135V101.026H21.21C22.096 101.026 22.8142 101.744 22.8142 102.63V109.403C22.8142 110.289 22.096 111.007 21.21 111.007H13.0112C12.1253 111.007 11.4071 110.289 11.4071 109.403L11.4071 102.63C11.4071 101.744 12.1253 101.026 13.0112 101.026H13.9024V100.135C13.9024 99.8397 14.1418 99.6003 14.4371 99.6003C14.7324 99.6003 14.9718 99.8397 14.9718 100.135V101.026H19.2495V100.135ZM13.9024 102.096V102.987C13.9024 103.282 14.1418 103.522 14.4371 103.522C14.7324 103.522 14.9718 103.282 14.9718 102.987V102.096H19.2495V102.987C19.2495 103.282 19.4888 103.522 19.7842 103.522C20.0795 103.522 20.3189 103.282 20.3189 102.987V102.096H21.21C21.5054 102.096 21.7447 102.335 21.7447 102.63V109.403C21.7447 109.699 21.5054 109.938 21.21 109.938H13.0112C12.7159 109.938 12.4765 109.699 12.4765 109.403L12.4765 102.63C12.4765 102.335 12.7159 102.096 13.0112 102.096H13.9024Z" fill="#6A707C"/>
</g>
<path d="M34.9841 109.036C34.36 109.036 33.8163 108.891 33.3529 108.6C32.8895 108.304 32.5311 107.899 32.2778 107.386C32.0244 106.867 31.8978 106.28 31.8978 105.625C31.8978 104.964 32.0244 104.377 32.2778 103.864C32.5311 103.345 32.8987 102.94 33.3807 102.65C33.8688 102.36 34.4465 102.214 35.1139 102.214C35.5155 102.214 35.8769 102.273 36.1982 102.39C36.5195 102.502 36.8007 102.659 37.0416 102.863C37.2826 103.061 37.5051 103.305 37.709 103.595L37.0046 104.133C36.7698 103.799 36.4979 103.543 36.189 103.364C35.88 103.184 35.5186 103.095 35.1046 103.095C34.6226 103.095 34.2148 103.206 33.8812 103.428C33.5475 103.645 33.2942 103.944 33.1212 104.327C32.9482 104.704 32.8617 105.137 32.8617 105.625C32.8617 106.132 32.9482 106.577 33.1212 106.96C33.3004 107.337 33.5537 107.63 33.8812 107.84C34.2087 108.05 34.5948 108.155 35.0397 108.155C35.4104 108.155 35.7348 108.081 36.0129 107.933C36.2909 107.785 36.5103 107.574 36.6709 107.303C36.8377 107.025 36.9304 106.7 36.949 106.329H35.0119V105.495H37.8573V108.887H37.0695V108.035C36.8347 108.375 36.5381 108.628 36.1797 108.795C35.8213 108.955 35.4228 109.036 34.9841 109.036ZM40.5862 108.887V103.197H38.4082V102.363H43.6911V103.197H41.5223V108.887H40.5862ZM44.8587 108.887V102.363H46.1192L48.2694 107.636L50.4104 102.363H51.6709V108.887H50.7255V103.864L48.6679 108.887H47.8709L45.7948 103.864V108.887H44.8587ZM55.7471 108.887V102.363H57.0076L59.1578 107.636L61.2988 102.363H62.5592V108.887H61.6139V103.864L59.5563 108.887H58.7593L56.6832 103.864V108.887H55.7471ZM66.208 109.036C65.7385 109.036 65.3245 108.931 64.9661 108.721C64.6139 108.504 64.342 108.208 64.1505 107.831C63.9651 107.448 63.8724 107.015 63.8724 106.533C63.8724 106.064 63.9651 105.64 64.1505 105.264C64.3359 104.887 64.6046 104.59 64.9568 104.374C65.309 104.158 65.7199 104.049 66.1895 104.049C66.6406 104.049 67.0267 104.151 67.348 104.355C67.6693 104.559 67.9134 104.846 68.0802 105.217C68.2471 105.582 68.3305 106.011 68.3305 106.506C68.3305 106.592 68.3274 106.669 68.3212 106.737H64.7622C64.7931 107.244 64.9352 107.627 65.1885 107.886C65.448 108.14 65.7972 108.266 66.2358 108.266C66.551 108.266 66.8197 108.202 67.0422 108.072C67.2646 107.936 67.4685 107.751 67.6539 107.516L68.2285 108.016C67.9814 108.344 67.691 108.597 67.3573 108.776C67.0236 108.949 66.6406 109.036 66.208 109.036ZM67.4315 106.088C67.4129 105.681 67.2924 105.366 67.07 105.143C66.8476 104.921 66.5541 104.809 66.1895 104.809C65.8064 104.809 65.4913 104.921 65.2441 105.143C65.0032 105.366 64.8518 105.681 64.79 106.088H67.4315ZM71.5119 109.036C71.0424 109.036 70.6284 108.931 70.27 108.721C69.9178 108.504 69.6459 108.208 69.4544 107.831C69.269 107.448 69.1763 107.015 69.1763 106.533C69.1763 106.064 69.269 105.64 69.4544 105.264C69.6398 104.887 69.9085 104.59 70.2607 104.374C70.6129 104.158 71.0238 104.049 71.4934 104.049C71.9445 104.049 72.3306 104.151 72.6519 104.355C72.9732 104.559 73.2173 104.846 73.3841 105.217C73.551 105.582 73.6344 106.011 73.6344 106.506C73.6344 106.592 73.6313 106.669 73.6251 106.737H70.0661C70.097 107.244 70.2391 107.627 70.4924 107.886C70.7519 108.14 71.1011 108.266 71.5397 108.266C71.8549 108.266 72.1236 108.202 72.3461 108.072C72.5685 107.936 72.7724 107.751 72.9578 107.516L73.5324 108.016C73.2853 108.344 72.9949 108.597 72.6612 108.776C72.3276 108.949 71.9445 109.036 71.5119 109.036ZM72.7354 106.088C72.7168 105.681 72.5963 105.366 72.3739 105.143C72.1515 104.921 71.858 104.809 71.4934 104.809C71.1103 104.809 70.7952 104.921 70.548 105.143C70.3071 105.366 70.1557 105.681 70.0939 106.088H72.7354ZM76.2697 108.971C75.8063 108.971 75.4695 108.863 75.2594 108.646C75.0555 108.424 74.9536 108.112 74.9536 107.71V104.958H74.2029V104.198H74.9536V102.993H75.8711V104.198H76.8814V104.958H75.8711V107.664C75.8711 107.849 75.9206 107.982 76.0194 108.063C76.1245 108.143 76.282 108.183 76.4921 108.183C76.591 108.183 76.7176 108.174 76.8721 108.155V108.897C76.662 108.946 76.4612 108.971 76.2697 108.971ZM77.8632 108.887V104.198H78.7808V108.887H77.8632ZM78.3266 103.493C78.1536 103.493 78.0053 103.435 77.8818 103.317C77.7644 103.194 77.7057 103.045 77.7057 102.872C77.7057 102.699 77.7644 102.554 77.8818 102.437C78.0053 102.313 78.1536 102.251 78.3266 102.251C78.4935 102.251 78.6387 102.313 78.7623 102.437C78.8858 102.554 78.9476 102.699 78.9476 102.872C78.9476 103.045 78.8858 103.194 78.7623 103.317C78.6387 103.435 78.4935 103.493 78.3266 103.493ZM80.2077 108.887V104.198H81.1252V104.791C81.2859 104.556 81.4898 104.374 81.7369 104.244C81.9903 104.114 82.2776 104.049 82.5989 104.049C83.1303 104.049 83.5442 104.222 83.8408 104.568C84.1436 104.908 84.295 105.375 84.295 105.968V108.887H83.3774V106.061C83.3774 105.659 83.2909 105.356 83.1179 105.152C82.9449 104.942 82.6854 104.837 82.3394 104.837C82.0984 104.837 81.8852 104.899 81.6999 105.023C81.5207 105.14 81.3786 105.313 81.2735 105.542C81.1747 105.764 81.1252 106.027 81.1252 106.329V108.887H80.2077ZM87.742 110.797C87.2909 110.797 86.8831 110.716 86.5186 110.556C86.154 110.395 85.8543 110.173 85.6195 109.888L86.2312 109.342C86.429 109.545 86.6514 109.706 86.8985 109.824C87.1519 109.941 87.433 110 87.742 110C88.0262 110 88.2641 109.95 88.4556 109.851C88.6472 109.752 88.7924 109.604 88.8912 109.406C88.9901 109.209 89.0395 108.962 89.0395 108.665V108.044C88.8603 108.285 88.6379 108.473 88.3722 108.609C88.1065 108.739 87.813 108.804 87.4917 108.804C87.0716 108.804 86.6977 108.705 86.3703 108.507C86.049 108.304 85.7956 108.022 85.6103 107.664C85.4311 107.306 85.3415 106.895 85.3415 106.431C85.3415 105.968 85.4311 105.557 85.6103 105.199C85.7956 104.834 86.049 104.553 86.3703 104.355C86.6977 104.151 87.0716 104.049 87.4917 104.049C87.813 104.049 88.1065 104.117 88.3722 104.253C88.6379 104.383 88.8603 104.568 89.0395 104.809V104.198H89.9478V108.684C89.9478 109.128 89.8582 109.508 89.679 109.824C89.4998 110.145 89.2434 110.386 88.9098 110.546C88.5823 110.713 88.193 110.797 87.742 110.797ZM87.6678 108.053C87.9397 108.053 88.1776 107.988 88.3815 107.859C88.5916 107.723 88.7522 107.534 88.8634 107.293C88.9808 107.052 89.0395 106.765 89.0395 106.431C89.0395 105.931 88.9159 105.535 88.6688 105.245C88.4278 104.948 88.0942 104.8 87.6678 104.8C87.2353 104.8 86.8955 104.948 86.6483 105.245C86.4012 105.535 86.2776 105.931 86.2776 106.431C86.2776 106.765 86.3332 107.052 86.4444 107.293C86.5618 107.534 86.7225 107.723 86.9264 107.859C87.1364 107.988 87.3836 108.053 87.6678 108.053ZM93.1846 108.887L95.7148 102.363H96.7807L99.3109 108.887H98.3007L97.6797 107.266H94.788L94.167 108.887H93.1846ZM95.1031 106.431H97.3553L96.2339 103.493L95.1031 106.431ZM100.265 110.648V104.198H101.173V104.856C101.352 104.602 101.575 104.405 101.84 104.263C102.112 104.12 102.409 104.049 102.73 104.049C103.15 104.049 103.524 104.158 103.852 104.374C104.185 104.584 104.442 104.877 104.621 105.254C104.806 105.631 104.899 106.061 104.899 106.543C104.899 107.025 104.806 107.454 104.621 107.831C104.442 108.208 104.185 108.504 103.852 108.721C103.524 108.931 103.15 109.036 102.73 109.036C102.409 109.036 102.112 108.965 101.84 108.823C101.575 108.68 101.352 108.483 101.173 108.229V110.648H100.265ZM102.554 108.248C102.838 108.248 103.085 108.18 103.295 108.044C103.506 107.902 103.666 107.704 103.777 107.451C103.895 107.191 103.954 106.889 103.954 106.543C103.954 106.017 103.827 105.603 103.574 105.301C103.326 104.992 102.987 104.837 102.554 104.837C102.128 104.837 101.791 104.992 101.544 105.301C101.297 105.603 101.173 106.017 101.173 106.543C101.173 106.889 101.229 107.191 101.34 107.451C101.457 107.704 101.618 107.902 101.822 108.044C102.032 108.18 102.276 108.248 102.554 108.248ZM106.03 108.887V104.198H106.948V104.958C107.071 104.704 107.241 104.507 107.458 104.365C107.674 104.222 107.93 104.151 108.227 104.151C108.27 104.151 108.31 104.154 108.347 104.161C108.384 104.161 108.425 104.164 108.468 104.17V105.041C108.394 105.029 108.31 105.023 108.218 105.023C107.834 105.023 107.526 105.152 107.291 105.412C107.062 105.665 106.948 106.008 106.948 106.441V108.887H106.03ZM109.343 108.887V104.198H110.26V108.887H109.343ZM109.806 103.493C109.633 103.493 109.485 103.435 109.361 103.317C109.244 103.194 109.185 103.045 109.185 102.872C109.185 102.699 109.244 102.554 109.361 102.437C109.485 102.313 109.633 102.251 109.806 102.251C109.973 102.251 110.118 102.313 110.242 102.437C110.365 102.554 110.427 102.699 110.427 102.872C110.427 103.045 110.365 103.194 110.242 103.317C110.118 103.435 109.973 103.493 109.806 103.493ZM111.604 108.887V102.168H112.512V108.887H111.604Z" fill="#3F434A"/>
</g>
<defs>
<clipPath id="clip0_2148_8435">
<rect width="196.772" height="122.581" fill="white"/>
</clipPath>
<clipPath id="clip1_2148_8435">
<rect width="11.4071" height="11.4071" fill="white" transform="translate(11.4071 42.2307)"/>
</clipPath>
<clipPath id="clip2_2148_8435">
<rect width="11.4071" height="11.4071" fill="white" transform="translate(11.4071 70.9155)"/>
</clipPath>
<clipPath id="clip3_2148_8435">
<rect width="11.4071" height="11.4071" fill="white" transform="translate(11.4071 99.6003)"/>
</clipPath>
</defs>
</svg>
