<svg width="22" height="22" viewBox="0 0 22 22" fill="none" xmlns="http://www.w3.org/2000/svg">
<g clip-path="url(#clip0_2016_9646)">
<path d="M6.07385 10.7164C6.07385 8.37946 7.96833 6.48498 10.3053 6.48498H11.7507C13.8736 6.48498 15.5946 8.20594 15.5946 10.3289C15.5946 12.4518 13.8736 14.1727 11.7507 14.1727H9.33004C9.13298 14.1727 8.93983 14.2278 8.77238 14.3317L6.61236 15.6717C6.37746 15.8174 6.07385 15.6484 6.07385 15.372V10.7164Z" fill="#FFD452"/>
<path fill-rule="evenodd" clip-rule="evenodd" d="M5.54492 10.7164C5.54492 8.08734 7.67621 5.95605 10.3053 5.95605H11.7507C14.1657 5.95605 16.1235 7.91382 16.1235 10.3289C16.1235 12.7439 14.1657 14.7017 11.7507 14.7017H9.33004C9.23151 14.7017 9.13494 14.7292 9.05121 14.7811L6.89119 16.1211C6.30393 16.4854 5.54492 16.0631 5.54492 15.372V10.7164ZM10.3053 7.01391C8.26045 7.01391 6.60278 8.67158 6.60278 10.7164V15.0551L8.49355 13.8822C8.74473 13.7264 9.03445 13.6438 9.33004 13.6438H11.7507C13.5815 13.6438 15.0657 12.1597 15.0657 10.3289C15.0657 8.49806 13.5815 7.01391 11.7507 7.01391H10.3053Z" fill="#FFD452"/>
</g>
<defs>
<clipPath id="clip0_2016_9646">
<rect width="11.2838" height="11.2838" fill="white" transform="translate(5.19238 5.42676)"/>
</clipPath>
</defs>
</svg>
