<svg width="323" height="124" viewBox="0 0 323 124" fill="none" xmlns="http://www.w3.org/2000/svg">
<rect width="322.8" height="124" fill="white"/>
<path d="M21.8496 32.9536C21.1776 32.9536 20.592 32.8064 20.0928 32.512C19.5936 32.2112 19.2096 31.7952 18.9408 31.264C18.6784 30.7264 18.5472 30.112 18.5472 29.4208C18.5472 28.7424 18.6784 28.1376 18.9408 27.6064C19.2032 27.0688 19.584 26.6496 20.0832 26.3488C20.5824 26.0416 21.1808 25.888 21.8784 25.888C22.2944 25.888 22.6688 25.9456 23.0016 26.0608C23.3344 26.176 23.6256 26.336 23.8752 26.5408C24.1248 26.7456 24.3552 26.9952 24.5664 27.2896L23.8464 27.8656C23.5968 27.5328 23.312 27.2768 22.992 27.0976C22.672 26.9184 22.2976 26.8288 21.8688 26.8288C21.376 26.8288 20.9536 26.9408 20.6016 27.1648C20.2496 27.3888 19.984 27.6992 19.8048 28.096C19.632 28.4928 19.5456 28.9376 19.5456 29.4304C19.5456 29.9424 19.6352 30.3936 19.8144 30.784C19.9936 31.168 20.256 31.4688 20.6016 31.6864C20.9472 31.904 21.3664 32.0128 21.8592 32.0128C22.16 32.0128 22.432 31.968 22.6752 31.8784C22.9248 31.7888 23.1424 31.6672 23.328 31.5136C23.5136 31.36 23.6896 31.1744 23.856 30.9568L24.576 31.5232C24.3712 31.8176 24.1376 32.0704 23.8752 32.2816C23.6192 32.4928 23.3216 32.6592 22.9824 32.7808C22.6432 32.896 22.2656 32.9536 21.8496 32.9536ZM25.5926 32.8V27.9424H26.543V28.7296C26.671 28.4672 26.847 28.2624 27.071 28.1152C27.295 27.968 27.5606 27.8944 27.8678 27.8944C27.9126 27.8944 27.9542 27.8976 27.9926 27.904C28.031 27.904 28.0726 27.9072 28.1174 27.9136V28.816C28.0406 28.8032 27.9542 28.7968 27.8582 28.7968C27.4614 28.7968 27.1414 28.9312 26.8982 29.2C26.6614 29.4624 26.543 29.8176 26.543 30.2656V32.8H25.5926ZM31.1356 32.9536C30.6492 32.9536 30.2204 32.8448 29.8492 32.6272C29.4844 32.4032 29.2028 32.096 29.0044 31.7056C28.8124 31.3088 28.7164 30.8608 28.7164 30.3616C28.7164 29.8752 28.8124 29.4368 29.0044 29.0464C29.1964 28.656 29.4748 28.3488 29.8396 28.1248C30.2044 27.9008 30.63 27.7888 31.1164 27.7888C31.5836 27.7888 31.9836 27.8944 32.3164 28.1056C32.6492 28.3168 32.902 28.6144 33.0748 28.9984C33.2476 29.376 33.334 29.8208 33.334 30.3328C33.334 30.4224 33.3308 30.5024 33.3244 30.5728H29.638C29.67 31.0976 29.8172 31.4944 30.0796 31.7632C30.3484 32.0256 30.71 32.1568 31.1644 32.1568C31.4908 32.1568 31.7692 32.0896 31.9996 31.9552C32.23 31.8144 32.4412 31.6224 32.6332 31.3792L33.2284 31.8976C32.9724 32.2368 32.6716 32.4992 32.326 32.6848C31.9804 32.864 31.5836 32.9536 31.1356 32.9536ZM32.4028 29.9008C32.3836 29.4784 32.2588 29.152 32.0284 28.9216C31.798 28.6912 31.494 28.576 31.1164 28.576C30.7196 28.576 30.3932 28.6912 30.1372 28.9216C29.8876 29.152 29.7308 29.4784 29.6668 29.9008H32.4028ZM35.7461 32.9152C35.4069 32.9152 35.1157 32.8544 34.8725 32.7328C34.6357 32.6112 34.4565 32.4448 34.3349 32.2336C34.2133 32.0224 34.1525 31.7856 34.1525 31.5232C34.1525 31.0944 34.2997 30.7552 34.5941 30.5056C34.8949 30.256 35.3333 30.0864 35.9093 29.9968L36.8885 29.8528C37.0613 29.8272 37.1797 29.7856 37.2437 29.728C37.3077 29.664 37.3397 29.5744 37.3397 29.4592C37.3397 29.2096 37.2469 29.0048 37.0613 28.8448C36.8757 28.6784 36.6197 28.5952 36.2933 28.5952C36.0117 28.5952 35.7685 28.6624 35.5637 28.7968C35.3589 28.9312 35.1733 29.1232 35.0069 29.3728L34.2773 28.96C34.4181 28.704 34.5877 28.4896 34.7861 28.3168C34.9909 28.144 35.2181 28.0128 35.4677 27.9232C35.7237 27.8336 36.0053 27.7888 36.3125 27.7888C36.7093 27.7888 37.0549 27.8624 37.3493 28.0096C37.6437 28.1504 37.8709 28.352 38.0309 28.6144C38.1909 28.8704 38.2709 29.168 38.2709 29.5072V32.8H37.3397V31.9168C37.1861 32.2304 36.9685 32.4768 36.6869 32.656C36.4053 32.8288 36.0917 32.9152 35.7461 32.9152ZM35.9861 32.1568C36.2549 32.1568 36.4917 32.0896 36.6965 31.9552C36.9013 31.8144 37.0581 31.6256 37.1669 31.3888C37.2821 31.1456 37.3397 30.8704 37.3397 30.5632V30.3328C37.2949 30.3584 37.2309 30.384 37.1477 30.4096C37.0645 30.4288 36.9717 30.448 36.8693 30.4672L36.1589 30.5824C35.8261 30.6336 35.5637 30.7264 35.3717 30.8608C35.1861 30.9888 35.0933 31.1776 35.0933 31.4272C35.0933 31.6512 35.1733 31.8304 35.3333 31.9648C35.4933 32.0928 35.7109 32.1568 35.9861 32.1568ZM41.1449 32.8864C40.6649 32.8864 40.3161 32.7744 40.0985 32.5504C39.8873 32.32 39.7817 31.9968 39.7817 31.5808V28.7296H39.0041V27.9424H39.7817V26.6944H40.7321V27.9424H41.7785V28.7296H40.7321V31.5328C40.7321 31.7248 40.7833 31.8624 40.8857 31.9456C40.9945 32.0288 41.1577 32.0704 41.3753 32.0704C41.4777 32.0704 41.6089 32.0608 41.7689 32.0416V32.8096C41.5513 32.8608 41.3433 32.8864 41.1449 32.8864ZM44.8606 32.9536C44.3742 32.9536 43.9454 32.8448 43.5742 32.6272C43.2094 32.4032 42.9278 32.096 42.7294 31.7056C42.5374 31.3088 42.4414 30.8608 42.4414 30.3616C42.4414 29.8752 42.5374 29.4368 42.7294 29.0464C42.9214 28.656 43.1998 28.3488 43.5646 28.1248C43.9294 27.9008 44.355 27.7888 44.8414 27.7888C45.3086 27.7888 45.7086 27.8944 46.0414 28.1056C46.3742 28.3168 46.627 28.6144 46.7998 28.9984C46.9726 29.376 47.059 29.8208 47.059 30.3328C47.059 30.4224 47.0558 30.5024 47.0494 30.5728H43.363C43.395 31.0976 43.5422 31.4944 43.8046 31.7632C44.0734 32.0256 44.435 32.1568 44.8894 32.1568C45.2158 32.1568 45.4942 32.0896 45.7246 31.9552C45.955 31.8144 46.1662 31.6224 46.3582 31.3792L46.9534 31.8976C46.6974 32.2368 46.3966 32.4992 46.051 32.6848C45.7054 32.864 45.3086 32.9536 44.8606 32.9536ZM46.1278 29.9008C46.1086 29.4784 45.9838 29.152 45.7534 28.9216C45.523 28.6912 45.219 28.576 44.8414 28.576C44.4446 28.576 44.1182 28.6912 43.8622 28.9216C43.6126 29.152 43.4558 29.4784 43.3918 29.9008H46.1278Z" fill="#5E646E"/>
<rect x="55.2" y="18.7" width="139.6" height="21.2" rx="2.4" fill="#F1F6FE"/>
<g clip-path="url(#clip0_2148_7011)">
<path fill-rule="evenodd" clip-rule="evenodd" d="M61.0125 25.7563C61.0125 24.9175 61.6925 24.2375 62.5312 24.2375H68.2687C69.1075 24.2375 69.7875 24.9175 69.7875 25.7563V32.8438C69.7875 33.6826 69.1075 34.3625 68.2687 34.3625H62.5312C61.6925 34.3625 61.0125 33.6826 61.0125 32.8438V25.7563ZM62.5312 25.25C62.2517 25.25 62.025 25.4767 62.025 25.7563V32.8438C62.025 33.1234 62.2517 33.35 62.5312 33.35H68.2687C68.5483 33.35 68.775 33.1234 68.775 32.8438V29.3V25.7563C68.775 25.4767 68.5483 25.25 68.2687 25.25H62.5312ZM63.8812 26.9375C63.6017 26.9375 63.375 27.1642 63.375 27.4438C63.375 27.7234 63.6017 27.95 63.8812 27.95H66.9187C67.1983 27.95 67.425 27.7234 67.425 27.4438C67.425 27.1642 67.1983 26.9375 66.9187 26.9375H63.8812ZM63.375 29.1313C63.375 28.8517 63.6017 28.625 63.8812 28.625H65.9062C66.1858 28.625 66.4125 28.8517 66.4125 29.1313C66.4125 29.4109 66.1858 29.6375 65.9062 29.6375H63.8812C63.6017 29.6375 63.375 29.4109 63.375 29.1313Z" fill="#176AE5"/>
</g>
<path d="M78.2496 32.4536C77.5776 32.4536 76.992 32.3064 76.4928 32.012C75.9936 31.7112 75.6096 31.2952 75.3408 30.764C75.0784 30.2264 74.9472 29.612 74.9472 28.9208C74.9472 28.2424 75.0784 27.6376 75.3408 27.1064C75.6032 26.5688 75.984 26.1496 76.4832 25.8488C76.9824 25.5416 77.5808 25.388 78.2784 25.388C78.6944 25.388 79.0688 25.4456 79.4016 25.5608C79.7344 25.676 80.0256 25.836 80.2752 26.0408C80.5248 26.2456 80.7552 26.4952 80.9664 26.7896L80.2464 27.3656C79.9968 27.0328 79.712 26.7768 79.392 26.5976C79.072 26.4184 78.6976 26.3288 78.2688 26.3288C77.776 26.3288 77.3536 26.4408 77.0016 26.6648C76.6496 26.8888 76.384 27.1992 76.2048 27.596C76.032 27.9928 75.9456 28.4376 75.9456 28.9304C75.9456 29.4424 76.0352 29.8936 76.2144 30.284C76.3936 30.668 76.656 30.9688 77.0016 31.1864C77.3472 31.404 77.7664 31.5128 78.2592 31.5128C78.56 31.5128 78.832 31.468 79.0752 31.3784C79.3248 31.2888 79.5424 31.1672 79.728 31.0136C79.9136 30.86 80.0896 30.6744 80.256 30.4568L80.976 31.0232C80.7712 31.3176 80.5376 31.5704 80.2752 31.7816C80.0192 31.9928 79.7216 32.1592 79.3824 32.2808C79.0432 32.396 78.6656 32.4536 78.2496 32.4536ZM81.9084 34.124V33.2792H82.254C82.51 33.2792 82.7052 33.2344 82.8396 33.1448C82.974 33.0552 83.0828 32.9048 83.166 32.6936L83.3292 32.2904L81.342 27.4424H82.3212L83.7996 31.1672L85.2684 27.4424H86.2476L84.0108 32.9144C83.838 33.3432 83.6108 33.6504 83.3292 33.836C83.054 34.028 82.6956 34.124 82.254 34.124H81.9084ZM89.205 32.444C88.7122 32.444 88.2802 32.3352 87.909 32.1176C87.5378 31.9 87.253 31.596 87.0546 31.2056C86.8562 30.8152 86.757 30.3704 86.757 29.8712C86.757 29.3784 86.8562 28.9368 87.0546 28.5464C87.253 28.156 87.5346 27.8488 87.8994 27.6248C88.2706 27.4008 88.7058 27.2888 89.205 27.2888C89.5058 27.2888 89.781 27.3368 90.0306 27.4328C90.2802 27.5224 90.4978 27.6504 90.6834 27.8168C90.869 27.9832 91.029 28.1784 91.1634 28.4024L90.4914 28.9016C90.3442 28.6712 90.165 28.4888 89.9538 28.3544C89.749 28.2136 89.5026 28.1432 89.2146 28.1432C88.8946 28.1432 88.6226 28.22 88.3986 28.3736C88.1746 28.5208 88.005 28.7256 87.8898 28.988C87.781 29.2504 87.7266 29.5448 87.7266 29.8712C87.7266 30.1976 87.781 30.492 87.8898 30.7544C88.005 31.0168 88.1746 31.2248 88.3986 31.3784C88.6226 31.5256 88.8946 31.5992 89.2146 31.5992C89.4962 31.5992 89.7426 31.532 89.9538 31.3976C90.165 31.2568 90.3442 31.0712 90.4914 30.8408L91.1634 31.3208C91.0418 31.5448 90.8882 31.7432 90.7026 31.916C90.5234 32.0824 90.3058 32.2104 90.0498 32.3C89.8002 32.396 89.5186 32.444 89.205 32.444ZM92.0593 32.3V25.34H93.0001V32.3H92.0593ZM96.5168 32.4536C96.0304 32.4536 95.6016 32.3448 95.2304 32.1272C94.8656 31.9032 94.584 31.596 94.3856 31.2056C94.1936 30.8088 94.0976 30.3608 94.0976 29.8616C94.0976 29.3752 94.1936 28.9368 94.3856 28.5464C94.5776 28.156 94.856 27.8488 95.2208 27.6248C95.5856 27.4008 96.0112 27.2888 96.4976 27.2888C96.9648 27.2888 97.3648 27.3944 97.6976 27.6056C98.0304 27.8168 98.2832 28.1144 98.456 28.4984C98.6288 28.876 98.7152 29.3208 98.7152 29.8328C98.7152 29.9224 98.712 30.0024 98.7056 30.0728H95.0192C95.0512 30.5976 95.1984 30.9944 95.4608 31.2632C95.7296 31.5256 96.0912 31.6568 96.5456 31.6568C96.872 31.6568 97.1504 31.5896 97.3808 31.4552C97.6112 31.3144 97.8224 31.1224 98.0144 30.8792L98.6096 31.3976C98.3536 31.7368 98.0528 31.9992 97.7072 32.1848C97.3616 32.364 96.9648 32.4536 96.5168 32.4536ZM97.784 29.4008C97.7648 28.9784 97.64 28.652 97.4096 28.4216C97.1792 28.1912 96.8752 28.076 96.4976 28.076C96.1008 28.076 95.7744 28.1912 95.5184 28.4216C95.2688 28.652 95.112 28.9784 95.048 29.4008H97.784ZM101.964 29.8328V29.0072H104.844V29.8328H101.964ZM108.622 32.3V25.5416H109.592V28.7288L112.836 25.5416H114.094L111.176 28.412L114.094 32.3H112.884L110.484 29.1032L109.592 29.9672V32.3H108.622ZM115.02 32.3V27.4424H115.971V32.3H115.02ZM115.5 26.7128C115.321 26.7128 115.168 26.652 115.04 26.5304C114.918 26.4024 114.857 26.2488 114.857 26.0696C114.857 25.8904 114.918 25.74 115.04 25.6184C115.168 25.4904 115.321 25.4264 115.5 25.4264C115.673 25.4264 115.824 25.4904 115.952 25.6184C116.08 25.74 116.144 25.8904 116.144 26.0696C116.144 26.2488 116.08 26.4024 115.952 26.5304C115.824 26.652 115.673 26.7128 115.5 26.7128ZM119.58 32.444C119.087 32.444 118.655 32.3352 118.284 32.1176C117.913 31.9 117.628 31.596 117.43 31.2056C117.231 30.8152 117.132 30.3704 117.132 29.8712C117.132 29.3784 117.231 28.9368 117.43 28.5464C117.628 28.156 117.91 27.8488 118.274 27.6248C118.646 27.4008 119.081 27.2888 119.58 27.2888C119.881 27.2888 120.156 27.3368 120.406 27.4328C120.655 27.5224 120.873 27.6504 121.058 27.8168C121.244 27.9832 121.404 28.1784 121.538 28.4024L120.866 28.9016C120.719 28.6712 120.54 28.4888 120.329 28.3544C120.124 28.2136 119.878 28.1432 119.59 28.1432C119.27 28.1432 118.998 28.22 118.774 28.3736C118.55 28.5208 118.38 28.7256 118.265 28.988C118.156 29.2504 118.102 29.5448 118.102 29.8712C118.102 30.1976 118.156 30.492 118.265 30.7544C118.38 31.0168 118.55 31.2248 118.774 31.3784C118.998 31.5256 119.27 31.5992 119.59 31.5992C119.871 31.5992 120.118 31.532 120.329 31.3976C120.54 31.2568 120.719 31.0712 120.866 30.8408L121.538 31.3208C121.417 31.5448 121.263 31.7432 121.078 31.916C120.898 32.0824 120.681 32.2104 120.425 32.3C120.175 32.396 119.894 32.444 119.58 32.444ZM122.521 32.3V25.34H123.461V29.4104L125.487 27.4424H126.687L124.633 29.4584L126.735 32.3H125.612L123.98 30.1016L123.461 30.6104V32.3H122.521ZM132.114 32.4536C131.64 32.4536 131.221 32.3448 130.856 32.1272C130.491 31.9096 130.206 31.6056 130.002 31.2152C129.797 30.8248 129.694 30.3768 129.694 29.8712C129.694 29.372 129.797 28.9272 130.002 28.5368C130.206 28.14 130.491 27.8328 130.856 27.6152C131.221 27.3976 131.64 27.2888 132.114 27.2888C132.581 27.2888 132.997 27.3976 133.362 27.6152C133.726 27.8328 134.008 28.14 134.206 28.5368C134.411 28.9272 134.514 29.372 134.514 29.8712C134.514 30.3768 134.411 30.8248 134.206 31.2152C134.008 31.6056 133.726 31.9096 133.362 32.1272C132.997 32.3448 132.581 32.4536 132.114 32.4536ZM132.114 31.6376C132.402 31.6376 132.651 31.5672 132.862 31.4264C133.08 31.2856 133.246 31.084 133.362 30.8216C133.477 30.5528 133.534 30.236 133.534 29.8712C133.534 29.5064 133.477 29.1928 133.362 28.9304C133.253 28.6616 133.09 28.4568 132.872 28.316C132.661 28.1752 132.408 28.1048 132.114 28.1048C131.813 28.1048 131.554 28.1752 131.336 28.316C131.125 28.4568 130.958 28.6616 130.837 28.9304C130.722 29.1928 130.664 29.5064 130.664 29.8712C130.664 30.236 130.722 30.5496 130.837 30.812C130.958 31.0744 131.128 31.2792 131.346 31.4264C131.563 31.5672 131.819 31.6376 132.114 31.6376ZM135.991 32.3V28.2296H135.088V27.4424H135.991V26.78C135.991 26.332 136.116 25.9704 136.365 25.6952C136.615 25.42 136.992 25.2824 137.498 25.2824C137.664 25.2824 137.84 25.3016 138.026 25.34V26.1272C137.917 26.108 137.792 26.0984 137.652 26.0984C137.415 26.0984 137.239 26.1592 137.124 26.2808C137.008 26.4024 136.951 26.5816 136.951 26.8184V27.4424H138.026V28.2296H136.951V32.3H135.991ZM139.46 32.3V28.2296H138.557V27.4424H139.46V26.78C139.46 26.332 139.584 25.9704 139.834 25.6952C140.084 25.42 140.461 25.2824 140.967 25.2824C141.133 25.2824 141.309 25.3016 141.495 25.34V26.1272C141.386 26.108 141.261 26.0984 141.12 26.0984C140.884 26.0984 140.708 26.1592 140.592 26.2808C140.477 26.4024 140.42 26.5816 140.42 26.8184V27.4424H141.495V28.2296H140.42V32.3H139.46ZM144.768 32.3V27.4328H145.718V28.0184C145.859 27.788 146.038 27.6088 146.256 27.4808C146.48 27.3528 146.736 27.2888 147.024 27.2888C147.369 27.2888 147.664 27.3624 147.907 27.5096C148.15 27.6568 148.326 27.8712 148.435 28.1528C148.582 27.884 148.777 27.6728 149.02 27.5192C149.27 27.3656 149.558 27.2888 149.884 27.2888C150.371 27.2888 150.748 27.4264 151.017 27.7016C151.286 27.9768 151.42 28.3832 151.42 28.9208V32.3H150.47V29.1032C150.47 28.764 150.396 28.5144 150.249 28.3544C150.102 28.188 149.884 28.1048 149.596 28.1048C149.392 28.1048 149.212 28.156 149.059 28.2584C148.905 28.3608 148.784 28.5144 148.694 28.7192C148.611 28.9176 148.569 29.1608 148.569 29.4488V32.3H147.619V29.1032C147.619 28.7704 147.545 28.5208 147.398 28.3544C147.251 28.188 147.036 28.1048 146.755 28.1048C146.55 28.1048 146.368 28.156 146.208 28.2584C146.054 28.3608 145.932 28.5112 145.843 28.7096C145.76 28.908 145.718 29.1512 145.718 29.4392V32.3H144.768ZM154.923 32.4536C154.437 32.4536 154.008 32.3448 153.637 32.1272C153.272 31.9032 152.99 31.596 152.792 31.2056C152.6 30.8088 152.504 30.3608 152.504 29.8616C152.504 29.3752 152.6 28.9368 152.792 28.5464C152.984 28.156 153.262 27.8488 153.627 27.6248C153.992 27.4008 154.417 27.2888 154.904 27.2888C155.371 27.2888 155.771 27.3944 156.104 27.6056C156.437 27.8168 156.689 28.1144 156.862 28.4984C157.035 28.876 157.121 29.3208 157.121 29.8328C157.121 29.9224 157.118 30.0024 157.112 30.0728H153.425C153.457 30.5976 153.605 30.9944 153.867 31.2632C154.136 31.5256 154.497 31.6568 154.952 31.6568C155.278 31.6568 155.557 31.5896 155.787 31.4552C156.017 31.3144 156.229 31.1224 156.421 30.8792L157.016 31.3976C156.76 31.7368 156.459 31.9992 156.113 32.1848C155.768 32.364 155.371 32.4536 154.923 32.4536ZM156.19 29.4008C156.171 28.9784 156.046 28.652 155.816 28.4216C155.585 28.1912 155.281 28.076 154.904 28.076C154.507 28.076 154.181 28.1912 153.925 28.4216C153.675 28.652 153.518 28.9784 153.454 29.4008H156.19ZM160.417 32.4536C159.93 32.4536 159.502 32.3448 159.13 32.1272C158.766 31.9032 158.484 31.596 158.286 31.2056C158.094 30.8088 157.998 30.3608 157.998 29.8616C157.998 29.3752 158.094 28.9368 158.286 28.5464C158.478 28.156 158.756 27.8488 159.121 27.6248C159.486 27.4008 159.911 27.2888 160.398 27.2888C160.865 27.2888 161.265 27.3944 161.598 27.6056C161.93 27.8168 162.183 28.1144 162.356 28.4984C162.529 28.876 162.615 29.3208 162.615 29.8328C162.615 29.9224 162.612 30.0024 162.606 30.0728H158.919C158.951 30.5976 159.098 30.9944 159.361 31.2632C159.63 31.5256 159.991 31.6568 160.446 31.6568C160.772 31.6568 161.05 31.5896 161.281 31.4552C161.511 31.3144 161.722 31.1224 161.914 30.8792L162.51 31.3976C162.254 31.7368 161.953 31.9992 161.607 32.1848C161.262 32.364 160.865 32.4536 160.417 32.4536ZM161.684 29.4008C161.665 28.9784 161.54 28.652 161.31 28.4216C161.079 28.1912 160.775 28.076 160.398 28.076C160.001 28.076 159.674 28.1912 159.418 28.4216C159.169 28.652 159.012 28.9784 158.948 29.4008H161.684ZM165.345 32.3864C164.865 32.3864 164.516 32.2744 164.298 32.0504C164.087 31.82 163.982 31.4968 163.982 31.0808V28.2296H163.204V27.4424H163.982V26.1944H164.932V27.4424H165.978V28.2296H164.932V31.0328C164.932 31.2248 164.983 31.3624 165.086 31.4456C165.194 31.5288 165.358 31.5704 165.575 31.5704C165.678 31.5704 165.809 31.5608 165.969 31.5416V32.3096C165.751 32.3608 165.543 32.3864 165.345 32.3864ZM166.995 32.3V27.4424H167.946V32.3H166.995ZM167.475 26.7128C167.296 26.7128 167.143 26.652 167.015 26.5304C166.893 26.4024 166.832 26.2488 166.832 26.0696C166.832 25.8904 166.893 25.74 167.015 25.6184C167.143 25.4904 167.296 25.4264 167.475 25.4264C167.648 25.4264 167.799 25.4904 167.927 25.6184C168.055 25.74 168.119 25.8904 168.119 26.0696C168.119 26.2488 168.055 26.4024 167.927 26.5304C167.799 26.652 167.648 26.7128 167.475 26.7128ZM169.424 32.3V27.4424H170.374V28.0568C170.541 27.8136 170.752 27.6248 171.008 27.4904C171.27 27.356 171.568 27.2888 171.901 27.2888C172.451 27.2888 172.88 27.468 173.187 27.8264C173.501 28.1784 173.657 28.6616 173.657 29.276V32.3H172.707V29.372C172.707 28.956 172.617 28.6424 172.438 28.4312C172.259 28.2136 171.99 28.1048 171.632 28.1048C171.382 28.1048 171.161 28.1688 170.969 28.2968C170.784 28.4184 170.637 28.5976 170.528 28.8344C170.425 29.0648 170.374 29.3368 170.374 29.6504V32.3H169.424ZM177.228 34.2776C176.761 34.2776 176.338 34.1944 175.961 34.028C175.583 33.8616 175.273 33.6312 175.029 33.3368L175.663 32.7704C175.868 32.9816 176.098 33.148 176.354 33.2696C176.617 33.3912 176.908 33.452 177.228 33.452C177.522 33.452 177.769 33.4008 177.967 33.2984C178.165 33.196 178.316 33.0424 178.418 32.8376C178.521 32.6328 178.572 32.3768 178.572 32.0696V31.4264C178.386 31.676 178.156 31.8712 177.881 32.012C177.605 32.1464 177.301 32.2136 176.969 32.2136C176.533 32.2136 176.146 32.1112 175.807 31.9064C175.474 31.6952 175.212 31.404 175.02 31.0328C174.834 30.6616 174.741 30.236 174.741 29.756C174.741 29.276 174.834 28.8504 175.02 28.4792C175.212 28.1016 175.474 27.8104 175.807 27.6056C176.146 27.3944 176.533 27.2888 176.969 27.2888C177.301 27.2888 177.605 27.3592 177.881 27.5C178.156 27.6344 178.386 27.8264 178.572 28.076V27.4424H179.513V32.0888C179.513 32.5496 179.42 32.9432 179.234 33.2696C179.049 33.6024 178.783 33.852 178.437 34.0184C178.098 34.1912 177.695 34.2776 177.228 34.2776ZM177.151 31.436C177.433 31.436 177.679 31.3688 177.89 31.2344C178.108 31.0936 178.274 30.8984 178.389 30.6488C178.511 30.3992 178.572 30.1016 178.572 29.756C178.572 29.2376 178.444 28.828 178.188 28.5272C177.938 28.22 177.593 28.0664 177.151 28.0664C176.703 28.0664 176.351 28.22 176.095 28.5272C175.839 28.828 175.711 29.2376 175.711 29.756C175.711 30.1016 175.769 30.3992 175.884 30.6488C176.005 30.8984 176.172 31.0936 176.383 31.2344C176.601 31.3688 176.857 31.436 177.151 31.436Z" fill="#176AE5"/>
<path fill-rule="evenodd" clip-rule="evenodd" d="M184.403 27.3026C184.278 27.4276 184.278 27.6301 184.403 27.7551L185.948 29.2999L184.403 30.8453C184.278 30.9702 184.278 31.1728 184.403 31.2977C184.528 31.4227 184.731 31.4227 184.856 31.2978L186.4 29.7525L187.945 31.2966C188.07 31.4216 188.272 31.4217 188.397 31.2968C188.522 31.1719 188.522 30.9693 188.397 30.8443L186.853 29.3001L188.397 27.7553C188.522 27.6304 188.522 27.4279 188.397 27.3029C188.272 27.178 188.069 27.178 187.944 27.3029L186.4 28.8475L184.855 27.3028C184.73 27.1778 184.528 27.1777 184.403 27.3026Z" fill="#176AE5"/>
<path d="M210.141 32.8V26.0416H214.835V26.9056H211.11V28.9216H214.442V29.7568H211.11V31.9264H214.835V32.8H210.141ZM217.181 32.8L215.242 27.9424H216.221L217.661 31.6576L219.092 27.9424H220.071L218.132 32.8H217.181ZM223.001 32.9536C222.515 32.9536 222.086 32.8448 221.715 32.6272C221.35 32.4032 221.068 32.096 220.87 31.7056C220.678 31.3088 220.582 30.8608 220.582 30.3616C220.582 29.8752 220.678 29.4368 220.87 29.0464C221.062 28.656 221.34 28.3488 221.705 28.1248C222.07 27.9008 222.496 27.7888 222.982 27.7888C223.449 27.7888 223.849 27.8944 224.182 28.1056C224.515 28.3168 224.768 28.6144 224.94 28.9984C225.113 29.376 225.2 29.8208 225.2 30.3328C225.2 30.4224 225.196 30.5024 225.19 30.5728H221.504C221.536 31.0976 221.683 31.4944 221.945 31.7632C222.214 32.0256 222.576 32.1568 223.03 32.1568C223.356 32.1568 223.635 32.0896 223.865 31.9552C224.096 31.8144 224.307 31.6224 224.499 31.3792L225.094 31.8976C224.838 32.2368 224.537 32.4992 224.192 32.6848C223.846 32.864 223.449 32.9536 223.001 32.9536ZM224.268 29.9008C224.249 29.4784 224.124 29.152 223.894 28.9216C223.664 28.6912 223.36 28.576 222.982 28.576C222.585 28.576 222.259 28.6912 222.003 28.9216C221.753 29.152 221.596 29.4784 221.532 29.9008H224.268ZM226.364 32.8V27.9424H227.315V28.7296C227.443 28.4672 227.619 28.2624 227.843 28.1152C228.067 27.968 228.332 27.8944 228.64 27.8944C228.684 27.8944 228.726 27.8976 228.764 27.904C228.803 27.904 228.844 27.9072 228.889 27.9136V28.816C228.812 28.8032 228.726 28.7968 228.63 28.7968C228.233 28.7968 227.913 28.9312 227.67 29.2C227.433 29.4624 227.315 29.8176 227.315 30.2656V32.8H226.364ZM230.002 34.624V33.7792H230.348C230.604 33.7792 230.799 33.7344 230.933 33.6448C231.068 33.5552 231.177 33.4048 231.26 33.1936L231.423 32.7904L229.436 27.9424H230.415L231.893 31.6672L233.362 27.9424H234.341L232.105 33.4144C231.932 33.8432 231.705 34.1504 231.423 34.336C231.148 34.528 230.789 34.624 230.348 34.624H230.002ZM237.633 32.8V27.9328H238.584V28.5184C238.724 28.288 238.904 28.1088 239.121 27.9808C239.345 27.8528 239.601 27.7888 239.889 27.7888C240.235 27.7888 240.529 27.8624 240.772 28.0096C241.016 28.1568 241.192 28.3712 241.3 28.6528C241.448 28.384 241.643 28.1728 241.886 28.0192C242.136 27.8656 242.424 27.7888 242.75 27.7888C243.236 27.7888 243.614 27.9264 243.883 28.2016C244.152 28.4768 244.286 28.8832 244.286 29.4208V32.8H243.336V29.6032C243.336 29.264 243.262 29.0144 243.115 28.8544C242.968 28.688 242.75 28.6048 242.462 28.6048C242.257 28.6048 242.078 28.656 241.924 28.7584C241.771 28.8608 241.649 29.0144 241.56 29.2192C241.476 29.4176 241.435 29.6608 241.435 29.9488V32.8H240.484V29.6032C240.484 29.2704 240.411 29.0208 240.264 28.8544C240.116 28.688 239.902 28.6048 239.62 28.6048C239.416 28.6048 239.233 28.656 239.073 28.7584C238.92 28.8608 238.798 29.0112 238.708 29.2096C238.625 29.408 238.584 29.6512 238.584 29.9392V32.8H237.633ZM247.789 32.9536C247.315 32.9536 246.896 32.8448 246.531 32.6272C246.166 32.4096 245.882 32.1056 245.677 31.7152C245.472 31.3248 245.37 30.8768 245.37 30.3712C245.37 29.872 245.472 29.4272 245.677 29.0368C245.882 28.64 246.166 28.3328 246.531 28.1152C246.896 27.8976 247.315 27.7888 247.789 27.7888C248.256 27.7888 248.672 27.8976 249.037 28.1152C249.402 28.3328 249.683 28.64 249.882 29.0368C250.086 29.4272 250.189 29.872 250.189 30.3712C250.189 30.8768 250.086 31.3248 249.882 31.7152C249.683 32.1056 249.402 32.4096 249.037 32.6272C248.672 32.8448 248.256 32.9536 247.789 32.9536ZM247.789 32.1376C248.077 32.1376 248.326 32.0672 248.538 31.9264C248.755 31.7856 248.922 31.584 249.037 31.3216C249.152 31.0528 249.21 30.736 249.21 30.3712C249.21 30.0064 249.152 29.6928 249.037 29.4304C248.928 29.1616 248.765 28.9568 248.547 28.816C248.336 28.6752 248.083 28.6048 247.789 28.6048C247.488 28.6048 247.229 28.6752 247.011 28.816C246.8 28.9568 246.634 29.1616 246.512 29.4304C246.397 29.6928 246.339 30.0064 246.339 30.3712C246.339 30.736 246.397 31.0496 246.512 31.312C246.634 31.5744 246.803 31.7792 247.021 31.9264C247.238 32.0672 247.494 32.1376 247.789 32.1376ZM251.358 32.8V27.9424H252.309V28.5568C252.475 28.3136 252.686 28.1248 252.942 27.9904C253.205 27.856 253.502 27.7888 253.835 27.7888C254.385 27.7888 254.814 27.968 255.121 28.3264C255.435 28.6784 255.592 29.1616 255.592 29.776V32.8H254.641V29.872C254.641 29.456 254.552 29.1424 254.373 28.9312C254.193 28.7136 253.925 28.6048 253.566 28.6048C253.317 28.6048 253.096 28.6688 252.904 28.7968C252.718 28.9184 252.571 29.0976 252.462 29.3344C252.36 29.5648 252.309 29.8368 252.309 30.1504V32.8H251.358ZM258.51 32.8864C258.03 32.8864 257.682 32.7744 257.464 32.5504C257.253 32.32 257.147 31.9968 257.147 31.5808V28.7296H256.37V27.9424H257.147V26.6944H258.098V27.9424H259.144V28.7296H258.098V31.5328C258.098 31.7248 258.149 31.8624 258.251 31.9456C258.36 32.0288 258.523 32.0704 258.741 32.0704C258.843 32.0704 258.974 32.0608 259.134 32.0416V32.8096C258.917 32.8608 258.709 32.8864 258.51 32.8864ZM260.189 32.8V25.84H261.13V28.5568C261.297 28.3136 261.508 28.1248 261.764 27.9904C262.026 27.856 262.324 27.7888 262.657 27.7888C263.207 27.7888 263.636 27.968 263.943 28.3264C264.257 28.6784 264.413 29.1616 264.413 29.776V32.8H263.463V29.872C263.463 29.456 263.373 29.1424 263.194 28.9312C263.015 28.7136 262.746 28.6048 262.388 28.6048C262.138 28.6048 261.917 28.6688 261.725 28.7968C261.54 28.9184 261.393 29.0976 261.284 29.3344C261.181 29.5648 261.13 29.8368 261.13 30.1504V32.8H260.189Z" fill="#5E646E"/>
<path fill-rule="evenodd" clip-rule="evenodd" d="M273.7 27.95C274.119 27.95 274.351 28.448 274.09 28.7842L272.789 30.4573C272.59 30.7142 272.21 30.7142 272.011 30.4573L270.71 28.7842C270.449 28.448 270.681 27.95 271.1 27.95L273.7 27.95Z" fill="#ACB1B9"/>
<rect x="202.3" y="18.3" width="78.2" height="22" rx="2.1" stroke="#D8DADF" stroke-width="0.6"/>
<path d="M20.8512 62.7536C20.3776 62.7536 19.9584 62.6448 19.5936 62.4272C19.2288 62.2096 18.944 61.9056 18.7392 61.5152C18.5344 61.1248 18.432 60.6768 18.432 60.1712C18.432 59.672 18.5344 59.2272 18.7392 58.8368C18.944 58.44 19.2288 58.1328 19.5936 57.9152C19.9584 57.6976 20.3776 57.5888 20.8512 57.5888C21.3184 57.5888 21.7344 57.6976 22.0992 57.9152C22.464 58.1328 22.7456 58.44 22.944 58.8368C23.1488 59.2272 23.2512 59.672 23.2512 60.1712C23.2512 60.6768 23.1488 61.1248 22.944 61.5152C22.7456 61.9056 22.464 62.2096 22.0992 62.4272C21.7344 62.6448 21.3184 62.7536 20.8512 62.7536ZM20.8512 61.9376C21.1392 61.9376 21.3888 61.8672 21.6 61.7264C21.8176 61.5856 21.984 61.384 22.0992 61.1216C22.2144 60.8528 22.272 60.536 22.272 60.1712C22.272 59.8064 22.2144 59.4928 22.0992 59.2304C21.9904 58.9616 21.8272 58.7568 21.6096 58.616C21.3984 58.4752 21.1456 58.4048 20.8512 58.4048C20.5504 58.4048 20.2912 58.4752 20.0736 58.616C19.8624 58.7568 19.696 58.9616 19.5744 59.2304C19.4592 59.4928 19.4016 59.8064 19.4016 60.1712C19.4016 60.536 19.4592 60.8496 19.5744 61.112C19.696 61.3744 19.8656 61.5792 20.0832 61.7264C20.3008 61.8672 20.5568 61.9376 20.8512 61.9376ZM24.4207 62.6V57.7424H25.3711V58.3568C25.5375 58.1136 25.7487 57.9248 26.0047 57.7904C26.2671 57.656 26.5647 57.5888 26.8975 57.5888C27.4479 57.5888 27.8767 57.768 28.1839 58.1264C28.4975 58.4784 28.6543 58.9616 28.6543 59.576V62.6H27.7039V59.672C27.7039 59.256 27.6143 58.9424 27.4351 58.7312C27.2559 58.5136 26.9871 58.4048 26.6287 58.4048C26.3791 58.4048 26.1583 58.4688 25.9663 58.5968C25.7807 58.7184 25.6335 58.8976 25.5247 59.1344C25.4223 59.3648 25.3711 59.6368 25.3711 59.9504V62.6H24.4207Z" fill="#5E646E"/>
<rect x="37.2" y="48.3" width="21.6" height="21.6" rx="10.8" fill="#176AE5"/>
<path d="M44.4783 62.7V55.9416H45.7839L48.0111 61.404L50.2287 55.9416H51.5343V62.7H50.5551V57.4968L48.4239 62.7H47.5983L45.4479 57.4968V62.7H44.4783Z" fill="white"/>
<path d="M71.5201 62.7V56.8056H69.2641V55.9416H74.7361V56.8056H72.4897V62.7H71.5201Z" fill="#5E646E"/>
<rect x="61.5" y="48.6" width="21" height="21" rx="10.5" stroke="#D8DADF" stroke-width="0.6"/>
<path d="M93.3928 62.7L91.5496 55.9416H92.5576L93.9976 61.3752L95.5336 55.9416H96.484L98.0104 61.3944L99.4504 55.9416H100.449L98.6152 62.7H97.4824L96.004 57.4296L94.5256 62.7H93.3928Z" fill="#5E646E"/>
<rect x="85.5" y="48.6" width="21" height="21" rx="10.5" stroke="#D8DADF" stroke-width="0.6"/>
<path d="M119.52 62.7V56.8056H117.264V55.9416H122.736V56.8056H120.49V62.7H119.52Z" fill="#5E646E"/>
<rect x="109.5" y="48.6" width="21" height="21" rx="10.5" stroke="#D8DADF" stroke-width="0.6"/>
<path d="M141.974 62.7V55.9416H146.62V56.8056H142.943V58.9656H146.226V59.8296H142.943V62.7H141.974Z" fill="#5E646E"/>
<rect x="133.5" y="48.6" width="21" height="21" rx="10.5" stroke="#D8DADF" stroke-width="0.6"/>
<path d="M168.066 62.844C167.593 62.844 167.17 62.7736 166.799 62.6328C166.428 62.492 166.114 62.3032 165.858 62.0664C165.609 61.8232 165.404 61.5416 165.244 61.2216L166.041 60.6648C166.181 60.9272 166.345 61.1512 166.53 61.3368C166.716 61.516 166.937 61.66 167.193 61.7688C167.455 61.8712 167.746 61.9224 168.066 61.9224C168.533 61.9224 168.914 61.8264 169.209 61.6344C169.509 61.436 169.66 61.164 169.66 60.8184C169.66 60.5944 169.596 60.4152 169.468 60.2808C169.346 60.14 169.157 60.0248 168.901 59.9352C168.645 59.8456 168.277 59.7528 167.797 59.6568C167.279 59.548 166.853 59.42 166.521 59.2728C166.194 59.1256 165.941 58.9304 165.762 58.6872C165.583 58.4376 165.493 58.1176 165.493 57.7272C165.493 57.3304 165.599 56.9848 165.81 56.6904C166.028 56.396 166.325 56.172 166.703 56.0184C167.087 55.8648 167.522 55.788 168.009 55.788C168.393 55.788 168.741 55.8456 169.055 55.9608C169.369 56.076 169.644 56.236 169.881 56.4408C170.117 56.6392 170.319 56.876 170.485 57.1512L169.727 57.7272C169.522 57.4008 169.273 57.148 168.978 56.9688C168.684 56.7896 168.354 56.7 167.989 56.7C167.554 56.7 167.202 56.7896 166.933 56.9688C166.671 57.1416 166.54 57.372 166.54 57.66C166.54 57.8584 166.594 58.0184 166.703 58.14C166.818 58.2616 166.988 58.364 167.212 58.4472C167.442 58.5304 167.772 58.6168 168.201 58.7064C168.77 58.828 169.231 58.9624 169.583 59.1096C169.935 59.2568 170.21 59.4616 170.409 59.724C170.607 59.9864 170.706 60.3288 170.706 60.7512C170.706 61.1736 170.594 61.5448 170.37 61.8648C170.146 62.1784 169.833 62.4216 169.429 62.5944C169.033 62.7608 168.578 62.844 168.066 62.844Z" fill="#5E646E"/>
<rect x="157.5" y="48.6" width="21" height="21" rx="10.5" stroke="#D8DADF" stroke-width="0.6"/>
<path d="M192.066 62.844C191.593 62.844 191.17 62.7736 190.799 62.6328C190.428 62.492 190.114 62.3032 189.858 62.0664C189.609 61.8232 189.404 61.5416 189.244 61.2216L190.041 60.6648C190.181 60.9272 190.345 61.1512 190.53 61.3368C190.716 61.516 190.937 61.66 191.193 61.7688C191.455 61.8712 191.746 61.9224 192.066 61.9224C192.533 61.9224 192.914 61.8264 193.209 61.6344C193.509 61.436 193.66 61.164 193.66 60.8184C193.66 60.5944 193.596 60.4152 193.468 60.2808C193.346 60.14 193.157 60.0248 192.901 59.9352C192.645 59.8456 192.277 59.7528 191.797 59.6568C191.279 59.548 190.853 59.42 190.521 59.2728C190.194 59.1256 189.941 58.9304 189.762 58.6872C189.583 58.4376 189.493 58.1176 189.493 57.7272C189.493 57.3304 189.599 56.9848 189.81 56.6904C190.028 56.396 190.325 56.172 190.703 56.0184C191.087 55.8648 191.522 55.788 192.009 55.788C192.393 55.788 192.741 55.8456 193.055 55.9608C193.369 56.076 193.644 56.236 193.881 56.4408C194.117 56.6392 194.319 56.876 194.485 57.1512L193.727 57.7272C193.522 57.4008 193.273 57.148 192.978 56.9688C192.684 56.7896 192.354 56.7 191.989 56.7C191.554 56.7 191.202 56.7896 190.933 56.9688C190.671 57.1416 190.54 57.372 190.54 57.66C190.54 57.8584 190.594 58.0184 190.703 58.14C190.818 58.2616 190.988 58.364 191.212 58.4472C191.442 58.5304 191.772 58.6168 192.201 58.7064C192.77 58.828 193.231 58.9624 193.583 59.1096C193.935 59.2568 194.21 59.4616 194.409 59.724C194.607 59.9864 194.706 60.3288 194.706 60.7512C194.706 61.1736 194.594 61.5448 194.37 61.8648C194.146 62.1784 193.833 62.4216 193.429 62.5944C193.033 62.7608 192.578 62.844 192.066 62.844Z" fill="#5E646E"/>
<rect x="181.5" y="48.6" width="21" height="21" rx="10.5" stroke="#D8DADF" stroke-width="0.6"/>
<path d="M211.722 62.2008C211.425 62.2008 211.17 62.1476 210.958 62.0412C210.75 61.9348 210.594 61.7892 210.487 61.6044C210.381 61.4196 210.328 61.2124 210.328 60.9828C210.328 60.6076 210.456 60.3108 210.714 60.0924C210.977 59.874 211.361 59.7256 211.865 59.6472L212.722 59.5212C212.873 59.4988 212.976 59.4624 213.032 59.412C213.088 59.356 213.116 59.2776 213.116 59.1768C213.116 58.9584 213.035 58.7792 212.873 58.6392C212.71 58.4936 212.486 58.4208 212.201 58.4208C211.954 58.4208 211.742 58.4796 211.562 58.5972C211.383 58.7148 211.221 58.8828 211.075 59.1012L210.437 58.74C210.56 58.516 210.708 58.3284 210.882 58.1772C211.061 58.026 211.26 57.9112 211.478 57.8328C211.702 57.7544 211.949 57.7152 212.218 57.7152C212.565 57.7152 212.867 57.7796 213.125 57.9084C213.382 58.0316 213.581 58.208 213.721 58.4376C213.861 58.6616 213.931 58.922 213.931 59.2188V62.1H213.116V61.3272C212.982 61.6016 212.792 61.8172 212.545 61.974C212.299 62.1252 212.024 62.2008 211.722 62.2008ZM211.932 61.5372C212.167 61.5372 212.374 61.4784 212.554 61.3608C212.733 61.2376 212.87 61.0724 212.965 60.8652C213.066 60.6524 213.116 60.4116 213.116 60.1428V59.9412C213.077 59.9636 213.021 59.986 212.948 60.0084C212.876 60.0252 212.794 60.042 212.705 60.0588L212.083 60.1596C211.792 60.2044 211.562 60.2856 211.394 60.4032C211.232 60.5152 211.151 60.6804 211.151 60.8988C211.151 61.0948 211.221 61.2516 211.361 61.3692C211.501 61.4812 211.691 61.5372 211.932 61.5372ZM216.446 62.1756C216.026 62.1756 215.721 62.0776 215.53 61.8816C215.345 61.68 215.253 61.3972 215.253 61.0332V58.5384H214.573V57.8496H215.253V56.7576H216.085V57.8496H217V58.5384H216.085V60.9912C216.085 61.1592 216.129 61.2796 216.219 61.3524C216.314 61.4252 216.457 61.4616 216.647 61.4616C216.737 61.4616 216.852 61.4532 216.992 61.4364V62.1084C216.801 62.1532 216.619 62.1756 216.446 62.1756Z" fill="#5E646E"/>
<path d="M235.664 62.7536C235.075 62.7536 234.579 62.6032 234.176 62.3024C233.773 62.0016 233.469 61.5856 233.264 61.0544C233.059 60.5232 232.957 59.9056 232.957 59.2016C232.957 58.5104 233.059 57.9024 233.264 57.3776C233.469 56.8464 233.773 56.4336 234.176 56.1392C234.586 55.8384 235.078 55.688 235.654 55.688C236.23 55.688 236.717 55.8384 237.114 56.1392C237.517 56.4336 237.821 56.8464 238.026 57.3776C238.23 57.9024 238.333 58.5104 238.333 59.2016C238.333 59.9056 238.23 60.5264 238.026 61.064C237.827 61.5952 237.526 62.0112 237.123 62.312C236.726 62.6064 236.24 62.7536 235.664 62.7536ZM235.664 61.8608C236.195 61.8608 236.608 61.6304 236.902 61.1696C237.197 60.7024 237.344 60.0464 237.344 59.2016C237.344 58.376 237.194 57.7328 236.893 57.272C236.598 56.8112 236.186 56.5808 235.654 56.5808C235.117 56.5808 234.698 56.8112 234.397 57.272C234.096 57.7328 233.946 58.376 233.946 59.2016C233.946 60.04 234.096 60.6928 234.397 61.16C234.698 61.6272 235.12 61.8608 235.664 61.8608ZM241.633 62.7536C241.14 62.7536 240.724 62.6448 240.385 62.4272C240.052 62.2096 239.764 61.9088 239.521 61.5248L240.298 61.0256C240.458 61.288 240.644 61.4928 240.855 61.64C241.073 61.7872 241.342 61.8608 241.662 61.8608C242.186 61.8608 242.609 61.656 242.929 61.2464C243.249 60.8368 243.431 60.2096 243.476 59.3648C243.284 59.6592 243.025 59.8928 242.699 60.0656C242.379 60.232 242.017 60.3152 241.614 60.3152C241.198 60.3152 240.817 60.2224 240.471 60.0368C240.132 59.8448 239.863 59.5792 239.665 59.24C239.466 58.8944 239.367 58.5008 239.367 58.0592C239.367 57.5984 239.476 57.1888 239.694 56.8304C239.918 56.4656 240.218 56.184 240.596 55.9856C240.98 55.7872 241.399 55.688 241.854 55.688C242.366 55.688 242.817 55.8096 243.207 56.0528C243.604 56.2896 243.915 56.6608 244.138 57.1664C244.369 57.6656 244.484 58.2992 244.484 59.0672C244.484 59.8288 244.372 60.488 244.148 61.0448C243.924 61.5952 243.598 62.0176 243.169 62.312C242.74 62.6064 242.228 62.7536 241.633 62.7536ZM241.825 59.5376C242.119 59.5376 242.378 59.4736 242.602 59.3456C242.827 59.2112 242.999 59.032 243.121 58.808C243.249 58.584 243.313 58.328 243.313 58.04C243.313 57.7648 243.252 57.512 243.131 57.2816C243.015 57.0512 242.846 56.8688 242.622 56.7344C242.398 56.6 242.138 56.5328 241.844 56.5328C241.556 56.5328 241.3 56.6 241.076 56.7344C240.852 56.8624 240.676 57.0416 240.548 57.272C240.426 57.5024 240.366 57.7584 240.366 58.04C240.366 58.3216 240.426 58.5776 240.548 58.808C240.67 59.032 240.839 59.2112 241.057 59.3456C241.281 59.4736 241.537 59.5376 241.825 59.5376Z" fill="#5E646E"/>
<path fill-rule="evenodd" clip-rule="evenodd" d="M255.1 57.75C255.519 57.75 255.751 58.248 255.49 58.5842L254.19 60.2573C253.99 60.5142 253.61 60.5142 253.411 60.2573L252.11 58.5842C251.849 58.248 252.082 57.75 252.5 57.75L255.1 57.75Z" fill="#ACB1B9"/>
<rect x="225.5" y="48.1" width="35.8" height="22" rx="2.1" stroke="#D8DADF" stroke-width="0.6"/>
<path d="M264.966 59.0928C264.804 59.0928 264.666 59.0396 264.554 58.9332C264.448 58.8212 264.395 58.684 264.395 58.5216C264.395 58.376 264.448 58.25 264.554 58.1436C264.666 58.0316 264.804 57.9756 264.966 57.9756C265.112 57.9756 265.238 58.0316 265.344 58.1436C265.456 58.25 265.512 58.376 265.512 58.5216C265.512 58.684 265.456 58.8212 265.344 58.9332C265.238 59.0396 265.112 59.0928 264.966 59.0928ZM264.966 62.1672C264.804 62.1672 264.666 62.114 264.554 62.0076C264.448 61.8956 264.395 61.7584 264.395 61.596C264.395 61.4448 264.448 61.316 264.554 61.2096C264.666 61.1032 264.804 61.05 264.966 61.05C265.112 61.05 265.238 61.1032 265.344 61.2096C265.456 61.316 265.512 61.4448 265.512 61.596C265.512 61.7584 265.456 61.8956 265.344 62.0076C265.238 62.114 265.112 62.1672 264.966 62.1672Z" fill="#5E646E"/>
<path d="M278.211 62.744C277.834 62.744 277.498 62.696 277.203 62.6C276.909 62.504 276.656 62.3728 276.445 62.2064C276.24 62.04 276.061 61.8448 275.907 61.6208L276.579 61.0256C276.778 61.288 277.002 61.496 277.251 61.6496C277.501 61.7968 277.808 61.8704 278.173 61.8704C278.627 61.8704 278.992 61.7552 279.267 61.5248C279.549 61.2944 279.69 60.9904 279.69 60.6128C279.69 60.2352 279.552 59.9472 279.277 59.7488C279.008 59.5504 278.64 59.4512 278.173 59.4512H277.702V58.6448H278.154C278.57 58.6448 278.89 58.5488 279.114 58.3568C279.338 58.1584 279.45 57.9056 279.45 57.5984C279.45 57.272 279.334 57.0192 279.104 56.84C278.874 56.6544 278.563 56.5616 278.173 56.5616C277.853 56.5616 277.568 56.6352 277.318 56.7824C277.075 56.9296 276.861 57.1344 276.675 57.3968L276.013 56.8112C276.275 56.4528 276.582 56.1776 276.934 55.9856C277.293 55.7872 277.718 55.688 278.211 55.688C278.685 55.688 279.085 55.7712 279.411 55.9376C279.738 56.0976 279.994 56.3184 280.179 56.6C280.365 56.8752 280.458 57.1824 280.458 57.5216C280.458 57.8288 280.374 58.1104 280.208 58.3664C280.042 58.616 279.814 58.8208 279.526 58.9808C279.917 59.1344 280.208 59.3584 280.4 59.6528C280.598 59.9408 280.698 60.2736 280.698 60.6512C280.698 61.048 280.598 61.4064 280.4 61.7264C280.202 62.04 279.914 62.2896 279.536 62.4752C279.158 62.6544 278.717 62.744 278.211 62.744ZM284.442 62.7536C283.853 62.7536 283.357 62.6032 282.954 62.3024C282.551 62.0016 282.247 61.5856 282.042 61.0544C281.837 60.5232 281.735 59.9056 281.735 59.2016C281.735 58.5104 281.837 57.9024 282.042 57.3776C282.247 56.8464 282.551 56.4336 282.954 56.1392C283.364 55.8384 283.857 55.688 284.433 55.688C285.009 55.688 285.495 55.8384 285.892 56.1392C286.295 56.4336 286.599 56.8464 286.804 57.3776C287.009 57.9024 287.111 58.5104 287.111 59.2016C287.111 59.9056 287.009 60.5264 286.804 61.064C286.605 61.5952 286.305 62.0112 285.901 62.312C285.505 62.6064 285.018 62.7536 284.442 62.7536ZM284.442 61.8608C284.973 61.8608 285.386 61.6304 285.681 61.1696C285.975 60.7024 286.122 60.0464 286.122 59.2016C286.122 58.376 285.972 57.7328 285.671 57.272C285.377 56.8112 284.964 56.5808 284.433 56.5808C283.895 56.5808 283.476 56.8112 283.175 57.272C282.874 57.7328 282.724 58.376 282.724 59.2016C282.724 60.04 282.874 60.6928 283.175 61.16C283.476 61.6272 283.898 61.8608 284.442 61.8608Z" fill="#5E646E"/>
<path fill-rule="evenodd" clip-rule="evenodd" d="M298.3 57.75C298.719 57.75 298.951 58.248 298.69 58.5842L297.39 60.2573C297.19 60.5142 296.81 60.5142 296.611 60.2573L295.31 58.5842C295.049 58.248 295.282 57.75 295.7 57.75L298.3 57.75Z" fill="#ACB1B9"/>
<rect x="268.7" y="48.1" width="35.8" height="22" rx="2.1" stroke="#D8DADF" stroke-width="0.6"/>
<path d="M19.6896 95.3L18.192 90.4424H19.1328L20.1888 94.0328L21.2736 90.4424H22.0992L23.184 94.0328L24.2496 90.4424H25.1808L23.6736 95.3H22.752L21.6864 91.796L20.6208 95.3H19.6896ZM26.108 95.3V90.4424H27.0584V95.3H26.108ZM26.588 89.7128C26.4088 89.7128 26.2552 89.652 26.1272 89.5304C26.0056 89.4024 25.9448 89.2488 25.9448 89.0696C25.9448 88.8904 26.0056 88.74 26.1272 88.6184C26.2552 88.4904 26.4088 88.4264 26.588 88.4264C26.7608 88.4264 26.9112 88.4904 27.0392 88.6184C27.1672 88.74 27.2312 88.8904 27.2312 89.0696C27.2312 89.2488 27.1672 89.4024 27.0392 89.5304C26.9112 89.652 26.7608 89.7128 26.588 89.7128ZM30.1011 95.3864C29.6211 95.3864 29.2723 95.2744 29.0547 95.0504C28.8435 94.82 28.7379 94.4968 28.7379 94.0808V91.2296H27.9603V90.4424H28.7379V89.1944H29.6883V90.4424H30.7347V91.2296H29.6883V94.0328C29.6883 94.2248 29.7395 94.3624 29.8419 94.4456C29.9507 94.5288 30.1139 94.5704 30.3315 94.5704C30.4339 94.5704 30.5651 94.5608 30.7251 94.5416V95.3096C30.5075 95.3608 30.2995 95.3864 30.1011 95.3864ZM31.7801 95.3V88.34H32.7209V91.0568C32.8873 90.8136 33.0985 90.6248 33.3545 90.4904C33.6169 90.356 33.9145 90.2888 34.2473 90.2888C34.7977 90.2888 35.2265 90.468 35.5337 90.8264C35.8473 91.1784 36.0041 91.6616 36.0041 92.276V95.3H35.0537V92.372C35.0537 91.956 34.9641 91.6424 34.7849 91.4312C34.6057 91.2136 34.3369 91.1048 33.9785 91.1048C33.7289 91.1048 33.5081 91.1688 33.3161 91.2968C33.1305 91.4184 32.9833 91.5976 32.8745 91.8344C32.7721 92.0648 32.7209 92.3368 32.7209 92.6504V95.3H31.7801Z" fill="#5E646E"/>
<rect x="43" y="82.4" width="46.2" height="18.8" rx="2.4" fill="#F1F6FE"/>
<path d="M50.2672 94.9536C49.5824 94.9536 49.0512 94.7744 48.6736 94.416C48.296 94.0576 48.1072 93.5488 48.1072 92.8896V92.64H49.0768V92.8896C49.0768 93.28 49.1792 93.5744 49.384 93.7728C49.5888 93.9712 49.8832 94.0704 50.2672 94.0704C50.6576 94.0704 50.9552 93.9712 51.16 93.7728C51.3712 93.5744 51.4768 93.28 51.4768 92.8896V88.0416H52.456V92.8896C52.456 93.5488 52.264 94.0576 51.88 94.416C51.5024 94.7744 50.9648 94.9536 50.2672 94.9536ZM56.1262 94.9536C55.6398 94.9536 55.211 94.8448 54.8398 94.6272C54.475 94.4032 54.1934 94.096 53.995 93.7056C53.803 93.3088 53.707 92.8608 53.707 92.3616C53.707 91.8752 53.803 91.4368 53.995 91.0464C54.187 90.656 54.4654 90.3488 54.8302 90.1248C55.195 89.9008 55.6206 89.7888 56.107 89.7888C56.5742 89.7888 56.9742 89.8944 57.307 90.1056C57.6398 90.3168 57.8926 90.6144 58.0654 90.9984C58.2382 91.376 58.3246 91.8208 58.3246 92.3328C58.3246 92.4224 58.3214 92.5024 58.315 92.5728H54.6286C54.6606 93.0976 54.8078 93.4944 55.0702 93.7632C55.339 94.0256 55.7006 94.1568 56.155 94.1568C56.4814 94.1568 56.7598 94.0896 56.9902 93.9552C57.2206 93.8144 57.4318 93.6224 57.6238 93.3792L58.219 93.8976C57.963 94.2368 57.6622 94.4992 57.3166 94.6848C56.971 94.864 56.5742 94.9536 56.1262 94.9536ZM57.3934 91.9008C57.3742 91.4784 57.2494 91.152 57.019 90.9216C56.7886 90.6912 56.4846 90.576 56.107 90.576C55.7102 90.576 55.3838 90.6912 55.1278 90.9216C54.8782 91.152 54.7214 91.4784 54.6574 91.9008H57.3934ZM61.1886 94.9536C60.6894 94.9536 60.2574 94.8512 59.8926 94.6464C59.5278 94.4416 59.2366 94.16 59.019 93.8016L59.7006 93.3024C59.8734 93.5776 60.0846 93.792 60.3342 93.9456C60.5902 94.0992 60.8814 94.176 61.2078 94.176C61.5406 94.176 61.7998 94.1088 61.9854 93.9744C62.1774 93.84 62.2734 93.664 62.2734 93.4464C62.2734 93.2736 62.2094 93.1424 62.0814 93.0528C61.9534 92.9632 61.7198 92.8768 61.3806 92.7936C61.3166 92.7808 61.2558 92.768 61.1982 92.7552C61.1406 92.7424 61.0766 92.7296 61.0062 92.7168C60.6094 92.6272 60.2862 92.528 60.0366 92.4192C59.787 92.3104 59.595 92.1664 59.4606 91.9872C59.3262 91.8016 59.259 91.5616 59.259 91.2672C59.259 90.9728 59.3358 90.7136 59.4894 90.4896C59.6494 90.2656 59.8734 90.0928 60.1614 89.9712C60.4494 89.8496 60.779 89.7888 61.1502 89.7888C61.611 89.7888 61.9886 89.8752 62.283 90.048C62.5774 90.2208 62.8334 90.4544 63.051 90.7488L62.4174 91.2576C62.2382 91.0336 62.0526 90.864 61.8606 90.7488C61.675 90.6272 61.4446 90.5664 61.1694 90.5664C60.8814 90.5664 60.6478 90.6272 60.4686 90.7488C60.2894 90.864 60.1998 91.0176 60.1998 91.2096C60.1998 91.3824 60.2766 91.5104 60.4302 91.5936C60.5838 91.6768 60.859 91.7632 61.2558 91.8528C61.2814 91.8592 61.307 91.8656 61.3326 91.872C61.3582 91.8784 61.3838 91.8848 61.4094 91.8912C61.8382 91.9744 62.1806 92.0736 62.4366 92.1888C62.699 92.2976 62.8974 92.448 63.0318 92.64C63.1662 92.8256 63.2334 93.0752 63.2334 93.3888C63.2334 93.696 63.1502 93.968 62.9838 94.2048C62.8238 94.4416 62.5902 94.6272 62.283 94.7616C61.9758 94.8896 61.611 94.9536 61.1886 94.9536ZM66.0261 94.9536C65.5269 94.9536 65.0949 94.8512 64.7301 94.6464C64.3653 94.4416 64.0741 94.16 63.8565 93.8016L64.5381 93.3024C64.7109 93.5776 64.9221 93.792 65.1717 93.9456C65.4277 94.0992 65.7189 94.176 66.0453 94.176C66.3781 94.176 66.6373 94.1088 66.8229 93.9744C67.0149 93.84 67.1109 93.664 67.1109 93.4464C67.1109 93.2736 67.0469 93.1424 66.9189 93.0528C66.7909 92.9632 66.5573 92.8768 66.2181 92.7936C66.1541 92.7808 66.0933 92.768 66.0357 92.7552C65.9781 92.7424 65.9141 92.7296 65.8437 92.7168C65.4469 92.6272 65.1237 92.528 64.8741 92.4192C64.6245 92.3104 64.4325 92.1664 64.2981 91.9872C64.1637 91.8016 64.0965 91.5616 64.0965 91.2672C64.0965 90.9728 64.1733 90.7136 64.3269 90.4896C64.4869 90.2656 64.7109 90.0928 64.9989 89.9712C65.2869 89.8496 65.6165 89.7888 65.9877 89.7888C66.4485 89.7888 66.8261 89.8752 67.1205 90.048C67.4149 90.2208 67.6709 90.4544 67.8885 90.7488L67.2549 91.2576C67.0757 91.0336 66.8901 90.864 66.6981 90.7488C66.5125 90.6272 66.2821 90.5664 66.0069 90.5664C65.7189 90.5664 65.4853 90.6272 65.3061 90.7488C65.1269 90.864 65.0373 91.0176 65.0373 91.2096C65.0373 91.3824 65.1141 91.5104 65.2677 91.5936C65.4213 91.6768 65.6965 91.7632 66.0933 91.8528C66.1189 91.8592 66.1445 91.8656 66.1701 91.872C66.1957 91.8784 66.2213 91.8848 66.2469 91.8912C66.6757 91.9744 67.0181 92.0736 67.2741 92.1888C67.5365 92.2976 67.7349 92.448 67.8693 92.64C68.0037 92.8256 68.0709 93.0752 68.0709 93.3888C68.0709 93.696 67.9877 93.968 67.8213 94.2048C67.6613 94.4416 67.4277 94.6272 67.1205 94.7616C66.8133 94.8896 66.4485 94.9536 66.0261 94.9536ZM71.295 94.9536C70.8086 94.9536 70.3798 94.8448 70.0086 94.6272C69.6438 94.4032 69.3622 94.096 69.1638 93.7056C68.9718 93.3088 68.8758 92.8608 68.8758 92.3616C68.8758 91.8752 68.9718 91.4368 69.1638 91.0464C69.3558 90.656 69.6342 90.3488 69.999 90.1248C70.3638 89.9008 70.7894 89.7888 71.2758 89.7888C71.743 89.7888 72.143 89.8944 72.4758 90.1056C72.8086 90.3168 73.0614 90.6144 73.2342 90.9984C73.407 91.376 73.4934 91.8208 73.4934 92.3328C73.4934 92.4224 73.4902 92.5024 73.4838 92.5728H69.7974C69.8294 93.0976 69.9766 93.4944 70.239 93.7632C70.5078 94.0256 70.8694 94.1568 71.3238 94.1568C71.6502 94.1568 71.9286 94.0896 72.159 93.9552C72.3894 93.8144 72.6006 93.6224 72.7926 93.3792L73.3878 93.8976C73.1318 94.2368 72.831 94.4992 72.4854 94.6848C72.1398 94.864 71.743 94.9536 71.295 94.9536ZM72.5622 91.9008C72.543 91.4784 72.4182 91.152 72.1878 90.9216C71.9574 90.6912 71.6534 90.576 71.2758 90.576C70.879 90.576 70.5526 90.6912 70.2966 90.9216C70.047 91.152 69.8902 91.4784 69.8262 91.9008H72.5622Z" fill="#176AE5"/>
<path fill-rule="evenodd" clip-rule="evenodd" d="M80.0029 89.8026C79.878 89.9275 79.878 90.1301 80.003 90.255L81.5478 91.7999L80.003 93.3453C79.8781 93.4702 79.8782 93.6728 80.0032 93.7977C80.1282 93.9226 80.3308 93.9226 80.4556 93.7977L82.0004 92.2524L83.5446 93.7966C83.6695 93.9216 83.8721 93.9216 83.997 93.7967C84.1219 93.6718 84.1218 93.4693 83.9969 93.3443L82.4526 91.8001L83.9968 90.2553C84.1217 90.1304 84.1216 89.9278 83.9966 89.8029C83.8716 89.6779 83.6691 89.6779 83.5442 89.8029L82.0001 91.3475L80.4553 89.8027C80.3303 89.6778 80.1278 89.6777 80.0029 89.8026Z" fill="#176AE5"/>
<rect x="95.2" y="82.4" width="46.2" height="18.8" rx="2.4" fill="#F1F6FE"/>
<path d="M100.941 94.8V88.0416H101.91V93.9264H105.434V94.8H100.941ZM108.007 94.9536C107.45 94.9536 107.018 94.7776 106.711 94.4256C106.404 94.0672 106.25 93.5808 106.25 92.9664V89.9424H107.2V92.8608C107.2 93.2832 107.29 93.6032 107.469 93.8208C107.648 94.032 107.917 94.1376 108.276 94.1376C108.519 94.1376 108.733 94.0736 108.919 93.9456C109.111 93.8176 109.261 93.6384 109.37 93.408C109.479 93.1712 109.533 92.8992 109.533 92.592V89.9424H110.484V94.8H109.533V94.1856C109.367 94.4288 109.152 94.6176 108.89 94.752C108.634 94.8864 108.34 94.9536 108.007 94.9536ZM114.102 94.944C113.609 94.944 113.177 94.8352 112.806 94.6176C112.435 94.4 112.15 94.096 111.951 93.7056C111.753 93.3152 111.654 92.8704 111.654 92.3712C111.654 91.8784 111.753 91.4368 111.951 91.0464C112.15 90.656 112.431 90.3488 112.796 90.1248C113.167 89.9008 113.603 89.7888 114.102 89.7888C114.403 89.7888 114.678 89.8368 114.927 89.9328C115.177 90.0224 115.395 90.1504 115.58 90.3168C115.766 90.4832 115.926 90.6784 116.06 90.9024L115.388 91.4016C115.241 91.1712 115.062 90.9888 114.851 90.8544C114.646 90.7136 114.399 90.6432 114.111 90.6432C113.791 90.6432 113.519 90.72 113.295 90.8736C113.071 91.0208 112.902 91.2256 112.787 91.488C112.678 91.7504 112.623 92.0448 112.623 92.3712C112.623 92.6976 112.678 92.992 112.787 93.2544C112.902 93.5168 113.071 93.7248 113.295 93.8784C113.519 94.0256 113.791 94.0992 114.111 94.0992C114.393 94.0992 114.639 94.032 114.851 93.8976C115.062 93.7568 115.241 93.5712 115.388 93.3408L116.06 93.8208C115.939 94.0448 115.785 94.2432 115.599 94.416C115.42 94.5824 115.203 94.7104 114.947 94.8C114.697 94.896 114.415 94.944 114.102 94.944ZM118.356 94.9152C118.016 94.9152 117.725 94.8544 117.482 94.7328C117.245 94.6112 117.066 94.4448 116.944 94.2336C116.823 94.0224 116.762 93.7856 116.762 93.5232C116.762 93.0944 116.909 92.7552 117.204 92.5056C117.504 92.256 117.943 92.0864 118.519 91.9968L119.498 91.8528C119.671 91.8272 119.789 91.7856 119.853 91.728C119.917 91.664 119.949 91.5744 119.949 91.4592C119.949 91.2096 119.856 91.0048 119.671 90.8448C119.485 90.6784 119.229 90.5952 118.903 90.5952C118.621 90.5952 118.378 90.6624 118.173 90.7968C117.968 90.9312 117.783 91.1232 117.616 91.3728L116.887 90.96C117.028 90.704 117.197 90.4896 117.396 90.3168C117.6 90.144 117.828 90.0128 118.077 89.9232C118.333 89.8336 118.615 89.7888 118.922 89.7888C119.319 89.7888 119.664 89.8624 119.959 90.0096C120.253 90.1504 120.48 90.352 120.64 90.6144C120.8 90.8704 120.88 91.168 120.88 91.5072V94.8H119.949V93.9168C119.796 94.2304 119.578 94.4768 119.296 94.656C119.015 94.8288 118.701 94.9152 118.356 94.9152ZM118.596 94.1568C118.864 94.1568 119.101 94.0896 119.306 93.9552C119.511 93.8144 119.668 93.6256 119.776 93.3888C119.892 93.1456 119.949 92.8704 119.949 92.5632V92.3328C119.904 92.3584 119.84 92.384 119.757 92.4096C119.674 92.4288 119.581 92.448 119.479 92.4672L118.768 92.5824C118.436 92.6336 118.173 92.7264 117.981 92.8608C117.796 92.9888 117.703 93.1776 117.703 93.4272C117.703 93.6512 117.783 93.8304 117.943 93.9648C118.103 94.0928 118.32 94.1568 118.596 94.1568ZM123.982 94.9536C123.483 94.9536 123.051 94.8512 122.686 94.6464C122.322 94.4416 122.03 94.16 121.813 93.8016L122.494 93.3024C122.667 93.5776 122.878 93.792 123.128 93.9456C123.384 94.0992 123.675 94.176 124.002 94.176C124.334 94.176 124.594 94.1088 124.779 93.9744C124.971 93.84 125.067 93.664 125.067 93.4464C125.067 93.2736 125.003 93.1424 124.875 93.0528C124.747 92.9632 124.514 92.8768 124.174 92.7936C124.11 92.7808 124.05 92.768 123.992 92.7552C123.934 92.7424 123.87 92.7296 123.8 92.7168C123.403 92.6272 123.08 92.528 122.83 92.4192C122.581 92.3104 122.389 92.1664 122.254 91.9872C122.12 91.8016 122.053 91.5616 122.053 91.2672C122.053 90.9728 122.13 90.7136 122.283 90.4896C122.443 90.2656 122.667 90.0928 122.955 89.9712C123.243 89.8496 123.573 89.7888 123.944 89.7888C124.405 89.7888 124.782 89.8752 125.077 90.048C125.371 90.2208 125.627 90.4544 125.845 90.7488L125.211 91.2576C125.032 91.0336 124.846 90.864 124.654 90.7488C124.469 90.6272 124.238 90.5664 123.963 90.5664C123.675 90.5664 123.442 90.6272 123.262 90.7488C123.083 90.864 122.994 91.0176 122.994 91.2096C122.994 91.3824 123.07 91.5104 123.224 91.5936C123.378 91.6768 123.653 91.7632 124.05 91.8528C124.075 91.8592 124.101 91.8656 124.126 91.872C124.152 91.8784 124.178 91.8848 124.203 91.8912C124.632 91.9744 124.974 92.0736 125.23 92.1888C125.493 92.2976 125.691 92.448 125.826 92.64C125.96 92.8256 126.027 93.0752 126.027 93.3888C126.027 93.696 125.944 93.968 125.778 94.2048C125.618 94.4416 125.384 94.6272 125.077 94.7616C124.77 94.8896 124.405 94.9536 123.982 94.9536Z" fill="#176AE5"/>
<path fill-rule="evenodd" clip-rule="evenodd" d="M132.203 89.8026C132.078 89.9275 132.078 90.1301 132.203 90.255L133.748 91.7999L132.203 93.3453C132.078 93.4702 132.078 93.6728 132.203 93.7977C132.328 93.9226 132.531 93.9226 132.656 93.7977L134.2 92.2524L135.745 93.7966C135.87 93.9216 136.072 93.9216 136.197 93.7967C136.322 93.6718 136.322 93.4693 136.197 93.3443L134.653 91.8001L136.197 90.2553C136.322 90.1304 136.322 89.9278 136.197 89.8029C136.072 89.6779 135.869 89.6779 135.744 89.8029L134.2 91.3475L132.655 89.8027C132.53 89.6778 132.328 89.6777 132.203 89.8026Z" fill="#176AE5"/>
<rect x="147.4" y="82.4" width="31.2" height="18.8" rx="2.4" fill="#F1F6FE"/>
<path d="M152.45 94.8L155.07 88.0416H156.174L158.795 94.8H157.749L157.106 93.12H154.11L153.467 94.8H152.45ZM154.437 92.256H156.77L155.608 89.2128L154.437 92.256ZM159.697 94.8V87.84H160.638V94.8H159.697ZM162.042 94.8V89.9424H162.993V94.8H162.042ZM162.522 89.2128C162.343 89.2128 162.19 89.152 162.062 89.0304C161.94 88.9024 161.879 88.7488 161.879 88.5696C161.879 88.3904 161.94 88.24 162.062 88.1184C162.19 87.9904 162.343 87.9264 162.522 87.9264C162.695 87.9264 162.846 87.9904 162.974 88.1184C163.102 88.24 163.166 88.3904 163.166 88.5696C163.166 88.7488 163.102 88.9024 162.974 89.0304C162.846 89.152 162.695 89.2128 162.522 89.2128Z" fill="#176AE5"/>
<path fill-rule="evenodd" clip-rule="evenodd" d="M169.403 89.8026C169.278 89.9275 169.278 90.1301 169.403 90.255L170.948 91.7999L169.403 93.3453C169.278 93.4702 169.278 93.6728 169.403 93.7977C169.528 93.9226 169.731 93.9226 169.856 93.7977L171.4 92.2524L172.945 93.7966C173.07 93.9216 173.272 93.9216 173.397 93.7967C173.522 93.6718 173.522 93.4693 173.397 93.3443L171.853 91.8001L173.397 90.2553C173.522 90.1304 173.522 89.9278 173.397 89.8029C173.272 89.6779 173.069 89.6779 172.944 89.8029L171.4 91.3475L169.855 89.8027C169.73 89.6778 169.528 89.6777 169.403 89.8026Z" fill="#176AE5"/>
<defs>
<clipPath id="clip0_2148_7011">
<rect width="10.8" height="10.8" fill="white" transform="translate(60 23.9)"/>
</clipPath>
</defs>
</svg>
