<svg width="197" height="123" viewBox="0 0 197 123" fill="none" xmlns="http://www.w3.org/2000/svg">
<g clip-path="url(#clip0_2148_8429)">
<rect width="196.772" height="122.581" transform="translate(0 0.299805)" fill="white"/>
<rect width="196.772" height="24.4071" transform="translate(0 3.15161)" fill="white"/>
<path d="M11.5473 18.996C11.1132 18.996 10.7172 18.9315 10.3593 18.8024C10.0073 18.6675 9.70811 18.4915 9.46171 18.2744C9.22118 18.0574 9.02758 17.811 8.88091 17.5352L9.84011 16.8312C9.96918 17.0483 10.1158 17.2331 10.2801 17.3856C10.4444 17.5382 10.6321 17.6584 10.8433 17.7464C11.0604 17.8286 11.295 17.8696 11.5473 17.8696C11.9169 17.8696 12.2161 17.8022 12.4449 17.6672C12.6796 17.5323 12.7969 17.3387 12.7969 17.0864C12.7969 16.928 12.7441 16.799 12.6385 16.6992C12.5388 16.5995 12.3862 16.5174 12.1809 16.4528C11.9814 16.3883 11.6852 16.315 11.2921 16.2328C10.8052 16.1331 10.4062 16.0158 10.0953 15.8808C9.78438 15.74 9.53798 15.5523 9.35611 15.3176C9.18011 15.0771 9.09211 14.7691 9.09211 14.3936C9.09211 14.0006 9.19185 13.6632 9.39131 13.3816C9.59665 13.1 9.88118 12.8859 10.2449 12.7392C10.6086 12.5926 11.0281 12.5192 11.5033 12.5192C11.8729 12.5192 12.222 12.575 12.5505 12.6864C12.879 12.792 13.1401 12.9387 13.3337 13.1264C13.5273 13.3083 13.7033 13.5254 13.8617 13.7776L13.0433 14.4904C12.8028 14.2147 12.5534 14.0006 12.2953 13.848C12.043 13.6955 11.7702 13.6192 11.4769 13.6192C11.1425 13.6192 10.8726 13.6808 10.6673 13.804C10.4678 13.9272 10.3681 14.0915 10.3681 14.2968C10.3681 14.4435 10.415 14.5608 10.5089 14.6488C10.6028 14.7368 10.7436 14.8131 10.9313 14.8776C11.119 14.9363 11.3918 15.0038 11.7497 15.08C12.2777 15.1915 12.703 15.3176 13.0257 15.4584C13.3542 15.5992 13.6094 15.7958 13.7913 16.048C13.979 16.2944 14.0729 16.62 14.0729 17.0248C14.0729 17.4238 13.9644 17.7728 13.7473 18.072C13.5361 18.3654 13.2398 18.5942 12.8585 18.7584C12.4772 18.9168 12.0401 18.996 11.5473 18.996ZM15.5104 18.8552V12.66H16.6984V18.8552H15.5104ZM18.5542 18.8552V12.66H20.1206L21.9158 17.2272L23.6934 12.66H25.251V18.8552H24.0718V14.5872L22.3822 18.8552H21.4494L19.7422 14.5784V18.8552H18.5542ZM27.1065 18.8552V12.66H28.2945V18.8552H27.1065ZM30.1503 18.8552V12.66H31.3383V17.808H34.4359V18.8552H30.1503ZM35.3375 18.8552L37.7047 12.66H39.0687L41.4271 18.8552H40.1599L39.6495 17.5264H37.0799L36.5783 18.8552H35.3375ZM37.4759 16.4792H39.2623L38.3647 14.1296L37.4759 16.4792ZM42.7089 18.8552V12.66H45.7185C46.3404 12.66 46.8273 12.8184 47.1793 13.1352C47.5313 13.452 47.7073 13.8832 47.7073 14.4288C47.7073 14.687 47.6633 14.9158 47.5753 15.1152C47.4932 15.3147 47.37 15.4848 47.2057 15.6256C47.0473 15.7606 46.8537 15.8691 46.6249 15.9512C46.8068 16.0334 46.9535 16.1595 47.0649 16.3296C47.1823 16.4939 47.2849 16.7286 47.3729 17.0336L47.9009 18.8552H46.6249L46.1849 17.3416C46.1204 17.107 46.05 16.928 45.9737 16.8048C45.9033 16.6816 45.8036 16.5907 45.6745 16.532C45.5455 16.4734 45.3724 16.444 45.1553 16.444H43.8969V18.8552H42.7089ZM45.5513 15.476C45.8564 15.476 46.094 15.4027 46.2641 15.256C46.4343 15.1035 46.5193 14.8718 46.5193 14.5608C46.5193 14.2558 46.4343 14.0328 46.2641 13.892C46.094 13.7454 45.8564 13.672 45.5513 13.672H43.8969V15.476H45.5513ZM51.7012 18.8552V12.66H54.0332C54.6726 12.66 55.2153 12.7891 55.6612 13.0472C56.107 13.2995 56.4444 13.6603 56.6732 14.1296C56.9078 14.5931 57.0252 15.1387 57.0252 15.7664C57.0252 16.3942 56.9078 16.9398 56.6732 17.4032C56.4444 17.8667 56.107 18.2246 55.6612 18.4768C55.2153 18.7291 54.6726 18.8552 54.0332 18.8552H51.7012ZM54.0244 17.808C54.5876 17.808 55.0276 17.632 55.3444 17.28C55.6612 16.9222 55.8196 16.4176 55.8196 15.7664C55.8196 15.1152 55.6612 14.6107 55.3444 14.2528C55.0276 13.8891 54.5876 13.7072 54.0244 13.7072H52.8892V17.808H54.0244ZM61.289 18.996C60.6789 18.996 60.1391 18.8611 59.6698 18.5912C59.2063 18.3155 58.8455 17.9342 58.5874 17.4472C58.3351 16.9603 58.209 16.403 58.209 15.7752C58.209 15.1475 58.3351 14.5872 58.5874 14.0944C58.8455 13.6016 59.2063 13.2174 59.6698 12.9416C60.1391 12.66 60.6789 12.5192 61.289 12.5192C61.905 12.5192 62.4447 12.66 62.9082 12.9416C63.3717 13.2174 63.7266 13.6016 63.973 14.0944C64.2253 14.5872 64.3514 15.1475 64.3514 15.7752C64.3514 16.403 64.2253 16.9603 63.973 17.4472C63.7266 17.9342 63.3717 18.3155 62.9082 18.5912C62.4447 18.8611 61.905 18.996 61.289 18.996ZM61.289 17.9224C61.6586 17.9224 61.9842 17.8344 62.2658 17.6584C62.5474 17.4766 62.7645 17.2243 62.917 16.9016C63.0695 16.579 63.1458 16.2035 63.1458 15.7752C63.1458 15.347 63.0695 14.9686 62.917 14.64C62.7645 14.3115 62.5474 14.0563 62.2658 13.8744C61.9842 13.6867 61.6586 13.5928 61.289 13.5928C60.9135 13.5928 60.585 13.6867 60.3034 13.8744C60.0218 14.0563 59.8018 14.3115 59.6434 14.64C59.4909 14.9686 59.4146 15.347 59.4146 15.7752C59.4146 16.2035 59.4909 16.579 59.6434 16.9016C59.8018 17.2243 60.0218 17.4766 60.3034 17.6584C60.585 17.8344 60.9135 17.9224 61.289 17.9224ZM68.6212 18.996C67.9994 18.996 67.4538 18.8611 66.9844 18.5912C66.521 18.3155 66.1631 17.9342 65.9108 17.4472C65.6586 16.9544 65.5324 16.3912 65.5324 15.7576C65.5324 15.1358 65.6556 14.5814 65.902 14.0944C66.1484 13.6016 66.5063 13.2174 66.9756 12.9416C67.445 12.66 68.0052 12.5192 68.6564 12.5192C69.0495 12.5192 69.3986 12.575 69.7036 12.6864C70.0146 12.792 70.2786 12.9358 70.4956 13.1176C70.7127 13.2995 70.918 13.5224 71.1116 13.7864L70.2492 14.4904C70.038 14.2323 69.8034 14.0299 69.5452 13.8832C69.2871 13.7366 68.982 13.6632 68.63 13.6632C68.2252 13.6632 67.8791 13.7571 67.5916 13.9448C67.31 14.1267 67.0959 14.376 66.9492 14.6928C66.8084 15.0096 66.738 15.3675 66.738 15.7664C66.738 16.183 66.8114 16.5467 66.958 16.8576C67.1047 17.1686 67.3188 17.412 67.6004 17.588C67.882 17.764 68.2223 17.852 68.6212 17.852C68.8676 17.852 69.0876 17.8168 69.2812 17.7464C69.4807 17.676 69.6538 17.5822 69.8004 17.4648C69.953 17.3416 70.1026 17.192 70.2492 17.016L71.1116 17.72C70.9298 17.9723 70.7215 18.1923 70.4868 18.38C70.2522 18.5678 69.9794 18.7174 69.6684 18.8288C69.3575 18.9403 69.0084 18.996 68.6212 18.996ZM74.6171 18.996C74.1829 18.996 73.7869 18.9315 73.4291 18.8024C73.0771 18.6675 72.7779 18.4915 72.5315 18.2744C72.2909 18.0574 72.0973 17.811 71.9507 17.5352L72.9099 16.8312C73.0389 17.0483 73.1856 17.2331 73.3499 17.3856C73.5141 17.5382 73.7019 17.6584 73.9131 17.7464C74.1301 17.8286 74.3648 17.8696 74.6171 17.8696C74.9867 17.8696 75.2859 17.8022 75.5147 17.6672C75.7493 17.5323 75.8667 17.3387 75.8667 17.0864C75.8667 16.928 75.8139 16.799 75.7083 16.6992C75.6085 16.5995 75.456 16.5174 75.2507 16.4528C75.0512 16.3883 74.7549 16.315 74.3619 16.2328C73.8749 16.1331 73.476 16.0158 73.1651 15.8808C72.8541 15.74 72.6077 15.5523 72.4259 15.3176C72.2499 15.0771 72.1619 14.7691 72.1619 14.3936C72.1619 14.0006 72.2616 13.6632 72.4611 13.3816C72.6664 13.1 72.9509 12.8859 73.3147 12.7392C73.6784 12.5926 74.0979 12.5192 74.5731 12.5192C74.9427 12.5192 75.2917 12.575 75.6203 12.6864C75.9488 12.792 76.2099 12.9387 76.4035 13.1264C76.5971 13.3083 76.7731 13.5254 76.9315 13.7776L76.1131 14.4904C75.8725 14.2147 75.6232 14.0006 75.3651 13.848C75.1128 13.6955 74.84 13.6192 74.5467 13.6192C74.2123 13.6192 73.9424 13.6808 73.7371 13.804C73.5376 13.9272 73.4379 14.0915 73.4379 14.2968C73.4379 14.4435 73.4848 14.5608 73.5787 14.6488C73.6725 14.7368 73.8133 14.8131 74.0011 14.8776C74.1888 14.9363 74.4616 15.0038 74.8195 15.08C75.3475 15.1915 75.7728 15.3176 76.0955 15.4584C76.424 15.5992 76.6792 15.7958 76.8611 16.048C77.0488 16.2944 77.1427 16.62 77.1427 17.0248C77.1427 17.4238 77.0341 17.7728 76.8171 18.072C76.6059 18.3654 76.3096 18.5942 75.9283 18.7584C75.5469 18.9168 75.1099 18.996 74.6171 18.996Z" fill="#ACB1B9"/>
<rect width="196.772" height="6.41648" transform="translate(0 27.5586)" fill="white"/>
<rect y="30.4104" width="196.772" height="0.712943" fill="#ECEDEF"/>
<rect width="196.772" height="28.6847" transform="translate(0 33.9751)" fill="white"/>
<g clip-path="url(#clip1_2148_8429)">
<path fill-rule="evenodd" clip-rule="evenodd" d="M22.4794 43.6214C22.6882 43.4126 22.6882 43.074 22.4794 42.8652C22.2705 42.6564 21.932 42.6564 21.7232 42.8652L21.1175 43.4709L20.9881 42.9675C20.9402 42.7813 20.7966 42.6351 20.6119 42.5845C20.4271 42.5339 20.2295 42.5866 20.094 42.7225L18.511 44.3119C18.3775 44.446 18.3244 44.641 18.3717 44.8247L18.6564 45.932L17.53 47.0584C17.3989 47.0116 17.2578 46.9862 17.1107 46.9862C16.4216 46.9862 15.863 47.5448 15.863 48.2338C15.863 48.9229 16.4216 49.4815 17.1107 49.4815C17.7997 49.4815 18.3583 48.9229 18.3583 48.2338C18.3583 48.0867 18.3329 47.9456 18.2861 47.8146L19.4108 46.6899L20.5142 46.9751C20.697 47.0223 20.8911 46.9691 21.0246 46.8351L22.6076 45.2457C22.7431 45.1097 22.7955 44.9112 22.745 44.7256C22.6945 44.5401 22.5488 44.3959 22.3633 44.348L21.8782 44.2226L22.4794 43.6214ZM20.3234 44.6664C20.382 44.8543 20.5359 44.9886 20.7171 45.029L21.1918 45.1517L20.4853 45.8611L19.6874 45.6549L19.4813 44.8532L20.1882 44.1434L20.3138 44.6321C20.3167 44.6436 20.3198 44.6551 20.3234 44.6664Z" fill="#6A707C"/>
<path d="M12.4765 48.2338C12.4765 45.6745 14.5513 43.5997 17.1107 43.5997C17.3954 43.5997 17.6736 43.6253 17.9434 43.6742C18.234 43.7269 18.5122 43.534 18.5649 43.2435C18.6176 42.9529 18.4248 42.6746 18.1342 42.622C17.8018 42.5617 17.4596 42.5303 17.1107 42.5303C13.9607 42.5303 11.4071 45.0838 11.4071 48.2338C11.4071 51.3838 13.9607 53.9374 17.1107 53.9374C20.2606 53.9374 22.8142 51.3838 22.8142 48.2338C22.8142 47.9108 22.7873 47.5937 22.7355 47.2846C22.6867 46.9934 22.411 46.7969 22.1198 46.8457C21.8285 46.8945 21.632 47.1702 21.6808 47.4614C21.7229 47.7123 21.7448 47.9703 21.7448 48.2338C21.7448 50.7932 19.67 52.8679 17.1107 52.8679C14.5513 52.8679 12.4765 50.7932 12.4765 48.2338Z" fill="#6A707C"/>
<path d="M14.6154 48.2338C14.6154 46.8557 15.7326 45.7385 17.1107 45.7385C17.406 45.7385 17.6454 45.4991 17.6454 45.2038C17.6454 44.9085 17.406 44.6691 17.1107 44.6691C15.1419 44.6691 13.546 46.2651 13.546 48.2338C13.546 50.2025 15.1419 51.7985 17.1107 51.7985C19.0794 51.7985 20.6754 50.2025 20.6754 48.2338C20.6754 47.9385 20.436 47.6991 20.1407 47.6991C19.8454 47.6991 19.606 47.9385 19.606 48.2338C19.606 49.6119 18.4888 50.7291 17.1107 50.7291C15.7326 50.7291 14.6154 49.6119 14.6154 48.2338Z" fill="#6A707C"/>
</g>
<path d="M35.086 51.9659C34.4373 51.9659 33.8719 51.8207 33.39 51.5303C32.9142 51.2399 32.5465 50.8383 32.287 50.3254C32.0275 49.8126 31.8978 49.2287 31.8978 48.5737C31.8978 47.9188 32.0275 47.3318 32.287 46.8128C32.5465 46.2937 32.9142 45.8859 33.39 45.5894C33.8719 45.2928 34.4373 45.1445 35.086 45.1445C35.7286 45.1445 36.2878 45.2928 36.7636 45.5894C37.2455 45.8798 37.6132 46.2876 37.8665 46.8128C38.1199 47.3318 38.2465 47.9188 38.2465 48.5737C38.2465 49.2287 38.1199 49.8126 37.8665 50.3254C37.6132 50.8383 37.2486 51.2399 36.7729 51.5303C36.2971 51.8207 35.7348 51.9659 35.086 51.9659ZM35.0768 51.104C35.5278 51.104 35.9202 50.9989 36.2538 50.7889C36.5875 50.5726 36.8408 50.2729 37.0138 49.8898C37.193 49.5067 37.2826 49.068 37.2826 48.5737C37.2826 48.0733 37.193 47.6315 37.0138 47.2484C36.8347 46.8591 36.5782 46.5563 36.2446 46.3401C35.9171 46.1177 35.5278 46.0064 35.0768 46.0064C34.6319 46.0064 34.2426 46.1177 33.909 46.3401C33.5753 46.5563 33.3158 46.8591 33.1304 47.2484C32.9513 47.6315 32.8617 48.0733 32.8617 48.5737C32.8617 49.068 32.9513 49.5067 33.1304 49.8898C33.3096 50.2729 33.5661 50.5726 33.8997 50.7889C34.2334 50.9989 34.6257 51.104 35.0768 51.104ZM39.6815 51.8176V45.2928H40.6176V48.3698L43.7503 45.2928H44.9644L42.1469 48.064L44.9644 51.8176H43.7966L41.4795 48.7313L40.6176 49.5654V51.8176H39.6815ZM46.1439 51.8176V45.2928H49.2025C49.8389 45.2928 50.3332 45.4596 50.6854 45.7933C51.0376 46.1207 51.2137 46.5625 51.2137 47.1186C51.2137 47.3967 51.1612 47.6469 51.0561 47.8694C50.9573 48.0918 50.8151 48.2772 50.6298 48.4254C50.4444 48.5737 50.2282 48.6788 49.981 48.7406C50.1911 48.8271 50.3641 48.9599 50.5 49.1391C50.636 49.3121 50.7503 49.5562 50.8429 49.8713L51.4083 51.8176H50.3981L49.8976 50.1215C49.8296 49.8744 49.7493 49.6797 49.6566 49.5376C49.5639 49.3955 49.4373 49.2905 49.2766 49.2225C49.116 49.1484 48.909 49.1113 48.6556 49.1113H47.08V51.8176H46.1439ZM49.1005 48.3235C49.4774 48.3235 49.7647 48.2308 49.9625 48.0454C50.1602 47.8539 50.259 47.5759 50.259 47.2113C50.259 46.8468 50.1602 46.5718 49.9625 46.3864C49.7647 46.2011 49.4774 46.1084 49.1005 46.1084H47.08V48.3235H49.1005ZM54.5126 51.8176V50.9742L57.0799 48.7962C57.3147 48.5985 57.5001 48.4285 57.636 48.2864C57.7781 48.1381 57.8955 47.9713 57.9882 47.7859C58.0871 47.6006 58.1365 47.3812 58.1365 47.1279C58.1365 46.8066 58.0191 46.5378 57.7843 46.3216C57.5495 46.1053 57.2282 45.9972 56.8204 45.9972C56.4435 45.9972 56.1284 46.0929 55.875 46.2845C55.6217 46.476 55.4178 46.717 55.2633 47.0074L54.5033 46.5347C54.6269 46.2937 54.7876 46.0682 54.9853 45.8581C55.1892 45.6481 55.4456 45.4781 55.7545 45.3484C56.0635 45.2125 56.4188 45.1445 56.8204 45.1445C57.2714 45.1445 57.6669 45.231 58.0067 45.404C58.3527 45.5708 58.6184 45.8087 58.8038 46.1177C58.9953 46.4204 59.0911 46.7695 59.0911 47.165C59.0911 47.4986 59.0201 47.8045 58.8779 48.0825C58.7358 48.3606 58.5628 48.6046 58.3589 48.8147C58.1612 49.0248 57.9048 49.2596 57.5897 49.5191L55.8936 50.9742H59.1189V51.8176H54.5126ZM62.7599 51.9659C62.1914 51.9659 61.7126 51.8207 61.3233 51.5303C60.934 51.2399 60.6406 50.8383 60.4428 50.3254C60.2451 49.8126 60.1462 49.2163 60.1462 48.5367C60.1462 47.8694 60.2451 47.2824 60.4428 46.7757C60.6406 46.2629 60.934 45.8643 61.3233 45.5801C61.7188 45.2897 62.1945 45.1445 62.7506 45.1445C63.3067 45.1445 63.7763 45.2897 64.1594 45.5801C64.5487 45.8643 64.8422 46.2629 65.0399 46.7757C65.2376 47.2824 65.3365 47.8694 65.3365 48.5367C65.3365 49.2163 65.2376 49.8157 65.0399 50.3347C64.8483 50.8475 64.5579 51.2492 64.1687 51.5396C63.7856 51.8238 63.316 51.9659 62.7599 51.9659ZM62.7599 51.104C63.2727 51.104 63.6713 50.8815 63.9555 50.4367C64.2397 49.9856 64.3818 49.3523 64.3818 48.5367C64.3818 47.7396 64.2366 47.1186 63.9462 46.6737C63.662 46.2289 63.2635 46.0064 62.7506 46.0064C62.2316 46.0064 61.8269 46.2289 61.5365 46.6737C61.2461 47.1186 61.1009 47.7396 61.1009 48.5367C61.1009 49.3461 61.2461 49.9763 61.5365 50.4274C61.8269 50.8784 62.2347 51.104 62.7599 51.104ZM66.2518 51.8176V50.9742L68.8191 48.7962C69.0539 48.5985 69.2392 48.4285 69.3752 48.2864C69.5173 48.1381 69.6347 47.9713 69.7274 47.7859C69.8262 47.6006 69.8757 47.3812 69.8757 47.1279C69.8757 46.8066 69.7583 46.5378 69.5235 46.3216C69.2887 46.1053 68.9674 45.9972 68.5596 45.9972C68.1827 45.9972 67.8675 46.0929 67.6142 46.2845C67.3609 46.476 67.157 46.717 67.0025 47.0074L66.2425 46.5347C66.3661 46.2937 66.5267 46.0682 66.7245 45.8581C66.9284 45.6481 67.1848 45.4781 67.4937 45.3484C67.8027 45.2125 68.158 45.1445 68.5596 45.1445C69.0106 45.1445 69.4061 45.231 69.7459 45.404C70.0919 45.5708 70.3576 45.8087 70.543 46.1177C70.7345 46.4204 70.8303 46.7695 70.8303 47.165C70.8303 47.4986 70.7592 47.8045 70.6171 48.0825C70.475 48.3606 70.302 48.6046 70.0981 48.8147C69.9004 49.0248 69.644 49.2596 69.3288 49.5191L67.6328 50.9742H70.8581V51.8176H66.2518ZM71.7458 51.8176V50.9742L74.3131 48.7962C74.5479 48.5985 74.7332 48.4285 74.8692 48.2864C75.0113 48.1381 75.1287 47.9713 75.2213 47.7859C75.3202 47.6006 75.3696 47.3812 75.3696 47.1279C75.3696 46.8066 75.2522 46.5378 75.0174 46.3216C74.7827 46.1053 74.4614 45.9972 74.0535 45.9972C73.6766 45.9972 73.3615 46.0929 73.1082 46.2845C72.8549 46.476 72.651 46.717 72.4965 47.0074L71.7365 46.5347C71.8601 46.2937 72.0207 46.0682 72.2184 45.8581C72.4223 45.6481 72.6788 45.4781 72.9877 45.3484C73.2966 45.2125 73.6519 45.1445 74.0535 45.1445C74.5046 45.1445 74.9 45.231 75.2399 45.404C75.5859 45.5708 75.8516 45.8087 76.037 46.1177C76.2285 46.4204 76.3243 46.7695 76.3243 47.165C76.3243 47.4986 76.2532 47.8045 76.1111 48.0825C75.969 48.3606 75.796 48.6046 75.5921 48.8147C75.3944 49.0248 75.1379 49.2596 74.8228 49.5191L73.1267 50.9742H76.3521V51.8176H71.7458Z" fill="#3F434A"/>
<rect width="196.772" height="28.6847" transform="translate(0 62.6599)" fill="white"/>
<g clip-path="url(#clip2_2148_8429)">
<path fill-rule="evenodd" clip-rule="evenodd" d="M22.4794 72.3062C22.6882 72.0974 22.6882 71.7588 22.4794 71.55C22.2705 71.3412 21.932 71.3412 21.7232 71.55L21.1175 72.1557L20.9881 71.6523C20.9402 71.4661 20.7966 71.3199 20.6119 71.2693C20.4271 71.2187 20.2295 71.2714 20.094 71.4073L18.511 72.9967C18.3775 73.1308 18.3244 73.3259 18.3717 73.5095L18.6564 74.6168L17.53 75.7432C17.3989 75.6964 17.2578 75.671 17.1107 75.671C16.4216 75.671 15.863 76.2296 15.863 76.9186C15.863 77.6077 16.4216 78.1663 17.1107 78.1663C17.7997 78.1663 18.3583 77.6077 18.3583 76.9186C18.3583 76.7716 18.3329 76.6304 18.2861 76.4994L19.4108 75.3747L20.5142 75.6599C20.697 75.7071 20.8911 75.6539 21.0246 75.5199L22.6076 73.9305C22.7431 73.7945 22.7955 73.596 22.745 73.4104C22.6945 73.2249 22.5488 73.0807 22.3633 73.0328L21.8782 72.9074L22.4794 72.3062ZM20.3234 73.3513C20.382 73.5391 20.5359 73.6734 20.7171 73.7138L21.1918 73.8365L20.4853 74.5459L19.6874 74.3397L19.4813 73.538L20.1882 72.8282L20.3138 73.3169C20.3167 73.3285 20.3198 73.3399 20.3234 73.3513Z" fill="#6A707C"/>
<path d="M12.4765 76.9186C12.4765 74.3593 14.5513 72.2845 17.1107 72.2845C17.3954 72.2845 17.6736 72.3101 17.9434 72.359C18.234 72.4117 18.5122 72.2189 18.5649 71.9283C18.6176 71.6377 18.4248 71.3594 18.1342 71.3068C17.8018 71.2465 17.4596 71.2151 17.1107 71.2151C13.9607 71.2151 11.4071 73.7686 11.4071 76.9186C11.4071 80.0686 13.9607 82.6222 17.1107 82.6222C20.2606 82.6222 22.8142 80.0686 22.8142 76.9186C22.8142 76.5956 22.7873 76.2785 22.7355 75.9694C22.6867 75.6782 22.411 75.4817 22.1198 75.5305C21.8285 75.5793 21.632 75.855 21.6808 76.1462C21.7229 76.3971 21.7448 76.6551 21.7448 76.9186C21.7448 79.478 19.67 81.5528 17.1107 81.5528C14.5513 81.5528 12.4765 79.478 12.4765 76.9186Z" fill="#6A707C"/>
<path d="M14.6154 76.9186C14.6154 75.5405 15.7326 74.4233 17.1107 74.4233C17.406 74.4233 17.6454 74.1839 17.6454 73.8886C17.6454 73.5933 17.406 73.3539 17.1107 73.3539C15.1419 73.3539 13.546 74.9499 13.546 76.9186C13.546 78.8874 15.1419 80.4833 17.1107 80.4833C19.0794 80.4833 20.6754 78.8874 20.6754 76.9186C20.6754 76.6233 20.436 76.3839 20.1407 76.3839C19.8454 76.3839 19.606 76.6233 19.606 76.9186C19.606 78.2967 18.4888 79.4139 17.1107 79.4139C15.7326 79.4139 14.6154 78.2967 14.6154 76.9186Z" fill="#6A707C"/>
</g>
<path d="M35.086 80.6507C34.4373 80.6507 33.8719 80.5055 33.39 80.2151C32.9142 79.9247 32.5465 79.5231 32.287 79.0103C32.0275 78.4974 31.8978 77.9135 31.8978 77.2586C31.8978 76.6036 32.0275 76.0166 32.287 75.4976C32.5465 74.9786 32.9142 74.5708 33.39 74.2742C33.8719 73.9776 34.4373 73.8293 35.086 73.8293C35.7286 73.8293 36.2878 73.9776 36.7636 74.2742C37.2455 74.5646 37.6132 74.9724 37.8665 75.4976C38.1199 76.0166 38.2465 76.6036 38.2465 77.2586C38.2465 77.9135 38.1199 78.4974 37.8665 79.0103C37.6132 79.5231 37.2486 79.9247 36.7729 80.2151C36.2971 80.5055 35.7348 80.6507 35.086 80.6507ZM35.0768 79.7888C35.5278 79.7888 35.9202 79.6837 36.2538 79.4737C36.5875 79.2574 36.8408 78.9577 37.0138 78.5746C37.193 78.1916 37.2826 77.7529 37.2826 77.2586C37.2826 76.7581 37.193 76.3163 37.0138 75.9332C36.8347 75.5439 36.5782 75.2412 36.2446 75.0249C35.9171 74.8025 35.5278 74.6912 35.0768 74.6912C34.6319 74.6912 34.2426 74.8025 33.909 75.0249C33.5753 75.2412 33.3158 75.5439 33.1304 75.9332C32.9513 76.3163 32.8617 76.7581 32.8617 77.2586C32.8617 77.7529 32.9513 78.1916 33.1304 78.5746C33.3096 78.9577 33.5661 79.2574 33.8997 79.4737C34.2334 79.6837 34.6257 79.7888 35.0768 79.7888ZM39.6815 80.5024V73.9776H40.6176V77.0547L43.7503 73.9776H44.9644L42.1469 76.7488L44.9644 80.5024H43.7966L41.4795 77.4161L40.6176 78.2503V80.5024H39.6815ZM46.1439 80.5024V73.9776H49.2025C49.8389 73.9776 50.3332 74.1444 50.6854 74.4781C51.0376 74.8056 51.2137 75.2473 51.2137 75.8034C51.2137 76.0815 51.1612 76.3317 51.0561 76.5542C50.9573 76.7766 50.8151 76.962 50.6298 77.1103C50.4444 77.2586 50.2282 77.3636 49.981 77.4254C50.1911 77.5119 50.3641 77.6447 50.5 77.8239C50.636 77.9969 50.7503 78.241 50.8429 78.5561L51.4083 80.5024H50.3981L49.8976 78.8064C49.8296 78.5592 49.7493 78.3646 49.6566 78.2225C49.5639 78.0803 49.4373 77.9753 49.2766 77.9073C49.116 77.8332 48.909 77.7961 48.6556 77.7961H47.08V80.5024H46.1439ZM49.1005 77.0083C49.4774 77.0083 49.7647 76.9156 49.9625 76.7303C50.1602 76.5387 50.259 76.2607 50.259 75.8961C50.259 75.5316 50.1602 75.2566 49.9625 75.0712C49.7647 74.8859 49.4774 74.7932 49.1005 74.7932H47.08V77.0083H49.1005ZM54.5126 80.5024V79.659L57.0799 77.481C57.3147 77.2833 57.5001 77.1134 57.636 76.9712C57.7781 76.8229 57.8955 76.6561 57.9882 76.4708C58.0871 76.2854 58.1365 76.066 58.1365 75.8127C58.1365 75.4914 58.0191 75.2226 57.7843 75.0064C57.5495 74.7901 57.2282 74.682 56.8204 74.682C56.4435 74.682 56.1284 74.7778 55.875 74.9693C55.6217 75.1608 55.4178 75.4018 55.2633 75.6922L54.5033 75.2195C54.6269 74.9786 54.7876 74.753 54.9853 74.543C55.1892 74.3329 55.4456 74.163 55.7545 74.0332C56.0635 73.8973 56.4188 73.8293 56.8204 73.8293C57.2714 73.8293 57.6669 73.9158 58.0067 74.0888C58.3527 74.2556 58.6184 74.4935 58.8038 74.8025C58.9953 75.1052 59.0911 75.4543 59.0911 75.8498C59.0911 76.1834 59.0201 76.4893 58.8779 76.7673C58.7358 77.0454 58.5628 77.2894 58.3589 77.4995C58.1612 77.7096 57.9048 77.9444 57.5897 78.2039L55.8936 79.659H59.1189V80.5024H54.5126ZM62.7599 80.6507C62.1914 80.6507 61.7126 80.5055 61.3233 80.2151C60.934 79.9247 60.6406 79.5231 60.4428 79.0103C60.2451 78.4974 60.1462 77.9012 60.1462 77.2215C60.1462 76.5542 60.2451 75.9672 60.4428 75.4605C60.6406 74.9477 60.934 74.5491 61.3233 74.2649C61.7188 73.9745 62.1945 73.8293 62.7506 73.8293C63.3067 73.8293 63.7763 73.9745 64.1594 74.2649C64.5487 74.5491 64.8422 74.9477 65.0399 75.4605C65.2376 75.9672 65.3365 76.5542 65.3365 77.2215C65.3365 77.9012 65.2376 78.5005 65.0399 79.0195C64.8483 79.5324 64.5579 79.934 64.1687 80.2244C63.7856 80.5086 63.316 80.6507 62.7599 80.6507ZM62.7599 79.7888C63.2727 79.7888 63.6713 79.5663 63.9555 79.1215C64.2397 78.6704 64.3818 78.0371 64.3818 77.2215C64.3818 76.4244 64.2366 75.8034 63.9462 75.3586C63.662 74.9137 63.2635 74.6912 62.7506 74.6912C62.2316 74.6912 61.8269 74.9137 61.5365 75.3586C61.2461 75.8034 61.1009 76.4244 61.1009 77.2215C61.1009 78.0309 61.2461 78.6611 61.5365 79.1122C61.8269 79.5633 62.2347 79.7888 62.7599 79.7888ZM66.2518 80.5024V79.659L68.8191 77.481C69.0539 77.2833 69.2392 77.1134 69.3752 76.9712C69.5173 76.8229 69.6347 76.6561 69.7274 76.4708C69.8262 76.2854 69.8757 76.066 69.8757 75.8127C69.8757 75.4914 69.7583 75.2226 69.5235 75.0064C69.2887 74.7901 68.9674 74.682 68.5596 74.682C68.1827 74.682 67.8675 74.7778 67.6142 74.9693C67.3609 75.1608 67.157 75.4018 67.0025 75.6922L66.2425 75.2195C66.3661 74.9786 66.5267 74.753 66.7245 74.543C66.9284 74.3329 67.1848 74.163 67.4937 74.0332C67.8027 73.8973 68.158 73.8293 68.5596 73.8293C69.0106 73.8293 69.4061 73.9158 69.7459 74.0888C70.0919 74.2556 70.3576 74.4935 70.543 74.8025C70.7345 75.1052 70.8303 75.4543 70.8303 75.8498C70.8303 76.1834 70.7592 76.4893 70.6171 76.7673C70.475 77.0454 70.302 77.2894 70.0981 77.4995C69.9004 77.7096 69.644 77.9444 69.3288 78.2039L67.6328 79.659H70.8581V80.5024H66.2518ZM73.1534 80.5024V75.099L71.6983 76.0537V75.0527L73.2925 73.9776H74.0895V80.5024H73.1534Z" fill="#3F434A"/>
<rect width="196.772" height="28.6847" transform="translate(0 91.3447)" fill="white"/>
<g clip-path="url(#clip3_2148_8429)">
<path fill-rule="evenodd" clip-rule="evenodd" d="M22.4794 100.991C22.6882 100.782 22.6882 100.444 22.4794 100.235C22.2705 100.026 21.932 100.026 21.7232 100.235L21.1175 100.84L20.9881 100.337C20.9402 100.151 20.7966 100.005 20.6119 99.9541C20.4271 99.9035 20.2295 99.9562 20.094 100.092L18.511 101.682C18.3775 101.816 18.3244 102.011 18.3717 102.194L18.6564 103.302L17.53 104.428C17.3989 104.381 17.2578 104.356 17.1107 104.356C16.4216 104.356 15.863 104.914 15.863 105.603C15.863 106.293 16.4216 106.851 17.1107 106.851C17.7997 106.851 18.3583 106.293 18.3583 105.603C18.3583 105.456 18.3329 105.315 18.2861 105.184L19.4108 104.06L20.5142 104.345C20.697 104.392 20.8911 104.339 21.0246 104.205L22.6076 102.615C22.7431 102.479 22.7955 102.281 22.745 102.095C22.6945 101.91 22.5488 101.766 22.3633 101.718L21.8782 101.592L22.4794 100.991ZM20.3234 102.036C20.382 102.224 20.5359 102.358 20.7171 102.399L21.1918 102.521L20.4853 103.231L19.6874 103.025L19.4813 102.223L20.1882 101.513L20.3138 102.002C20.3167 102.013 20.3198 102.025 20.3234 102.036Z" fill="#6A707C"/>
<path d="M12.4765 105.603C12.4765 103.044 14.5513 100.969 17.1107 100.969C17.3954 100.969 17.6736 100.995 17.9434 101.044C18.234 101.097 18.5122 100.904 18.5649 100.613C18.6176 100.323 18.4248 100.044 18.1342 99.9916C17.8018 99.9313 17.4596 99.8999 17.1107 99.8999C13.9607 99.8999 11.4071 102.453 11.4071 105.603C11.4071 108.753 13.9607 111.307 17.1107 111.307C20.2606 111.307 22.8142 108.753 22.8142 105.603C22.8142 105.28 22.7873 104.963 22.7355 104.654C22.6867 104.363 22.411 104.166 22.1198 104.215C21.8285 104.264 21.632 104.54 21.6808 104.831C21.7229 105.082 21.7448 105.34 21.7448 105.603C21.7448 108.163 19.67 110.238 17.1107 110.238C14.5513 110.238 12.4765 108.163 12.4765 105.603Z" fill="#6A707C"/>
<path d="M14.6154 105.603C14.6154 104.225 15.7326 103.108 17.1107 103.108C17.406 103.108 17.6454 102.869 17.6454 102.573C17.6454 102.278 17.406 102.039 17.1107 102.039C15.1419 102.039 13.546 103.635 13.546 105.603C13.546 107.572 15.1419 109.168 17.1107 109.168C19.0794 109.168 20.6754 107.572 20.6754 105.603C20.6754 105.308 20.436 105.069 20.1407 105.069C19.8454 105.069 19.606 105.308 19.606 105.603C19.606 106.982 18.4888 108.099 17.1107 108.099C15.7326 108.099 14.6154 106.982 14.6154 105.603Z" fill="#6A707C"/>
</g>
<path d="M35.086 109.336C34.4373 109.336 33.8719 109.19 33.39 108.9C32.9142 108.61 32.5465 108.208 32.287 107.695C32.0275 107.182 31.8978 106.598 31.8978 105.943C31.8978 105.288 32.0275 104.701 32.287 104.182C32.5465 103.663 32.9142 103.256 33.39 102.959C33.8719 102.662 34.4373 102.514 35.086 102.514C35.7286 102.514 36.2878 102.662 36.7636 102.959C37.2455 103.249 37.6132 103.657 37.8665 104.182C38.1199 104.701 38.2465 105.288 38.2465 105.943C38.2465 106.598 38.1199 107.182 37.8665 107.695C37.6132 108.208 37.2486 108.61 36.7729 108.9C36.2971 109.19 35.7348 109.336 35.086 109.336ZM35.0768 108.474C35.5278 108.474 35.9202 108.369 36.2538 108.158C36.5875 107.942 36.8408 107.643 37.0138 107.259C37.193 106.876 37.2826 106.438 37.2826 105.943C37.2826 105.443 37.193 105.001 37.0138 104.618C36.8347 104.229 36.5782 103.926 36.2446 103.71C35.9171 103.487 35.5278 103.376 35.0768 103.376C34.6319 103.376 34.2426 103.487 33.909 103.71C33.5753 103.926 33.3158 104.229 33.1304 104.618C32.9513 105.001 32.8617 105.443 32.8617 105.943C32.8617 106.438 32.9513 106.876 33.1304 107.259C33.3096 107.643 33.5661 107.942 33.8997 108.158C34.2334 108.369 34.6257 108.474 35.0768 108.474ZM39.6815 109.187V102.662H40.6176V105.739L43.7503 102.662H44.9644L42.1469 105.434L44.9644 109.187H43.7966L41.4795 106.101L40.6176 106.935V109.187H39.6815ZM46.1439 109.187V102.662H49.2025C49.8389 102.662 50.3332 102.829 50.6854 103.163C51.0376 103.49 51.2137 103.932 51.2137 104.488C51.2137 104.766 51.1612 105.017 51.0561 105.239C50.9573 105.461 50.8151 105.647 50.6298 105.795C50.4444 105.943 50.2282 106.048 49.981 106.11C50.1911 106.197 50.3641 106.33 50.5 106.509C50.636 106.682 50.7503 106.926 50.8429 107.241L51.4083 109.187H50.3981L49.8976 107.491C49.8296 107.244 49.7493 107.049 49.6566 106.907C49.5639 106.765 49.4373 106.66 49.2766 106.592C49.116 106.518 48.909 106.481 48.6556 106.481H47.08V109.187H46.1439ZM49.1005 105.693C49.4774 105.693 49.7647 105.6 49.9625 105.415C50.1602 105.224 50.259 104.945 50.259 104.581C50.259 104.216 50.1602 103.941 49.9625 103.756C49.7647 103.571 49.4774 103.478 49.1005 103.478H47.08V105.693H49.1005ZM54.5126 109.187V108.344L57.0799 106.166C57.3147 105.968 57.5001 105.798 57.636 105.656C57.7781 105.508 57.8955 105.341 57.9882 105.156C58.0871 104.97 58.1365 104.751 58.1365 104.498C58.1365 104.176 58.0191 103.907 57.7843 103.691C57.5495 103.475 57.2282 103.367 56.8204 103.367C56.4435 103.367 56.1284 103.463 55.875 103.654C55.6217 103.846 55.4178 104.087 55.2633 104.377L54.5033 103.904C54.6269 103.663 54.7876 103.438 54.9853 103.228C55.1892 103.018 55.4456 102.848 55.7545 102.718C56.0635 102.582 56.4188 102.514 56.8204 102.514C57.2714 102.514 57.6669 102.601 58.0067 102.774C58.3527 102.94 58.6184 103.178 58.8038 103.487C58.9953 103.79 59.0911 104.139 59.0911 104.535C59.0911 104.868 59.0201 105.174 58.8779 105.452C58.7358 105.73 58.5628 105.974 58.3589 106.184C58.1612 106.394 57.9048 106.629 57.5897 106.889L55.8936 108.344H59.1189V109.187H54.5126ZM62.7599 109.336C62.1914 109.336 61.7126 109.19 61.3233 108.9C60.934 108.61 60.6406 108.208 60.4428 107.695C60.2451 107.182 60.1462 106.586 60.1462 105.906C60.1462 105.239 60.2451 104.652 60.4428 104.145C60.6406 103.632 60.934 103.234 61.3233 102.95C61.7188 102.659 62.1945 102.514 62.7506 102.514C63.3067 102.514 63.7763 102.659 64.1594 102.95C64.5487 103.234 64.8422 103.632 65.0399 104.145C65.2376 104.652 65.3365 105.239 65.3365 105.906C65.3365 106.586 65.2376 107.185 65.0399 107.704C64.8483 108.217 64.5579 108.619 64.1687 108.909C63.7856 109.193 63.316 109.336 62.7599 109.336ZM62.7599 108.474C63.2727 108.474 63.6713 108.251 63.9555 107.806C64.2397 107.355 64.3818 106.722 64.3818 105.906C64.3818 105.109 64.2366 104.488 63.9462 104.043C63.662 103.598 63.2635 103.376 62.7506 103.376C62.2316 103.376 61.8269 103.598 61.5365 104.043C61.2461 104.488 61.1009 105.109 61.1009 105.906C61.1009 106.716 61.2461 107.346 61.5365 107.797C61.8269 108.248 62.2347 108.474 62.7599 108.474ZM66.2518 109.187V108.344L68.8191 106.166C69.0539 105.968 69.2392 105.798 69.3752 105.656C69.5173 105.508 69.6347 105.341 69.7274 105.156C69.8262 104.97 69.8757 104.751 69.8757 104.498C69.8757 104.176 69.7583 103.907 69.5235 103.691C69.2887 103.475 68.9674 103.367 68.5596 103.367C68.1827 103.367 67.8675 103.463 67.6142 103.654C67.3609 103.846 67.157 104.087 67.0025 104.377L66.2425 103.904C66.3661 103.663 66.5267 103.438 66.7245 103.228C66.9284 103.018 67.1848 102.848 67.4937 102.718C67.8027 102.582 68.158 102.514 68.5596 102.514C69.0106 102.514 69.4061 102.601 69.7459 102.774C70.0919 102.94 70.3576 103.178 70.543 103.487C70.7345 103.79 70.8303 104.139 70.8303 104.535C70.8303 104.868 70.7592 105.174 70.6171 105.452C70.475 105.73 70.302 105.974 70.0981 106.184C69.9004 106.394 69.644 106.629 69.3288 106.889L67.6328 108.344H70.8581V109.187H66.2518ZM74.4991 109.336C73.9306 109.336 73.4518 109.19 73.0625 108.9C72.6732 108.61 72.3797 108.208 72.182 107.695C71.9843 107.182 71.8854 106.586 71.8854 105.906C71.8854 105.239 71.9843 104.652 72.182 104.145C72.3797 103.632 72.6732 103.234 73.0625 102.95C73.4579 102.659 73.9337 102.514 74.4898 102.514C75.0459 102.514 75.5155 102.659 75.8986 102.95C76.2878 103.234 76.5813 103.632 76.7791 104.145C76.9768 104.652 77.0757 105.239 77.0757 105.906C77.0757 106.586 76.9768 107.185 76.7791 107.704C76.5875 108.217 76.2971 108.619 75.9079 108.909C75.5248 109.193 75.0552 109.336 74.4991 109.336ZM74.4991 108.474C75.0119 108.474 75.4105 108.251 75.6947 107.806C75.9789 107.355 76.121 106.722 76.121 105.906C76.121 105.109 75.9758 104.488 75.6854 104.043C75.4012 103.598 75.0027 103.376 74.4898 103.376C73.9708 103.376 73.5661 103.598 73.2757 104.043C72.9853 104.488 72.8401 105.109 72.8401 105.906C72.8401 106.716 72.9853 107.346 73.2757 107.797C73.5661 108.248 73.9739 108.474 74.4991 108.474Z" fill="#3F434A"/>
</g>
<defs>
<clipPath id="clip0_2148_8429">
<rect width="196.772" height="122.581" fill="white" transform="translate(0 0.299805)"/>
</clipPath>
<clipPath id="clip1_2148_8429">
<rect width="11.4071" height="11.4071" fill="white" transform="translate(11.4071 42.5305)"/>
</clipPath>
<clipPath id="clip2_2148_8429">
<rect width="11.4071" height="11.4071" fill="white" transform="translate(11.4071 71.2153)"/>
</clipPath>
<clipPath id="clip3_2148_8429">
<rect width="11.4071" height="11.4071" fill="white" transform="translate(11.4071 99.9001)"/>
</clipPath>
</defs>
</svg>
