<svg width="192" height="32" viewBox="0 0 192 32" fill="none" xmlns="http://www.w3.org/2000/svg">
<rect width="192" height="32" fill="white"/>
<g clip-path="url(#clip0_2148_8291)">
<path d="M21.75 16C21.75 18.0711 20.0711 19.75 18 19.75V12.25C20.0711 12.25 21.75 13.9289 21.75 16Z" fill="#6A707C"/>
<path fill-rule="evenodd" clip-rule="evenodd" d="M24 16C24 19.3137 21.3137 22 18 22C14.6863 22 12 19.3137 12 16C12 12.6863 14.6863 10 18 10C21.3137 10 24 12.6863 24 16ZM22.875 16C22.875 18.6924 20.6924 20.875 18 20.875C15.3076 20.875 13.125 18.6924 13.125 16C13.125 13.3076 15.3076 11.125 18 11.125C20.6924 11.125 22.875 13.3076 22.875 16Z" fill="#6A707C"/>
</g>
<path d="M33.274 21V11.848H37.564C38.4567 11.848 39.15 12.082 39.644 12.55C40.138 13.0093 40.385 13.629 40.385 14.409C40.385 14.799 40.3113 15.15 40.164 15.462C40.0253 15.774 39.826 16.034 39.566 16.242C39.306 16.45 39.0027 16.5973 38.656 16.684C38.9507 16.8053 39.1933 16.9917 39.384 17.243C39.5747 17.4857 39.735 17.828 39.865 18.27L40.658 21H39.241L38.539 18.621C38.4437 18.2743 38.331 18.0013 38.201 17.802C38.071 17.6027 37.8933 17.4553 37.668 17.36C37.4427 17.256 37.1523 17.204 36.797 17.204H34.587V21H33.274ZM37.421 16.099C37.9497 16.099 38.3527 15.969 38.63 15.709C38.9073 15.4403 39.046 15.0503 39.046 14.539C39.046 14.0277 38.9073 13.642 38.63 13.382C38.3527 13.122 37.9497 12.992 37.421 12.992H34.587V16.099H37.421ZM44.9128 21.208C44.2541 21.208 43.6734 21.0607 43.1708 20.766C42.6768 20.4627 42.2954 20.0467 42.0268 19.518C41.7668 18.9807 41.6368 18.374 41.6368 17.698C41.6368 17.0393 41.7668 16.4457 42.0268 15.917C42.2868 15.3883 42.6638 14.9723 43.1578 14.669C43.6518 14.3657 44.2281 14.214 44.8868 14.214C45.5194 14.214 46.0611 14.357 46.5118 14.643C46.9624 14.929 47.3048 15.332 47.5388 15.852C47.7728 16.3633 47.8898 16.9657 47.8898 17.659C47.8898 17.7803 47.8854 17.8887 47.8768 17.984H42.8848C42.9281 18.6947 43.1274 19.232 43.4828 19.596C43.8468 19.9513 44.3364 20.129 44.9518 20.129C45.3938 20.129 45.7708 20.038 46.0828 19.856C46.3948 19.6653 46.6808 19.4053 46.9408 19.076L47.7468 19.778C47.4001 20.2373 46.9928 20.5927 46.5248 20.844C46.0568 21.0867 45.5194 21.208 44.9128 21.208ZM46.6288 17.074C46.6028 16.502 46.4338 16.06 46.1218 15.748C45.8098 15.436 45.3981 15.28 44.8868 15.28C44.3494 15.28 43.9074 15.436 43.5608 15.748C43.2228 16.06 43.0104 16.502 42.9238 17.074H46.6288ZM51.1562 21.156C50.6969 21.156 50.3025 21.0737 49.9732 20.909C49.6525 20.7443 49.4099 20.519 49.2452 20.233C49.0805 19.947 48.9982 19.6263 48.9982 19.271C48.9982 18.6903 49.1975 18.231 49.5962 17.893C50.0035 17.555 50.5972 17.3253 51.3772 17.204L52.7032 17.009C52.9372 16.9743 53.0975 16.918 53.1842 16.84C53.2709 16.7533 53.3142 16.632 53.3142 16.476C53.3142 16.138 53.1885 15.8607 52.9372 15.644C52.6859 15.4187 52.3392 15.306 51.8972 15.306C51.5159 15.306 51.1865 15.397 50.9092 15.579C50.6319 15.761 50.3805 16.021 50.1552 16.359L49.1672 15.8C49.3579 15.4533 49.5875 15.163 49.8562 14.929C50.1335 14.695 50.4412 14.5173 50.7792 14.396C51.1259 14.2747 51.5072 14.214 51.9232 14.214C52.4605 14.214 52.9285 14.3137 53.3272 14.513C53.7259 14.7037 54.0335 14.9767 54.2502 15.332C54.4669 15.6787 54.5752 16.0817 54.5752 16.541V21H53.3142V19.804C53.1062 20.2287 52.8115 20.5623 52.4302 20.805C52.0489 21.039 51.6242 21.156 51.1562 21.156ZM51.4812 20.129C51.8452 20.129 52.1659 20.038 52.4432 19.856C52.7205 19.6653 52.9329 19.4097 53.0802 19.089C53.2362 18.7597 53.3142 18.387 53.3142 17.971V17.659C53.2535 17.6937 53.1669 17.7283 53.0542 17.763C52.9415 17.789 52.8159 17.815 52.6772 17.841L51.7152 17.997C51.2645 18.0663 50.9092 18.192 50.6492 18.374C50.3979 18.5473 50.2722 18.803 50.2722 19.141C50.2722 19.4443 50.3805 19.687 50.5972 19.869C50.8139 20.0423 51.1085 20.129 51.4812 20.129ZM59.0879 21.208C58.4899 21.208 57.9613 21.0607 57.5019 20.766C57.0426 20.4627 56.6829 20.0467 56.4229 19.518C56.1716 18.9893 56.0459 18.387 56.0459 17.711C56.0459 17.035 56.1716 16.4327 56.4229 15.904C56.6829 15.3753 57.0426 14.9637 57.5019 14.669C57.9613 14.3657 58.4899 14.214 59.0879 14.214C59.5386 14.214 59.9503 14.3137 60.3229 14.513C60.6956 14.7123 61.0119 14.9897 61.2719 15.345V11.575H62.5459V21H61.2719V20.077C61.0119 20.4323 60.6956 20.7097 60.3229 20.909C59.9503 21.1083 59.5386 21.208 59.0879 21.208ZM59.3219 20.103C59.7119 20.103 60.0543 20.0077 60.3489 19.817C60.6436 19.6177 60.8689 19.3403 61.0249 18.985C61.1896 18.621 61.2719 18.1963 61.2719 17.711C61.2719 16.9743 61.0943 16.3937 60.7389 15.969C60.3923 15.5357 59.9199 15.319 59.3219 15.319C58.7239 15.319 58.2473 15.5357 57.8919 15.969C57.5366 16.3937 57.3589 16.9743 57.3589 17.711C57.3589 18.1963 57.4369 18.621 57.5929 18.985C57.7576 19.3403 57.9873 19.6177 58.2819 19.817C58.5853 20.0077 58.9319 20.103 59.3219 20.103ZM71.2064 21.208C70.7557 21.208 70.3397 21.1083 69.9584 20.909C69.5857 20.7097 69.2737 20.4323 69.0224 20.077V21H67.7484V11.575H69.0224V15.345C69.2737 14.9897 69.5857 14.7123 69.9584 14.513C70.3397 14.3137 70.7557 14.214 71.2064 14.214C71.7957 14.214 72.32 14.3657 72.7794 14.669C73.2474 14.9637 73.607 15.3753 73.8584 15.904C74.1184 16.4327 74.2484 17.035 74.2484 17.711C74.2484 18.387 74.1184 18.9893 73.8584 19.518C73.607 20.0467 73.2474 20.4627 72.7794 20.766C72.32 21.0607 71.7957 21.208 71.2064 21.208ZM70.9594 20.103C71.358 20.103 71.7047 20.0077 71.9994 19.817C72.294 19.6177 72.5194 19.3403 72.6754 18.985C72.84 18.621 72.9224 18.1963 72.9224 17.711C72.9224 16.9743 72.7447 16.3937 72.3894 15.969C72.0427 15.5357 71.566 15.319 70.9594 15.319C70.3614 15.319 69.889 15.5357 69.5424 15.969C69.1957 16.3937 69.0224 16.9743 69.0224 17.711C69.0224 18.1963 69.1004 18.621 69.2564 18.985C69.421 19.3403 69.6464 19.6177 69.9324 19.817C70.227 20.0077 70.5694 20.103 70.9594 20.103ZM75.6959 23.47V22.326H76.1639C76.5106 22.326 76.7749 22.2653 76.9569 22.144C77.1389 22.0227 77.2863 21.819 77.3989 21.533L77.6199 20.987L74.9289 14.422H76.2549L78.2569 19.466L80.2459 14.422H81.5719L78.5429 21.832C78.3089 22.4127 78.0013 22.8287 77.6199 23.08C77.2473 23.34 76.7619 23.47 76.1639 23.47H75.6959ZM88.8246 21.208C88.3306 21.208 87.8756 21.1343 87.4596 20.987C87.0523 20.831 86.697 20.623 86.3936 20.363C86.0903 20.103 85.8346 19.8083 85.6266 19.479L86.6276 18.712C86.8876 19.1107 87.204 19.4227 87.5766 19.648C87.9493 19.8647 88.374 19.973 88.8506 19.973C89.5093 19.973 90.025 19.7997 90.3976 19.453C90.779 19.0977 90.9696 18.621 90.9696 18.023C90.9696 17.4423 90.7876 16.983 90.4236 16.645C90.0683 16.2983 89.583 16.125 88.9676 16.125C88.4823 16.125 88.0793 16.216 87.7586 16.398C87.4466 16.58 87.1996 16.7793 87.0176 16.996L85.8996 16.645L86.4846 11.848H91.8796V13.018H87.6416L87.3296 15.566C87.581 15.3927 87.8626 15.254 88.1746 15.15C88.4953 15.0373 88.8506 14.981 89.2406 14.981C89.8646 14.981 90.4063 15.111 90.8656 15.371C91.3336 15.6223 91.6933 15.9777 91.9446 16.437C92.196 16.8963 92.3216 17.4207 92.3216 18.01C92.3216 18.634 92.1786 19.1887 91.8926 19.674C91.6153 20.1593 91.2123 20.5363 90.6836 20.805C90.1636 21.0737 89.544 21.208 88.8246 21.208ZM95.305 21V13.421L93.264 14.76V13.356L95.5 11.848H96.618V21H95.305ZM99.5019 21L104.858 11.848H105.924L100.568 21H99.5019ZM105.014 21.091C104.667 21.091 104.347 21.0087 104.052 20.844C103.757 20.6707 103.523 20.4367 103.35 20.142C103.185 19.8473 103.103 19.5267 103.103 19.18C103.103 18.8333 103.185 18.517 103.35 18.231C103.523 17.9363 103.757 17.7067 104.052 17.542C104.347 17.3687 104.667 17.282 105.014 17.282C105.361 17.282 105.681 17.3687 105.976 17.542C106.271 17.7067 106.5 17.9363 106.665 18.231C106.838 18.517 106.925 18.8333 106.925 19.18C106.925 19.5267 106.838 19.8473 106.665 20.142C106.5 20.4367 106.271 20.6707 105.976 20.844C105.681 21.0087 105.361 21.091 105.014 21.091ZM105.014 20.194C105.283 20.194 105.512 20.0943 105.703 19.895C105.902 19.6957 106.002 19.4573 106.002 19.18C106.002 18.9027 105.902 18.6687 105.703 18.478C105.512 18.2787 105.283 18.179 105.014 18.179C104.737 18.179 104.503 18.2787 104.312 18.478C104.121 18.6687 104.026 18.9027 104.026 19.18C104.026 19.4573 104.121 19.6957 104.312 19.895C104.503 20.0943 104.737 20.194 105.014 20.194ZM100.438 15.618C100.091 15.618 99.7706 15.5357 99.4759 15.371C99.1812 15.1977 98.9472 14.9637 98.7739 14.669C98.6092 14.3743 98.5269 14.0537 98.5269 13.707C98.5269 13.3603 98.6092 13.044 98.7739 12.758C98.9472 12.4633 99.1812 12.2337 99.4759 12.069C99.7706 11.8957 100.091 11.809 100.438 11.809C100.785 11.809 101.105 11.8957 101.4 12.069C101.695 12.2337 101.924 12.4633 102.089 12.758C102.262 13.044 102.349 13.3603 102.349 13.707C102.349 14.0537 102.262 14.3743 102.089 14.669C101.924 14.9637 101.695 15.1977 101.4 15.371C101.105 15.5357 100.785 15.618 100.438 15.618ZM100.438 14.721C100.707 14.721 100.936 14.6213 101.127 14.422C101.326 14.2227 101.426 13.9843 101.426 13.707C101.426 13.4297 101.326 13.1957 101.127 13.005C100.936 12.8057 100.707 12.706 100.438 12.706C100.161 12.706 99.9266 12.8057 99.7359 13.005C99.5452 13.1957 99.4499 13.4297 99.4499 13.707C99.4499 13.9843 99.5452 14.2227 99.7359 14.422C99.9266 14.6213 100.161 14.721 100.438 14.721ZM114.648 21.208C114.007 21.208 113.439 21.0607 112.945 20.766C112.451 20.4713 112.065 20.0597 111.788 19.531C111.511 19.0023 111.372 18.3957 111.372 17.711C111.372 17.035 111.511 16.4327 111.788 15.904C112.065 15.3667 112.451 14.9507 112.945 14.656C113.439 14.3613 114.007 14.214 114.648 14.214C115.281 14.214 115.844 14.3613 116.338 14.656C116.832 14.9507 117.213 15.3667 117.482 15.904C117.759 16.4327 117.898 17.035 117.898 17.711C117.898 18.3957 117.759 19.0023 117.482 19.531C117.213 20.0597 116.832 20.4713 116.338 20.766C115.844 21.0607 115.281 21.208 114.648 21.208ZM114.648 20.103C115.038 20.103 115.376 20.0077 115.662 19.817C115.957 19.6263 116.182 19.3533 116.338 18.998C116.494 18.634 116.572 18.205 116.572 17.711C116.572 17.217 116.494 16.7923 116.338 16.437C116.191 16.073 115.97 15.7957 115.675 15.605C115.389 15.4143 115.047 15.319 114.648 15.319C114.241 15.319 113.89 15.4143 113.595 15.605C113.309 15.7957 113.084 16.073 112.919 16.437C112.763 16.7923 112.685 17.217 112.685 17.711C112.685 18.205 112.763 18.6297 112.919 18.985C113.084 19.3403 113.313 19.6177 113.608 19.817C113.903 20.0077 114.249 20.103 114.648 20.103ZM119.898 21V15.488H118.676V14.422H119.898V13.525C119.898 12.9183 120.067 12.4287 120.405 12.056C120.743 11.6833 121.255 11.497 121.939 11.497C122.165 11.497 122.403 11.523 122.654 11.575V12.641C122.507 12.615 122.338 12.602 122.147 12.602C121.827 12.602 121.588 12.6843 121.432 12.849C121.276 13.0137 121.198 13.2563 121.198 13.577V14.422H122.654V15.488H121.198V21H119.898ZM129.205 21.117C128.555 21.117 128.083 20.9653 127.788 20.662C127.502 20.35 127.359 19.9123 127.359 19.349V15.488H126.306V14.422H127.359V12.732H128.646V14.422H130.063V15.488H128.646V19.284C128.646 19.544 128.716 19.7303 128.854 19.843C129.002 19.9557 129.223 20.012 129.517 20.012C129.656 20.012 129.834 19.999 130.05 19.973V21.013C129.756 21.0823 129.474 21.117 129.205 21.117ZM131.479 21V11.575H132.753V15.254C132.978 14.9247 133.264 14.669 133.611 14.487C133.966 14.305 134.369 14.214 134.82 14.214C135.565 14.214 136.146 14.4567 136.562 14.942C136.987 15.4187 137.199 16.073 137.199 16.905V21H135.912V17.035C135.912 16.4717 135.791 16.047 135.548 15.761C135.305 15.4663 134.941 15.319 134.456 15.319C134.118 15.319 133.819 15.4057 133.559 15.579C133.308 15.7437 133.108 15.9863 132.961 16.307C132.822 16.619 132.753 16.9873 132.753 17.412V21H131.479ZM141.943 21.208C141.284 21.208 140.704 21.0607 140.201 20.766C139.707 20.4627 139.326 20.0467 139.057 19.518C138.797 18.9807 138.667 18.374 138.667 17.698C138.667 17.0393 138.797 16.4457 139.057 15.917C139.317 15.3883 139.694 14.9723 140.188 14.669C140.682 14.3657 141.258 14.214 141.917 14.214C142.55 14.214 143.091 14.357 143.542 14.643C143.993 14.929 144.335 15.332 144.569 15.852C144.803 16.3633 144.92 16.9657 144.92 17.659C144.92 17.7803 144.916 17.8887 144.907 17.984H139.915C139.958 18.6947 140.158 19.232 140.513 19.596C140.877 19.9513 141.367 20.129 141.982 20.129C142.424 20.129 142.801 20.038 143.113 19.856C143.425 19.6653 143.711 19.4053 143.971 19.076L144.777 19.778C144.43 20.2373 144.023 20.5927 143.555 20.844C143.087 21.0867 142.55 21.208 141.943 21.208ZM143.659 17.074C143.633 16.502 143.464 16.06 143.152 15.748C142.84 15.436 142.428 15.28 141.917 15.28C141.38 15.28 140.938 15.436 140.591 15.748C140.253 16.06 140.041 16.502 139.954 17.074H143.659ZM151.803 21.117C151.153 21.117 150.681 20.9653 150.386 20.662C150.1 20.35 149.957 19.9123 149.957 19.349V15.488H148.904V14.422H149.957V12.732H151.244V14.422H152.661V15.488H151.244V19.284C151.244 19.544 151.313 19.7303 151.452 19.843C151.599 19.9557 151.82 20.012 152.115 20.012C152.254 20.012 152.431 19.999 152.648 19.973V21.013C152.353 21.0823 152.072 21.117 151.803 21.117ZM156.835 21.208C156.176 21.208 155.595 21.0607 155.093 20.766C154.599 20.4627 154.217 20.0467 153.949 19.518C153.689 18.9807 153.559 18.374 153.559 17.698C153.559 17.0393 153.689 16.4457 153.949 15.917C154.209 15.3883 154.586 14.9723 155.08 14.669C155.574 14.3657 156.15 14.214 156.809 14.214C157.441 14.214 157.983 14.357 158.434 14.643C158.884 14.929 159.227 15.332 159.461 15.852C159.695 16.3633 159.812 16.9657 159.812 17.659C159.812 17.7803 159.807 17.8887 159.799 17.984H154.807C154.85 18.6947 155.049 19.232 155.405 19.596C155.769 19.9513 156.258 20.129 156.874 20.129C157.316 20.129 157.693 20.038 158.005 19.856C158.317 19.6653 158.603 19.4053 158.863 19.076L159.669 19.778C159.322 20.2373 158.915 20.5927 158.447 20.844C157.979 21.0867 157.441 21.208 156.835 21.208ZM158.551 17.074C158.525 16.502 158.356 16.06 158.044 15.748C157.732 15.436 157.32 15.28 156.809 15.28C156.271 15.28 155.829 15.436 155.483 15.748C155.145 16.06 154.932 16.502 154.846 17.074H158.551ZM163.078 21.156C162.619 21.156 162.224 21.0737 161.895 20.909C161.574 20.7443 161.332 20.519 161.167 20.233C161.002 19.947 160.92 19.6263 160.92 19.271C160.92 18.6903 161.119 18.231 161.518 17.893C161.925 17.555 162.519 17.3253 163.299 17.204L164.625 17.009C164.859 16.9743 165.019 16.918 165.106 16.84C165.193 16.7533 165.236 16.632 165.236 16.476C165.236 16.138 165.11 15.8607 164.859 15.644C164.608 15.4187 164.261 15.306 163.819 15.306C163.438 15.306 163.108 15.397 162.831 15.579C162.554 15.761 162.302 16.021 162.077 16.359L161.089 15.8C161.28 15.4533 161.509 15.163 161.778 14.929C162.055 14.695 162.363 14.5173 162.701 14.396C163.048 14.2747 163.429 14.214 163.845 14.214C164.382 14.214 164.85 14.3137 165.249 14.513C165.648 14.7037 165.955 14.9767 166.172 15.332C166.389 15.6787 166.497 16.0817 166.497 16.541V21H165.236V19.804C165.028 20.2287 164.733 20.5623 164.352 20.805C163.971 21.039 163.546 21.156 163.078 21.156ZM163.403 20.129C163.767 20.129 164.088 20.038 164.365 19.856C164.642 19.6653 164.855 19.4097 165.002 19.089C165.158 18.7597 165.236 18.387 165.236 17.971V17.659C165.175 17.6937 165.089 17.7283 164.976 17.763C164.863 17.789 164.738 17.815 164.599 17.841L163.637 17.997C163.186 18.0663 162.831 18.192 162.571 18.374C162.32 18.5473 162.194 18.803 162.194 19.141C162.194 19.4443 162.302 19.687 162.519 19.869C162.736 20.0423 163.03 20.129 163.403 20.129ZM168.397 21V14.409H169.684V15.202C169.874 14.89 170.117 14.6473 170.412 14.474C170.715 14.3007 171.062 14.214 171.452 14.214C171.92 14.214 172.318 14.3137 172.648 14.513C172.977 14.7123 173.215 15.0027 173.363 15.384C173.562 15.02 173.826 14.734 174.156 14.526C174.494 14.318 174.884 14.214 175.326 14.214C175.984 14.214 176.496 14.4003 176.86 14.773C177.224 15.1457 177.406 15.696 177.406 16.424V21H176.119V16.671C176.119 16.2117 176.019 15.8737 175.82 15.657C175.62 15.4317 175.326 15.319 174.936 15.319C174.658 15.319 174.416 15.3883 174.208 15.527C174 15.6657 173.835 15.8737 173.714 16.151C173.601 16.4197 173.545 16.749 173.545 17.139V21H172.258V16.671C172.258 16.2203 172.158 15.8823 171.959 15.657C171.759 15.4317 171.469 15.319 171.088 15.319C170.81 15.319 170.563 15.3883 170.347 15.527C170.139 15.6657 169.974 15.8693 169.853 16.138C169.74 16.4067 169.684 16.736 169.684 17.126V21H168.397Z" fill="#3F434A"/>
<defs>
<clipPath id="clip0_2148_8291">
<rect width="12" height="12" fill="white" transform="translate(12 10)"/>
</clipPath>
</defs>
</svg>
