<svg width="149" height="34" viewBox="0 0 149 34" fill="none" xmlns="http://www.w3.org/2000/svg">
<rect width="149" height="34" fill="white"/>
<g clip-path="url(#clip0_2148_7119)">
<path fill-rule="evenodd" clip-rule="evenodd" d="M22.3527 11.838C21.863 10.8935 20.5121 10.8935 20.0223 11.838L18.6311 14.5212C18.178 15.3948 18.8121 16.4378 19.7962 16.4378H22.5788C23.5629 16.4378 24.197 15.3948 23.744 14.5212L22.3527 11.838ZM21.0211 12.3558C21.091 12.2209 21.284 12.2209 21.354 12.3558L22.7453 15.039C22.81 15.1638 22.7194 15.3128 22.5788 15.3128L19.7962 15.3128C19.6556 15.3128 19.5651 15.1638 19.6298 15.039L21.0211 12.3558Z" fill="#6A707C"/>
<path fill-rule="evenodd" clip-rule="evenodd" d="M13.6875 11.1875C12.9627 11.1875 12.375 11.7751 12.375 12.5V15.125C12.375 15.8499 12.9627 16.4375 13.6875 16.4375H16.3125C17.0374 16.4375 17.625 15.8499 17.625 15.125V12.5C17.625 11.7751 17.0374 11.1875 16.3125 11.1875H13.6875ZM13.5 12.5C13.5 12.3964 13.584 12.3125 13.6875 12.3125H16.3125C16.4161 12.3125 16.5 12.3964 16.5 12.5V15.125C16.5 15.2286 16.4161 15.3125 16.3125 15.3125H13.6875C13.584 15.3125 13.5 15.2286 13.5 15.125V12.5Z" fill="#6A707C"/>
<path fill-rule="evenodd" clip-rule="evenodd" d="M14.072 17.5077C14.5845 16.9951 15.4156 16.9951 15.9281 17.5077L17.4928 19.0723C18.0054 19.5849 18.0054 20.4159 17.4928 20.9285L15.9281 22.4932C15.4156 23.0057 14.5845 23.0057 14.072 22.4932L12.5073 20.9285C11.9947 20.4159 11.9947 19.5849 12.5073 19.0723L14.072 17.5077ZM15.1326 18.3032C15.0594 18.2299 14.9407 18.2299 14.8675 18.3032L13.3028 19.8678C13.2296 19.9411 13.2296 20.0598 13.3028 20.133L14.8675 21.6977C14.9407 21.7709 15.0594 21.7709 15.1326 21.6977L16.6973 20.133C16.7705 20.0598 16.7705 19.9411 16.6973 19.8678L15.1326 18.3032Z" fill="#6A707C"/>
<path fill-rule="evenodd" clip-rule="evenodd" d="M21.1875 17.375C19.7378 17.375 18.5625 18.5503 18.5625 20C18.5625 21.4497 19.7378 22.625 21.1875 22.625C22.6373 22.625 23.8125 21.4497 23.8125 20C23.8125 18.5503 22.6373 17.375 21.1875 17.375ZM19.6875 20C19.6875 19.1716 20.3591 18.5 21.1875 18.5C22.016 18.5 22.6875 19.1716 22.6875 20C22.6875 20.8284 22.016 21.5 21.1875 21.5C20.3591 21.5 19.6875 20.8284 19.6875 20Z" fill="#6A707C"/>
</g>
<path d="M35.419 22V14.018H32.364V12.848H39.774V14.018H36.732V22H35.419ZM42.5641 22.208C41.9055 22.208 41.3248 22.0607 40.8221 21.766C40.3281 21.4627 39.9468 21.0467 39.6781 20.518C39.4181 19.9807 39.2881 19.374 39.2881 18.698C39.2881 18.0393 39.4181 17.4457 39.6781 16.917C39.9381 16.3883 40.3151 15.9723 40.8091 15.669C41.3031 15.3657 41.8795 15.214 42.5381 15.214C43.1708 15.214 43.7125 15.357 44.1631 15.643C44.6138 15.929 44.9561 16.332 45.1901 16.852C45.4241 17.3633 45.5411 17.9657 45.5411 18.659C45.5411 18.7803 45.5368 18.8887 45.5281 18.984H40.5361C40.5795 19.6947 40.7788 20.232 41.1341 20.596C41.4981 20.9513 41.9878 21.129 42.6031 21.129C43.0451 21.129 43.4221 21.038 43.7341 20.856C44.0461 20.6653 44.3321 20.4053 44.5921 20.076L45.3981 20.778C45.0515 21.2373 44.6441 21.5927 44.1761 21.844C43.7081 22.0867 43.1708 22.208 42.5641 22.208ZM44.2801 18.074C44.2541 17.502 44.0851 17.06 43.7731 16.748C43.4611 16.436 43.0495 16.28 42.5381 16.28C42.0008 16.28 41.5588 16.436 41.2121 16.748C40.8741 17.06 40.6618 17.502 40.5751 18.074H44.2801ZM47.1185 22V15.409H48.4055V16.202C48.5962 15.89 48.8388 15.6473 49.1335 15.474C49.4368 15.3007 49.7835 15.214 50.1735 15.214C50.6415 15.214 51.0402 15.3137 51.3695 15.513C51.6988 15.7123 51.9372 16.0027 52.0845 16.384C52.2838 16.02 52.5482 15.734 52.8775 15.526C53.2155 15.318 53.6055 15.214 54.0475 15.214C54.7062 15.214 55.2175 15.4003 55.5815 15.773C55.9455 16.1457 56.1275 16.696 56.1275 17.424V22H54.8405V17.671C54.8405 17.2117 54.7408 16.8737 54.5415 16.657C54.3422 16.4317 54.0475 16.319 53.6575 16.319C53.3802 16.319 53.1375 16.3883 52.9295 16.527C52.7215 16.6657 52.5568 16.8737 52.4355 17.151C52.3228 17.4197 52.2665 17.749 52.2665 18.139V22H50.9795V17.671C50.9795 17.2203 50.8798 16.8823 50.6805 16.657C50.4812 16.4317 50.1908 16.319 49.8095 16.319C49.5322 16.319 49.2852 16.3883 49.0685 16.527C48.8605 16.6657 48.6958 16.8693 48.5745 17.138C48.4618 17.4067 48.4055 17.736 48.4055 18.126V22H47.1185ZM58.0238 24.47V15.422H59.2978V16.345C59.5491 15.9897 59.8611 15.7123 60.2338 15.513C60.6151 15.3137 61.0311 15.214 61.4818 15.214C62.0711 15.214 62.5954 15.3657 63.0548 15.669C63.5228 15.9637 63.8824 16.3753 64.1338 16.904C64.3938 17.4327 64.5238 18.035 64.5238 18.711C64.5238 19.387 64.3938 19.9893 64.1338 20.518C63.8824 21.0467 63.5228 21.4627 63.0548 21.766C62.5954 22.0607 62.0711 22.208 61.4818 22.208C61.0311 22.208 60.6151 22.1083 60.2338 21.909C59.8611 21.7097 59.5491 21.4323 59.2978 21.077V24.47H58.0238ZM61.2348 21.103C61.6334 21.103 61.9801 21.0077 62.2748 20.817C62.5694 20.6177 62.7948 20.3403 62.9508 19.985C63.1154 19.621 63.1978 19.1963 63.1978 18.711C63.1978 17.9743 63.0201 17.3937 62.6648 16.969C62.3181 16.5357 61.8414 16.319 61.2348 16.319C60.6368 16.319 60.1644 16.5357 59.8178 16.969C59.4711 17.3937 59.2978 17.9743 59.2978 18.711C59.2978 19.1963 59.3758 19.621 59.5318 19.985C59.6964 20.3403 59.9218 20.6177 60.2078 20.817C60.5024 21.0077 60.8448 21.103 61.2348 21.103ZM65.9937 22V12.575H67.2677V22H65.9937ZM70.8339 22.156C70.3746 22.156 69.9803 22.0737 69.6509 21.909C69.3303 21.7443 69.0876 21.519 68.9229 21.233C68.7583 20.947 68.6759 20.6263 68.6759 20.271C68.6759 19.6903 68.8753 19.231 69.2739 18.893C69.6813 18.555 70.2749 18.3253 71.0549 18.204L72.3809 18.009C72.6149 17.9743 72.7753 17.918 72.8619 17.84C72.9486 17.7533 72.9919 17.632 72.9919 17.476C72.9919 17.138 72.8663 16.8607 72.6149 16.644C72.3636 16.4187 72.0169 16.306 71.5749 16.306C71.1936 16.306 70.8643 16.397 70.5869 16.579C70.3096 16.761 70.0583 17.021 69.8329 17.359L68.8449 16.8C69.0356 16.4533 69.2653 16.163 69.5339 15.929C69.8113 15.695 70.1189 15.5173 70.4569 15.396C70.8036 15.2747 71.1849 15.214 71.6009 15.214C72.1383 15.214 72.6063 15.3137 73.0049 15.513C73.4036 15.7037 73.7113 15.9767 73.9279 16.332C74.1446 16.6787 74.2529 17.0817 74.2529 17.541V22H72.9919V20.804C72.7839 21.2287 72.4893 21.5623 72.1079 21.805C71.7266 22.039 71.3019 22.156 70.8339 22.156ZM71.1589 21.129C71.5229 21.129 71.8436 21.038 72.1209 20.856C72.3983 20.6653 72.6106 20.4097 72.7579 20.089C72.9139 19.7597 72.9919 19.387 72.9919 18.971V18.659C72.9313 18.6937 72.8446 18.7283 72.7319 18.763C72.6193 18.789 72.4936 18.815 72.3549 18.841L71.3929 18.997C70.9423 19.0663 70.5869 19.192 70.3269 19.374C70.0756 19.5473 69.9499 19.803 69.9499 20.141C69.9499 20.4443 70.0583 20.687 70.2749 20.869C70.4916 21.0423 70.7863 21.129 71.1589 21.129ZM78.1447 22.117C77.4947 22.117 77.0224 21.9653 76.7277 21.662C76.4417 21.35 76.2987 20.9123 76.2987 20.349V16.488H75.2457V15.422H76.2987V13.732H77.5857V15.422H79.0027V16.488H77.5857V20.284C77.5857 20.544 77.6551 20.7303 77.7937 20.843C77.9411 20.9557 78.1621 21.012 78.4567 21.012C78.5954 21.012 78.7731 20.999 78.9897 20.973V22.013C78.6951 22.0823 78.4134 22.117 78.1447 22.117ZM83.1764 22.208C82.5178 22.208 81.9371 22.0607 81.4344 21.766C80.9404 21.4627 80.5591 21.0467 80.2904 20.518C80.0304 19.9807 79.9004 19.374 79.9004 18.698C79.9004 18.0393 80.0304 17.4457 80.2904 16.917C80.5504 16.3883 80.9274 15.9723 81.4214 15.669C81.9154 15.3657 82.4918 15.214 83.1504 15.214C83.7831 15.214 84.3248 15.357 84.7754 15.643C85.2261 15.929 85.5684 16.332 85.8024 16.852C86.0364 17.3633 86.1534 17.9657 86.1534 18.659C86.1534 18.7803 86.1491 18.8887 86.1404 18.984H81.1484C81.1918 19.6947 81.3911 20.232 81.7464 20.596C82.1104 20.9513 82.6001 21.129 83.2154 21.129C83.6574 21.129 84.0344 21.038 84.3464 20.856C84.6584 20.6653 84.9444 20.4053 85.2044 20.076L86.0104 20.778C85.6638 21.2373 85.2564 21.5927 84.7884 21.844C84.3204 22.0867 83.7831 22.208 83.1764 22.208ZM84.8924 18.074C84.8664 17.502 84.6974 17.06 84.3854 16.748C84.0734 16.436 83.6618 16.28 83.1504 16.28C82.6131 16.28 82.1711 16.436 81.8244 16.748C81.4864 17.06 81.2741 17.502 81.1874 18.074H84.8924ZM90.0318 22.208C89.3558 22.208 88.7708 22.0693 88.2768 21.792C87.7828 21.5147 87.3885 21.1333 87.0938 20.648L88.0168 19.972C88.2508 20.3447 88.5368 20.635 88.8748 20.843C89.2215 21.051 89.6158 21.155 90.0578 21.155C90.5085 21.155 90.8595 21.064 91.1108 20.882C91.3708 20.7 91.5008 20.4617 91.5008 20.167C91.5008 19.933 91.4141 19.7553 91.2408 19.634C91.0675 19.5127 90.7511 19.3957 90.2918 19.283C90.2051 19.2657 90.1228 19.2483 90.0448 19.231C89.9668 19.2137 89.8801 19.1963 89.7848 19.179C89.2475 19.0577 88.8098 18.9233 88.4718 18.776C88.1338 18.6287 87.8738 18.4337 87.6918 18.191C87.5098 17.9397 87.4188 17.6147 87.4188 17.216C87.4188 16.8173 87.5228 16.4663 87.7308 16.163C87.9475 15.8597 88.2508 15.6257 88.6408 15.461C89.0308 15.2963 89.4771 15.214 89.9798 15.214C90.6038 15.214 91.1151 15.331 91.5138 15.565C91.9125 15.799 92.2591 16.1153 92.5538 16.514L91.6958 17.203C91.4531 16.8997 91.2018 16.67 90.9418 16.514C90.6905 16.3493 90.3785 16.267 90.0058 16.267C89.6158 16.267 89.2995 16.3493 89.0568 16.514C88.8141 16.67 88.6928 16.878 88.6928 17.138C88.6928 17.372 88.7968 17.5453 89.0048 17.658C89.2128 17.7707 89.5855 17.8877 90.1228 18.009C90.1575 18.0177 90.1921 18.0263 90.2268 18.035C90.2615 18.0437 90.2961 18.0523 90.3308 18.061C90.9115 18.1737 91.3751 18.308 91.7218 18.464C92.0771 18.6113 92.3458 18.815 92.5278 19.075C92.7098 19.3263 92.8008 19.6643 92.8008 20.089C92.8008 20.505 92.6881 20.8733 92.4628 21.194C92.2461 21.5147 91.9298 21.766 91.5138 21.948C91.0978 22.1213 90.6038 22.208 90.0318 22.208Z" fill="#3F434A"/>
<defs>
<clipPath id="clip0_2148_7119">
<rect width="12" height="12" fill="white" transform="translate(12 11)"/>
</clipPath>
</defs>
</svg>
