<svg width="28" height="29" viewBox="0 0 28 29" fill="none" xmlns="http://www.w3.org/2000/svg">
<g clip-path="url(#clip0_2019_21154)">
<path fill-rule="evenodd" clip-rule="evenodd" d="M12.5 6.5C8.91015 6.5 6 9.41015 6 13C6 16.5899 8.91015 19.5 12.5 19.5C14.0247 19.5 15.4268 18.975 16.5354 18.096L20.7197 22.2803C21.0126 22.5732 21.4875 22.5732 21.7803 22.2803C22.0732 21.9874 22.0732 21.5126 21.7803 21.2197L17.596 17.0353C18.475 15.9268 19 14.5247 19 13C19 9.41015 16.0899 6.5 12.5 6.5ZM7.5 13C7.5 10.2386 9.73858 8 12.5 8C15.2614 8 17.5 10.2386 17.5 13C17.5 15.7614 15.2614 18 12.5 18C9.73858 18 7.5 15.7614 7.5 13Z" fill="#6A707C"/>
</g>
<defs>
<clipPath id="clip0_2019_21154">
<rect width="16" height="16" fill="white" transform="translate(6 6.5)"/>
</clipPath>
</defs>
</svg>
