<svg width="17" height="17" viewBox="0 0 17 17" fill="none" xmlns="http://www.w3.org/2000/svg">
<g clip-path="url(#clip0_2880_3542)">
<path d="M7.00802 0.210585C7.39724 0.152404 7.79524 0.122314 8.1998 0.122314C10.2443 0.122314 12.1096 0.889246 13.5239 2.1511C13.7121 2.31907 13.8924 2.49581 14.064 2.68068C15.334 4.04868 16.1312 5.86177 16.1956 7.86C16.1984 7.94711 16.1998 8.03456 16.1998 8.12231C16.1998 8.17288 16.1993 8.22335 16.1984 8.27371C16.1615 10.2599 15.4008 12.0692 14.169 13.4487C14.0016 13.6361 13.8256 13.8156 13.6414 13.9865C12.2734 15.2565 10.4603 16.0537 8.46212 16.1181C8.375 16.1209 8.28755 16.1223 8.1998 16.1223C7.79524 16.1223 7.39724 16.0922 7.00802 16.034C6.59836 15.9728 6.3159 15.5911 6.37714 15.1814C6.43838 14.7717 6.82012 14.4893 7.22978 14.5505C7.54583 14.5978 7.86971 14.6223 8.1998 14.6223C8.24106 14.6223 8.28222 14.6219 8.32329 14.6212C9.94083 14.591 11.4139 13.97 12.5357 12.9649C12.6851 12.8311 12.8282 12.6904 12.9647 12.5434C13.9975 11.4308 14.6454 9.95595 14.6965 8.33057C14.6987 8.26144 14.6998 8.19201 14.6998 8.12231C14.6998 8.08105 14.6994 8.03989 14.6987 7.99883C14.6685 6.38123 14.0475 4.90811 13.0423 3.78631C12.9085 3.63697 12.7679 3.49385 12.6209 3.35744C11.5078 2.32418 10.0321 1.67617 8.4059 1.62551C8.33748 1.62339 8.26878 1.62231 8.1998 1.62231C7.86971 1.62231 7.54583 1.64686 7.22978 1.6941C6.82012 1.75534 6.43838 1.47288 6.37714 1.06322C6.3159 0.65356 6.59836 0.271821 7.00802 0.210585Z" fill="#297799"/>
<path d="M4.4975 1.84271C4.74373 2.17579 4.67332 2.64542 4.34024 2.89165C3.81787 3.27781 3.35529 3.74038 2.96913 4.26275C2.7229 4.59584 2.25328 4.66625 1.92019 4.42002C1.58711 4.17379 1.5167 3.70416 1.76293 3.37108C2.23772 2.72882 2.8063 2.16023 3.44856 1.68545C3.78165 1.43922 4.25127 1.50963 4.4975 1.84271Z" fill="#297799"/>
<path d="M1.77159 7.15229C1.83282 6.74263 1.55037 6.36089 1.14071 6.29966C0.731044 6.23842 0.349306 6.52087 0.288069 6.93054C0.229888 7.31976 0.199799 7.71776 0.199799 8.12231C0.199799 8.52687 0.229888 8.92487 0.288069 9.31409C0.349306 9.72375 0.731044 10.0062 1.14071 9.94497C1.55037 9.88374 1.83282 9.502 1.77159 9.09233C1.72434 8.77628 1.6998 8.4524 1.6998 8.12231C1.6998 7.79223 1.72434 7.46835 1.77159 7.15229Z" fill="#297799"/>
<path d="M1.9202 11.8246C2.25328 11.5784 2.7229 11.6488 2.96913 11.9819C3.35529 12.5042 3.81787 12.9668 4.34024 13.353C4.67332 13.5992 4.74373 14.0688 4.4975 14.4019C4.25127 14.735 3.78165 14.8054 3.44857 14.5592C2.8063 14.0844 2.23772 13.5158 1.76293 12.8735C1.5167 12.5405 1.58711 12.0708 1.9202 11.8246Z" fill="#297799"/>
<path d="M12.6998 7.12231C12.9927 6.82942 12.9927 6.35455 12.6998 6.06165C12.4069 5.76876 11.932 5.76876 11.6391 6.06165L7.6998 10.0616L5.73013 8.09193C5.43724 7.79903 4.96236 7.79903 4.66947 8.09193C4.37658 8.38482 4.37658 8.85969 4.66947 9.15259L7.16947 11.6526C7.46236 11.9455 7.93724 11.9455 8.23013 11.6526L12.6998 7.12231Z" fill="#297799"/>
</g>
<defs>
<clipPath id="clip0_2880_3542">
<rect width="16" height="16" fill="white" transform="translate(0.199799 0.122314)"/>
</clipPath>
</defs>
</svg>
