<?xml version="1.0" encoding="utf-8"?>
<!-- Generator: Adobe Illustrator 27.9.0, SVG Export Plug-In . SVG Version: 6.00 Build 0)  -->
<svg version="1.1" id="Layer_1" xmlns="http://www.w3.org/2000/svg" xmlns:xlink="http://www.w3.org/1999/xlink" x="0px" y="0px"
	 viewBox="0 0 59.2 59" style="enable-background:new 0 0 59.2 59;" xml:space="preserve">
<style type="text/css">
	.st0{fill:#DA552F;}
	.st1{fill:#FFFFFF;}
</style>
<g>
	<path class="st0" d="M58.5,29.2c0,16.1-13.1,29.2-29.2,29.2C13.1,58.5,0,45.4,0,29.2C0,13.1,13.1,0,29.2,0
		C45.4,0,58.5,13.1,58.5,29.2"/>
	<path class="st1" d="M33.1,29.2h-8.3v-8.8h8.3c2.4,0,4.4,2,4.4,4.4C37.5,27.3,35.6,29.2,33.1,29.2C33.1,29.2,33.1,29.2,33.1,29.2
		 M33.1,14.6H19v29.2h5.8v-8.8h8.3c5.7,0,10.2-4.6,10.2-10.2S38.8,14.6,33.1,14.6"/>
</g>
</svg>
