<svg width="104" height="17" viewBox="0 0 104 17" fill="none" xmlns="http://www.w3.org/2000/svg">
<g clip-path="url(#clip0_459_8342)">
<path fill-rule="evenodd" clip-rule="evenodd" d="M8 0.850098C8.30049 0.850098 8.57286 1.02689 8.6952 1.30135L10.6192 5.61761L15.3187 6.11362C15.6176 6.14516 15.8699 6.34957 15.9627 6.63535C16.0556 6.92114 15.9716 7.2348 15.7484 7.43597L12.2379 10.5996L13.2184 15.2224C13.2808 15.5163 13.1643 15.8195 12.9212 15.9961C12.6781 16.1727 12.3539 16.1898 12.0936 16.0396L8 13.6786L3.90643 16.0396C3.64614 16.1898 3.32187 16.1727 3.07877 15.9961C2.83567 15.8195 2.71923 15.5163 2.78158 15.2224L3.76209 10.5996L0.251619 7.43597C0.0283977 7.2348 -0.0555759 6.92114 0.0372811 6.63535C0.130138 6.34957 0.382443 6.14516 0.681275 6.11362L5.38083 5.61761L7.3048 1.30135C7.42714 1.02689 7.69951 0.850098 8 0.850098Z" fill="#176AE5"/>
</g>
<g clip-path="url(#clip1_459_8342)">
<path fill-rule="evenodd" clip-rule="evenodd" d="M30 0.850098C30.3005 0.850098 30.5729 1.02689 30.6952 1.30135L32.6192 5.61761L37.3187 6.11362C37.6176 6.14516 37.8699 6.34957 37.9627 6.63535C38.0556 6.92114 37.9716 7.2348 37.7484 7.43597L34.2379 10.5996L35.2184 15.2224C35.2808 15.5163 35.1643 15.8195 34.9212 15.9961C34.6781 16.1727 34.3539 16.1898 34.0936 16.0396L30 13.6786L25.9064 16.0396C25.6461 16.1898 25.3219 16.1727 25.0788 15.9961C24.8357 15.8195 24.7192 15.5163 24.7816 15.2224L25.7621 10.5996L22.2516 7.43597C22.0284 7.2348 21.9444 6.92114 22.0373 6.63535C22.1301 6.34957 22.3824 6.14516 22.6813 6.11362L27.3808 5.61761L29.3048 1.30135C29.4271 1.02689 29.6995 0.850098 30 0.850098Z" fill="#176AE5"/>
</g>
<g clip-path="url(#clip2_459_8342)">
<path fill-rule="evenodd" clip-rule="evenodd" d="M52 0.850098C52.3005 0.850098 52.5729 1.02689 52.6952 1.30135L54.6192 5.61761L59.3187 6.11362C59.6176 6.14516 59.8699 6.34957 59.9627 6.63535C60.0556 6.92114 59.9716 7.2348 59.7484 7.43597L56.2379 10.5996L57.2184 15.2224C57.2808 15.5163 57.1643 15.8195 56.9212 15.9961C56.6781 16.1727 56.3539 16.1898 56.0936 16.0396L52 13.6786L47.9064 16.0396C47.6461 16.1898 47.3219 16.1727 47.0788 15.9961C46.8357 15.8195 46.7192 15.5163 46.7816 15.2224L47.7621 10.5996L44.2516 7.43597C44.0284 7.2348 43.9444 6.92114 44.0373 6.63535C44.1301 6.34957 44.3824 6.14516 44.6813 6.11362L49.3808 5.61761L51.3048 1.30135C51.4271 1.02689 51.6995 0.850098 52 0.850098Z" fill="#176AE5"/>
</g>
<g clip-path="url(#clip3_459_8342)">
<path fill-rule="evenodd" clip-rule="evenodd" d="M74 0.850098C74.3005 0.850098 74.5729 1.02689 74.6952 1.30135L76.6192 5.61761L81.3187 6.11362C81.6176 6.14516 81.8699 6.34957 81.9627 6.63535C82.0556 6.92114 81.9716 7.2348 81.7484 7.43597L78.2379 10.5996L79.2184 15.2224C79.2808 15.5163 79.1643 15.8195 78.9212 15.9961C78.6781 16.1727 78.3539 16.1898 78.0936 16.0396L74 13.6786L69.9064 16.0396C69.6461 16.1898 69.3219 16.1727 69.0788 15.9961C68.8357 15.8195 68.7192 15.5163 68.7816 15.2224L69.7621 10.5996L66.2516 7.43597C66.0284 7.2348 65.9444 6.92114 66.0373 6.63535C66.1301 6.34957 66.3824 6.14516 66.6813 6.11362L71.3808 5.61761L73.3048 1.30135C73.4271 1.02689 73.6995 0.850098 74 0.850098Z" fill="#176AE5"/>
</g>
<g clip-path="url(#clip4_459_8342)">
<path fill-rule="evenodd" clip-rule="evenodd" d="M96 0.850098C96.3005 0.850098 96.5729 1.02689 96.6952 1.30135L98.6192 5.61761L103.319 6.11362C103.618 6.14516 103.87 6.34957 103.963 6.63535C104.056 6.92114 103.972 7.2348 103.748 7.43597L100.238 10.5996L101.218 15.2224C101.281 15.5163 101.164 15.8195 100.921 15.9961C100.678 16.1727 100.354 16.1898 100.094 16.0396L96 13.6786L91.9064 16.0396C91.6461 16.1898 91.3219 16.1727 91.0788 15.9961C90.8357 15.8195 90.7192 15.5163 90.7816 15.2224L91.7621 10.5996L88.2516 7.43597C88.0284 7.2348 87.9444 6.92114 88.0373 6.63535C88.1301 6.34957 88.3824 6.14516 88.6813 6.11362L93.3808 5.61761L95.3048 1.30135C95.4271 1.02689 95.6995 0.850098 96 0.850098Z" fill="#A2C3F5"/>
</g>
<mask id="mask0_459_8342" style="mask-type:alpha" maskUnits="userSpaceOnUse" x="88" y="0" width="16" height="17">
<g clip-path="url(#clip5_459_8342)">
<path fill-rule="evenodd" clip-rule="evenodd" d="M96 0.850098C96.3005 0.850098 96.5729 1.02689 96.6952 1.30135L98.6192 5.61761L103.319 6.11362C103.618 6.14516 103.87 6.34957 103.963 6.63535C104.056 6.92114 103.972 7.2348 103.748 7.43597L100.238 10.5996L101.218 15.2224C101.281 15.5163 101.164 15.8195 100.921 15.9961C100.678 16.1727 100.354 16.1898 100.094 16.0396L96 13.6786L91.9064 16.0396C91.6461 16.1898 91.3219 16.1727 91.0788 15.9961C90.8357 15.8195 90.7192 15.5163 90.7816 15.2224L91.7621 10.5996L88.2516 7.43597C88.0284 7.2348 87.9444 6.92114 88.0373 6.63535C88.1301 6.34957 88.3824 6.14516 88.6813 6.11362L93.3808 5.61761L95.3048 1.30135C95.4271 1.02689 95.6995 0.850098 96 0.850098Z" fill="#F0C000"/>
</g>
</mask>
<g mask="url(#mask0_459_8342)">
<path d="M88 1H102V17H88V1Z" fill="#176AE5"/>
</g>
<defs>
<clipPath id="clip0_459_8342">
<rect width="16" height="16" fill="white" transform="translate(0 0.5)"/>
</clipPath>
<clipPath id="clip1_459_8342">
<rect width="16" height="16" fill="white" transform="translate(22 0.5)"/>
</clipPath>
<clipPath id="clip2_459_8342">
<rect width="16" height="16" fill="white" transform="translate(44 0.5)"/>
</clipPath>
<clipPath id="clip3_459_8342">
<rect width="16" height="16" fill="white" transform="translate(66 0.5)"/>
</clipPath>
<clipPath id="clip4_459_8342">
<rect width="16" height="16" fill="white" transform="translate(88 0.5)"/>
</clipPath>
<clipPath id="clip5_459_8342">
<rect width="16" height="16" fill="white" transform="translate(88 0.5)"/>
</clipPath>
</defs>
</svg>
