<svg width="13" height="12" viewBox="0 0 13 12" fill="none" xmlns="http://www.w3.org/2000/svg">
<path fill-rule="evenodd" clip-rule="evenodd" d="M6.5 10.875C9.19238 10.875 11.375 8.69238 11.375 6C11.375 3.30761 9.19238 1.125 6.5 1.125C3.80761 1.125 1.625 3.30761 1.625 6C1.625 8.69238 3.80761 10.875 6.5 10.875ZM6.5 12C9.81371 12 12.5 9.31371 12.5 6C12.5 2.68629 9.81371 0 6.5 0C3.18629 0 0.5 2.68629 0.5 6C0.5 9.31371 3.18629 12 6.5 12Z" fill="white"/>
<path d="M8.77275 4.52275C8.99242 4.30308 8.99242 3.94692 8.77275 3.72725C8.55308 3.50758 8.19692 3.50758 7.97725 3.72725L6.5 5.2045L5.02275 3.72725C4.80308 3.50758 4.44692 3.50758 4.22725 3.72725C4.00758 3.94692 4.00758 4.30308 4.22725 4.52275L5.7045 6L4.22725 7.47725C4.00758 7.69692 4.00758 8.05308 4.22725 8.27275C4.44692 8.49242 4.80308 8.49242 5.02275 8.27275L6.5 6.79549L7.97725 8.27275C8.19692 8.49242 8.55308 8.49242 8.77275 8.27275C8.99242 8.05308 8.99242 7.69692 8.77275 7.47725L7.29549 6L8.77275 4.52275Z" fill="white"/>
</svg>
