<svg width="174" height="208" viewBox="0 0 174 208" fill="none" xmlns="http://www.w3.org/2000/svg">
<rect width="174" height="207.9" fill="white"/>
<g clip-path="url(#clip0_2148_7452)">
<path d="M18.99 28.616C18.324 28.616 17.7165 28.517 17.1675 28.319C16.6275 28.112 16.1685 27.842 15.7905 27.509C15.4215 27.176 15.1245 26.798 14.8995 26.375L16.371 25.295C16.569 25.628 16.794 25.9115 17.046 26.1455C17.298 26.3795 17.586 26.564 17.91 26.699C18.243 26.825 18.603 26.888 18.99 26.888C19.557 26.888 20.016 26.7845 20.367 26.5775C20.727 26.3705 20.907 26.0735 20.907 25.6865C20.907 25.4435 20.826 25.2455 20.664 25.0925C20.511 24.9395 20.277 24.8135 19.962 24.7145C19.656 24.6155 19.2015 24.503 18.5985 24.377C17.8515 24.224 17.2395 24.044 16.7625 23.837C16.2855 23.621 15.9075 23.333 15.6285 22.973C15.3585 22.604 15.2235 22.1315 15.2235 21.5555C15.2235 20.9525 15.3765 20.435 15.6825 20.003C15.9975 19.571 16.434 19.2425 16.992 19.0175C17.55 18.7925 18.1935 18.68 18.9225 18.68C19.4895 18.68 20.025 18.7655 20.529 18.9365C21.033 19.0985 21.4335 19.3235 21.7305 19.6115C22.0275 19.8905 22.2975 20.2235 22.5405 20.6105L21.285 21.704C20.916 21.281 20.5335 20.9525 20.1375 20.7185C19.7505 20.4845 19.332 20.3675 18.882 20.3675C18.369 20.3675 17.955 20.462 17.64 20.651C17.334 20.84 17.181 21.092 17.181 21.407C17.181 21.632 17.253 21.812 17.397 21.947C17.541 22.082 17.757 22.199 18.045 22.298C18.333 22.388 18.7515 22.4915 19.3005 22.6085C20.1105 22.7795 20.763 22.973 21.258 23.189C21.762 23.405 22.1535 23.7065 22.4325 24.0935C22.7205 24.4715 22.8645 24.971 22.8645 25.592C22.8645 26.204 22.698 26.7395 22.365 27.1985C22.041 27.6485 21.5865 27.9995 21.0015 28.2515C20.4165 28.4945 19.746 28.616 18.99 28.616ZM26.926 28.5755C26.161 28.5755 25.612 28.4 25.279 28.049C24.955 27.698 24.793 27.194 24.793 26.537V22.946H23.74V21.515H24.793V19.706H26.575V21.515H27.9655V22.946H26.575V26.4425C26.575 26.6675 26.6425 26.8295 26.7775 26.9285C26.9125 27.0275 27.106 27.077 27.358 27.077C27.502 27.077 27.7 27.059 27.952 27.023V28.427C27.601 28.526 27.259 28.5755 26.926 28.5755ZM31.0203 28.5485C30.5793 28.5485 30.1923 28.4675 29.8593 28.3055C29.5263 28.1435 29.2698 27.914 29.0898 27.617C28.9188 27.311 28.8333 26.96 28.8333 26.564C28.8333 25.952 29.0448 25.4705 29.4678 25.1195C29.8908 24.7685 30.5073 24.53 31.3173 24.404L32.6538 24.188C32.8518 24.161 32.9913 24.1115 33.0723 24.0395C33.1623 23.9585 33.2073 23.846 33.2073 23.702C33.2073 23.432 33.0993 23.2115 32.8833 23.0405C32.6763 22.8695 32.3883 22.784 32.0193 22.784C31.6593 22.784 31.3443 22.8695 31.0743 23.0405C30.8133 23.2115 30.5703 23.4545 30.3453 23.7695L29.0223 23.0135C29.2113 22.6535 29.4498 22.3475 29.7378 22.0955C30.0348 21.8345 30.3723 21.6365 30.7503 21.5015C31.1283 21.3665 31.5468 21.299 32.0058 21.299C32.5998 21.299 33.1173 21.407 33.5583 21.623C33.9993 21.83 34.3368 22.1225 34.5708 22.5005C34.8138 22.8785 34.9353 23.315 34.9353 23.81V28.4H33.2073V27.2525C32.9913 27.6665 32.6898 27.986 32.3028 28.211C31.9158 28.436 31.4883 28.5485 31.0203 28.5485ZM31.5873 27.185C31.9113 27.185 32.1948 27.104 32.4378 26.942C32.6808 26.78 32.8698 26.555 33.0048 26.267C33.1398 25.979 33.2073 25.6595 33.2073 25.3085V25.052C33.1533 25.088 33.0678 25.1195 32.9508 25.1465C32.8428 25.1735 32.7303 25.196 32.6133 25.214L31.8033 25.3625C31.4343 25.4255 31.1373 25.529 30.9123 25.673C30.6873 25.817 30.5748 26.0375 30.5748 26.3345C30.5748 26.5955 30.6648 26.8025 30.8448 26.9555C31.0248 27.1085 31.2723 27.185 31.5873 27.185ZM39.0681 28.5755C38.3031 28.5755 37.7541 28.4 37.4211 28.049C37.0971 27.698 36.9351 27.194 36.9351 26.537V22.946H35.8821V21.515H36.9351V19.706H38.7171V21.515H40.1076V22.946H38.7171V26.4425C38.7171 26.6675 38.7846 26.8295 38.9196 26.9285C39.0546 27.0275 39.2481 27.077 39.5001 27.077C39.6441 27.077 39.8421 27.059 40.0941 27.023V28.427C39.7431 28.526 39.4011 28.5755 39.0681 28.5755ZM43.9171 28.616C43.1251 28.616 42.5086 28.3595 42.0676 27.8465C41.6266 27.3335 41.4061 26.6315 41.4061 25.7405V21.515H43.1746V25.619C43.1746 26.105 43.2826 26.4785 43.4986 26.7395C43.7236 26.9915 44.0521 27.1175 44.4841 27.1175C44.7721 27.1175 45.0196 27.0455 45.2266 26.9015C45.4426 26.7575 45.6136 26.5505 45.7396 26.2805C45.8656 26.0105 45.9286 25.6955 45.9286 25.3355V21.515H47.6971V28.4H45.9286V27.6575C45.6946 27.9635 45.4066 28.202 45.0646 28.373C44.7316 28.535 44.3491 28.616 43.9171 28.616ZM52.134 28.616C51.396 28.616 50.766 28.4765 50.244 28.1975C49.731 27.9185 49.3125 27.527 48.9885 27.023L50.2035 26.1185C50.4465 26.4605 50.7255 26.7305 51.0405 26.9285C51.3645 27.1175 51.738 27.212 52.161 27.212C52.53 27.212 52.8225 27.1445 53.0385 27.0095C53.2545 26.8655 53.3625 26.681 53.3625 26.456C53.3625 26.267 53.277 26.1275 53.106 26.0375C52.935 25.9385 52.629 25.8395 52.188 25.7405C52.116 25.7225 52.044 25.7045 51.972 25.6865C51.9 25.6685 51.8235 25.6505 51.7425 25.6325C51.1845 25.5065 50.73 25.367 50.379 25.214C50.037 25.052 49.7715 24.8405 49.5825 24.5795C49.3935 24.3095 49.299 23.954 49.299 23.513C49.299 23.081 49.4115 22.6985 49.6365 22.3655C49.8705 22.0235 50.199 21.7625 50.622 21.5825C51.045 21.3935 51.5355 21.299 52.0935 21.299C52.7595 21.299 53.304 21.4205 53.727 21.6635C54.159 21.9065 54.537 22.235 54.861 22.649L53.6865 23.5805C53.4525 23.2925 53.2185 23.0765 52.9845 22.9325C52.7595 22.7795 52.4715 22.703 52.1205 22.703C51.8145 22.703 51.558 22.766 51.351 22.892C51.144 23.009 51.0405 23.1755 51.0405 23.3915C51.0405 23.5805 51.1305 23.72 51.3105 23.81C51.4995 23.891 51.846 23.99 52.35 24.107C52.377 24.107 52.404 24.1115 52.431 24.1205C52.467 24.1295 52.503 24.1385 52.539 24.1475C53.142 24.2735 53.628 24.4175 53.997 24.5795C54.366 24.7325 54.6495 24.9485 54.8475 25.2275C55.0455 25.4975 55.1445 25.8575 55.1445 26.3075C55.1445 26.7755 55.023 27.185 54.78 27.536C54.537 27.878 54.1905 28.1435 53.7405 28.3325C53.2905 28.5215 52.755 28.616 52.134 28.616Z" fill="#2F2F30"/>
</g>
<rect y="44.2" width="174" height="0.9" fill="#ECEDEF"/>
<rect width="174" height="30.4" transform="translate(0 48.7)" fill="white"/>
<rect x="14.4" y="54.7" width="76.3" height="18.4" rx="9.2" fill="#6A707C" fill-opacity="0.1"/>
<g clip-path="url(#clip1_2148_7452)">
<path fill-rule="evenodd" clip-rule="evenodd" d="M24.3956 58.5596C24.6583 58.5203 24.9269 58.5 25.2 58.5C25.4731 58.5 25.7417 58.5203 26.0045 58.5596C26.281 58.6009 26.4716 58.8586 26.4303 59.1351C26.389 59.4116 26.1313 59.6023 25.8548 59.561C25.6414 59.5291 25.4228 59.5125 25.2 59.5125C24.9772 59.5125 24.7586 59.5291 24.5452 59.561C24.2687 59.6023 24.011 59.4116 23.9697 59.1351C23.9284 58.8586 24.119 58.6009 24.3956 58.5596ZM27.6991 59.6613C27.8653 59.4364 28.1823 59.3889 28.4071 59.5551C28.8406 59.8756 29.2244 60.2594 29.5449 60.6929C29.7111 60.9177 29.6636 61.2347 29.4387 61.4009C29.2139 61.5672 28.8969 61.5196 28.7307 61.2948C28.47 60.9422 28.1578 60.63 27.8052 60.3693C27.5804 60.2031 27.5328 59.8861 27.6991 59.6613ZM22.701 59.6613C22.8672 59.8861 22.8196 60.2031 22.5948 60.3693C22.2422 60.63 21.93 60.9422 21.6693 61.2948C21.5031 61.5196 21.1861 61.5672 20.9613 61.4009C20.7364 61.2347 20.6889 60.9177 20.8551 60.6929C21.1756 60.2594 21.5594 59.8756 21.9929 59.5551C22.2178 59.3889 22.5347 59.4364 22.701 59.6613ZM20.4351 62.6697C20.7116 62.711 20.9023 62.9687 20.861 63.2452C20.8291 63.4586 20.8125 63.6772 20.8125 63.9C20.8125 64.1228 20.8291 64.3414 20.861 64.5548C20.9023 64.8313 20.7116 65.089 20.4351 65.1303C20.1586 65.1716 19.9009 64.981 19.8596 64.7044C19.8203 64.4417 19.8 64.1731 19.8 63.9C19.8 63.6269 19.8203 63.3583 19.8596 63.0956C19.9009 62.819 20.1586 62.6284 20.4351 62.6697ZM29.9649 62.6697C30.2414 62.6284 30.4991 62.819 30.5404 63.0956C30.5797 63.3583 30.6 63.6269 30.6 63.9C30.6 64.1731 30.5797 64.4417 30.5404 64.7044C30.4991 64.981 30.2414 65.1716 29.9649 65.1303C29.6884 65.089 29.4977 64.8313 29.539 64.5548C29.5709 64.3414 29.5875 64.1228 29.5875 63.9C29.5875 63.6772 29.5709 63.4586 29.539 63.2452C29.4977 62.9687 29.6884 62.711 29.9649 62.6697ZM29.4387 66.399C29.6636 66.5653 29.7111 66.8823 29.5449 67.1071C29.2244 67.5406 28.8406 67.9244 28.4071 68.2449C28.1823 68.4111 27.8653 68.3636 27.6991 68.1387C27.5328 67.9139 27.5804 67.5969 27.8052 67.4307C28.1578 67.17 28.47 66.8578 28.7307 66.5052C28.8969 66.2804 29.2139 66.2328 29.4387 66.399ZM20.9613 66.3991C21.1861 66.2328 21.5031 66.2804 21.6693 66.5052C21.93 66.8578 22.2422 67.17 22.5948 67.4307C22.8196 67.5969 22.8672 67.9139 22.701 68.1387C22.5347 68.3636 22.2178 68.4111 21.9929 68.2449C21.5594 67.9244 21.1756 67.5406 20.8551 67.1071C20.6889 66.8823 20.7364 66.5653 20.9613 66.3991ZM23.9697 68.6649C24.011 68.3884 24.2687 68.1977 24.5452 68.239C24.7586 68.2709 24.9772 68.2875 25.2 68.2875C25.4228 68.2875 25.6414 68.2709 25.8548 68.239C26.1313 68.1977 26.389 68.3884 26.4303 68.6649C26.4716 68.9414 26.281 69.1991 26.0045 69.2404C25.7417 69.2797 25.4731 69.3 25.2 69.3C24.9269 69.3 24.6583 69.2797 24.3956 69.2404C24.119 69.1991 23.9284 68.9414 23.9697 68.6649Z" fill="#6A707C"/>
</g>
<path d="M34.2261 67.4V60.7472H35.2656L38.8283 65.8219V60.7472H39.7922V67.4H38.781L35.1806 62.297V67.4H34.2261ZM43.5172 67.5512C43.051 67.5512 42.6383 67.4441 42.2792 67.2299C41.9201 67.0157 41.6398 66.7165 41.4382 66.3322C41.2366 65.9479 41.1358 65.5069 41.1358 65.0092C41.1358 64.5178 41.2366 64.0799 41.4382 63.6956C41.6398 63.305 41.9201 63.0026 42.2792 62.7884C42.6383 62.5742 43.051 62.4671 43.5172 62.4671C43.9771 62.4671 44.3866 62.5742 44.7457 62.7884C45.1048 63.0026 45.382 63.305 45.5773 63.6956C45.7789 64.0799 45.8797 64.5178 45.8797 65.0092C45.8797 65.5069 45.7789 65.9479 45.5773 66.3322C45.382 66.7165 45.1048 67.0157 44.7457 67.2299C44.3866 67.4441 43.9771 67.5512 43.5172 67.5512ZM43.5172 66.748C43.8007 66.748 44.0464 66.6787 44.2543 66.5401C44.4685 66.4015 44.6323 66.203 44.7457 65.9447C44.8591 65.6801 44.9158 65.3683 44.9158 65.0092C44.9158 64.6501 44.8591 64.3414 44.7457 64.0831C44.6386 63.8185 44.4779 63.6169 44.2637 63.4783C44.0558 63.3397 43.807 63.2704 43.5172 63.2704C43.2211 63.2704 42.9659 63.3397 42.7517 63.4783C42.5438 63.6169 42.38 63.8185 42.2603 64.0831C42.1469 64.3414 42.0902 64.6501 42.0902 65.0092C42.0902 65.3683 42.1469 65.677 42.2603 65.9353C42.38 66.1936 42.547 66.3952 42.7612 66.5401C42.9754 66.6787 43.2274 66.748 43.5172 66.748ZM48.5712 67.4851C48.0987 67.4851 47.7554 67.3748 47.5412 67.1543C47.3333 66.9275 47.2293 66.6094 47.2293 66.1999V63.3932H46.4639V62.6183H47.2293V61.3898H48.1649V62.6183H49.1949V63.3932H48.1649V66.1526C48.1649 66.3416 48.2153 66.4771 48.3161 66.559C48.4232 66.6409 48.5838 66.6818 48.798 66.6818C48.8988 66.6818 49.028 66.6724 49.1855 66.6535V67.4095C48.9713 67.4599 48.7665 67.4851 48.5712 67.4851ZM53.9011 67.4L51.9922 62.6183H52.9561L54.3736 66.2755L55.7816 62.6183H56.7455L54.8366 67.4H53.9011ZM59.6301 67.5512C59.1513 67.5512 58.7292 67.4441 58.3638 67.2299C58.0047 67.0094 57.7275 66.707 57.5322 66.3227C57.3432 65.9321 57.2487 65.4911 57.2487 64.9997C57.2487 64.5209 57.3432 64.0894 57.5322 63.7051C57.7212 63.3208 57.9953 63.0184 58.3544 62.7979C58.7135 62.5774 59.1324 62.4671 59.6112 62.4671C60.0711 62.4671 60.4649 62.5711 60.7925 62.779C61.1201 62.9869 61.3689 63.2798 61.539 63.6578C61.7091 64.0295 61.7942 64.4674 61.7942 64.9714C61.7942 65.0596 61.791 65.1383 61.7847 65.2076H58.1559C58.1874 65.7242 58.3323 66.1148 58.5906 66.3794C58.8552 66.6377 59.2112 66.7669 59.6585 66.7669C59.9798 66.7669 60.2538 66.7007 60.4806 66.5684C60.7074 66.4298 60.9153 66.2408 61.1043 66.0014L61.6902 66.5117C61.4382 66.8456 61.1421 67.1039 60.8019 67.2866C60.4617 67.463 60.0711 67.5512 59.6301 67.5512ZM60.8775 64.5461C60.8586 64.1303 60.7358 63.809 60.509 63.5822C60.2822 63.3554 59.9829 63.242 59.6112 63.242C59.2206 63.242 58.8993 63.3554 58.6473 63.5822C58.4016 63.809 58.2473 64.1303 58.1843 64.5461H60.8775ZM62.9408 67.4V62.6183H63.8764V63.3932C64.0024 63.1349 64.1756 62.9333 64.3961 62.7884C64.6166 62.6435 64.8781 62.5711 65.1805 62.5711C65.2246 62.5711 65.2655 62.5742 65.3033 62.5805C65.3411 62.5805 65.3821 62.5837 65.4262 62.59V63.4783C65.3506 63.4657 65.2655 63.4594 65.171 63.4594C64.7804 63.4594 64.4654 63.5917 64.226 63.8563C63.9929 64.1146 63.8764 64.4642 63.8764 64.9052V67.4H62.9408ZM66.3182 67.4V62.6183H67.2538V67.4H66.3182ZM66.7907 61.9001C66.6143 61.9001 66.4631 61.8403 66.3371 61.7206C66.2174 61.5946 66.1576 61.4434 66.1576 61.267C66.1576 61.0906 66.2174 60.9425 66.3371 60.8228C66.4631 60.6968 66.6143 60.6338 66.7907 60.6338C66.9608 60.6338 67.1089 60.6968 67.2349 60.8228C67.3609 60.9425 67.4239 61.0906 67.4239 61.267C67.4239 61.4434 67.3609 61.5946 67.2349 61.7206C67.1089 61.8403 66.9608 61.9001 66.7907 61.9001ZM69.0299 67.4V63.3932H68.1416V62.6183H69.0299V61.9663C69.0299 61.5253 69.1528 61.1693 69.3985 60.8984C69.6442 60.6275 70.0159 60.4921 70.5136 60.4921C70.6774 60.4921 70.8506 60.511 71.0333 60.5488V61.3237C70.9262 61.3048 70.8034 61.2953 70.6648 61.2953C70.4317 61.2953 70.2584 61.3552 70.145 61.4749C70.0316 61.5946 69.9749 61.771 69.9749 62.0041V62.6183H71.0333V63.3932H69.9749V67.4H69.0299ZM71.9292 67.4V62.6183H72.8647V67.4H71.9292ZM72.4017 61.9001C72.2253 61.9001 72.0741 61.8403 71.9481 61.7206C71.8284 61.5946 71.7685 61.4434 71.7685 61.267C71.7685 61.0906 71.8284 60.9425 71.9481 60.8228C72.0741 60.6968 72.2253 60.6338 72.4017 60.6338C72.5718 60.6338 72.7198 60.6968 72.8458 60.8228C72.9718 60.9425 73.0348 61.0906 73.0348 61.267C73.0348 61.4434 72.9718 61.5946 72.8458 61.7206C72.7198 61.8403 72.5718 61.9001 72.4017 61.9001ZM76.3891 67.5512C75.9103 67.5512 75.4882 67.4441 75.1228 67.2299C74.7637 67.0094 74.4865 66.707 74.2912 66.3227C74.1022 65.9321 74.0077 65.4911 74.0077 64.9997C74.0077 64.5209 74.1022 64.0894 74.2912 63.7051C74.4802 63.3208 74.7543 63.0184 75.1134 62.7979C75.4725 62.5774 75.8914 62.4671 76.3702 62.4671C76.8301 62.4671 77.2239 62.5711 77.5515 62.779C77.8791 62.9869 78.1279 63.2798 78.298 63.6578C78.4681 64.0295 78.5532 64.4674 78.5532 64.9714C78.5532 65.0596 78.55 65.1383 78.5437 65.2076H74.9149C74.9464 65.7242 75.0913 66.1148 75.3496 66.3794C75.6142 66.6377 75.9702 66.7669 76.4175 66.7669C76.7388 66.7669 77.0128 66.7007 77.2396 66.5684C77.4664 66.4298 77.6743 66.2408 77.8633 66.0014L78.4492 66.5117C78.1972 66.8456 77.9011 67.1039 77.5609 67.2866C77.2207 67.463 76.8301 67.5512 76.3891 67.5512ZM77.6365 64.5461C77.6176 64.1303 77.4948 63.809 77.268 63.5822C77.0412 63.3554 76.7419 63.242 76.3702 63.242C75.9796 63.242 75.6583 63.3554 75.4063 63.5822C75.1606 63.809 75.0063 64.1303 74.9433 64.5461H77.6365ZM81.6269 67.5512C81.1922 67.5512 80.8079 67.4441 80.474 67.2299C80.1401 67.0094 79.8787 66.707 79.6897 66.3227C79.507 65.9384 79.4156 65.5006 79.4156 65.0092C79.4156 64.5178 79.507 64.0799 79.6897 63.6956C79.8787 63.3113 80.1401 63.0121 80.474 62.7979C80.8079 62.5774 81.1922 62.4671 81.6269 62.4671C81.9545 62.4671 82.2538 62.5396 82.5247 62.6845C82.7956 62.8294 83.0255 63.031 83.2145 63.2893V60.5488H84.1406V67.4H83.2145V66.7291C83.0255 66.9874 82.7956 67.189 82.5247 67.3339C82.2538 67.4788 81.9545 67.5512 81.6269 67.5512ZM81.797 66.748C82.0805 66.748 82.3294 66.6787 82.5436 66.5401C82.7578 66.3952 82.9216 66.1936 83.035 65.9353C83.1547 65.6707 83.2145 65.362 83.2145 65.0092C83.2145 64.4737 83.0854 64.0516 82.8271 63.7429C82.5751 63.4279 82.2317 63.2704 81.797 63.2704C81.3623 63.2704 81.0158 63.4279 80.7575 63.7429C80.4992 64.0516 80.3701 64.4737 80.3701 65.0092C80.3701 65.362 80.4268 65.6707 80.5402 65.9353C80.6599 66.1936 80.8268 66.3952 81.041 66.5401C81.2615 66.6787 81.5135 66.748 81.797 66.748Z" fill="#6A707C"/>
<rect width="174" height="30.4" transform="translate(0 79.1)" fill="white"/>
<rect x="14.4" y="85.1" width="58.3" height="18.4" rx="9.2" fill="#CFFCD6"/>
<g clip-path="url(#clip2_2148_7452)">
<path fill-rule="evenodd" clip-rule="evenodd" d="M29.5875 94.3C29.5875 96.7231 27.6232 98.6875 25.2 98.6875C22.7769 98.6875 20.8125 96.7231 20.8125 94.3C20.8125 91.8768 22.7769 89.9125 25.2 89.9125C27.6232 89.9125 29.5875 91.8768 29.5875 94.3ZM30.6 94.3C30.6 97.2823 28.1823 99.7 25.2 99.7C22.2177 99.7 19.8 97.2823 19.8 94.3C19.8 91.3176 22.2177 88.9 25.2 88.9C28.1823 88.9 30.6 91.3176 30.6 94.3ZM28.258 93.3079C28.4557 93.1102 28.4557 92.7897 28.258 92.592C28.0603 92.3943 27.7397 92.3943 27.542 92.592L24.525 95.609L23.1955 94.2795C22.9978 94.0818 22.6772 94.0818 22.4795 94.2795C22.2818 94.4772 22.2818 94.7977 22.4795 94.9954L24.167 96.6829C24.3647 96.8806 24.6853 96.8806 24.883 96.6829L28.258 93.3079Z" fill="#38794E"/>
</g>
<path d="M36.0311 97.8L33.5646 91.1472H34.6041L36.6264 96.6282L38.6393 91.1472H39.6882L37.2123 97.8H36.0311ZM42.0498 97.9512C41.571 97.9512 41.1489 97.8441 40.7835 97.6299C40.4244 97.4094 40.1472 97.107 39.9519 96.7227C39.7629 96.3321 39.6684 95.8911 39.6684 95.3997C39.6684 94.9209 39.7629 94.4893 39.9519 94.105C40.1409 93.7207 40.415 93.4183 40.7741 93.1978C41.1332 92.9773 41.5521 92.8671 42.0309 92.8671C42.4908 92.8671 42.8846 92.971 43.2122 93.1789C43.5398 93.3868 43.7886 93.6798 43.9587 94.0578C44.1288 94.4295 44.2139 94.8673 44.2139 95.3713C44.2139 95.4595 44.2107 95.5383 44.2044 95.6076H40.5756C40.6071 96.1242 40.752 96.5148 41.0103 96.7794C41.2749 97.0377 41.6309 97.1668 42.0782 97.1668C42.3995 97.1668 42.6735 97.1007 42.9003 96.9684C43.1271 96.8298 43.335 96.6408 43.524 96.4014L44.1099 96.9117C43.8579 97.2456 43.5618 97.5039 43.2216 97.6866C42.8814 97.863 42.4908 97.9512 42.0498 97.9512ZM43.2972 94.9461C43.2783 94.5303 43.1555 94.209 42.9287 93.9822C42.7019 93.7554 42.4026 93.642 42.0309 93.642C41.6403 93.642 41.319 93.7554 41.067 93.9822C40.8213 94.209 40.667 94.5303 40.604 94.9461H43.2972ZM45.3605 97.8V93.0183H46.296V93.7932C46.422 93.5349 46.5953 93.3333 46.8158 93.1884C47.0363 93.0435 47.2977 92.971 47.6001 92.971C47.6442 92.971 47.6852 92.9742 47.723 92.9805C47.7608 92.9805 47.8017 92.9836 47.8458 92.9899V93.8782C47.7702 93.8656 47.6852 93.8593 47.5907 93.8593C47.2001 93.8593 46.8851 93.9916 46.6457 94.2562C46.4126 94.5145 46.296 94.8642 46.296 95.3052V97.8H45.3605ZM48.7379 97.8V93.0183H49.6735V97.8H48.7379ZM49.2104 92.3001C49.034 92.3001 48.8828 92.2402 48.7568 92.1205C48.6371 91.9945 48.5773 91.8433 48.5773 91.6669C48.5773 91.4905 48.6371 91.3425 48.7568 91.2228C48.8828 91.0968 49.034 91.0338 49.2104 91.0338C49.3805 91.0338 49.5286 91.0968 49.6546 91.2228C49.7806 91.3425 49.8436 91.4905 49.8436 91.6669C49.8436 91.8433 49.7806 91.9945 49.6546 92.1205C49.5286 92.2402 49.3805 92.3001 49.2104 92.3001ZM51.4496 97.8V93.7932H50.5613V93.0183H51.4496V92.3662C51.4496 91.9252 51.5725 91.5693 51.8182 91.2984C52.0639 91.0275 52.4356 90.892 52.9333 90.892C53.0971 90.892 53.2703 90.9109 53.453 90.9487V91.7236C53.3459 91.7047 53.2231 91.6953 53.0845 91.6953C52.8514 91.6953 52.6781 91.7551 52.5647 91.8748C52.4513 91.9945 52.3946 92.1709 52.3946 92.404V93.0183H53.453V93.7932H52.3946V97.8H51.4496ZM54.3488 97.8V93.0183H55.2844V97.8H54.3488ZM54.8213 92.3001C54.6449 92.3001 54.4937 92.2402 54.3677 92.1205C54.248 91.9945 54.1882 91.8433 54.1882 91.6669C54.1882 91.4905 54.248 91.3425 54.3677 91.2228C54.4937 91.0968 54.6449 91.0338 54.8213 91.0338C54.9914 91.0338 55.1395 91.0968 55.2655 91.2228C55.3915 91.3425 55.4545 91.4905 55.4545 91.6669C55.4545 91.8433 55.3915 91.9945 55.2655 92.1205C55.1395 92.2402 54.9914 92.3001 54.8213 92.3001ZM58.8088 97.9512C58.33 97.9512 57.9079 97.8441 57.5425 97.6299C57.1834 97.4094 56.9062 97.107 56.7109 96.7227C56.5219 96.3321 56.4274 95.8911 56.4274 95.3997C56.4274 94.9209 56.5219 94.4893 56.7109 94.105C56.8999 93.7207 57.174 93.4183 57.5331 93.1978C57.8922 92.9773 58.3111 92.8671 58.7899 92.8671C59.2498 92.8671 59.6436 92.971 59.9712 93.1789C60.2988 93.3868 60.5476 93.6798 60.7177 94.0578C60.8878 94.4295 60.9729 94.8673 60.9729 95.3713C60.9729 95.4595 60.9697 95.5383 60.9634 95.6076H57.3346C57.3661 96.1242 57.511 96.5148 57.7693 96.7794C58.0339 97.0377 58.3899 97.1668 58.8372 97.1668C59.1585 97.1668 59.4325 97.1007 59.6593 96.9684C59.8861 96.8298 60.094 96.6408 60.283 96.4014L60.8689 96.9117C60.6169 97.2456 60.3208 97.5039 59.9806 97.6866C59.6404 97.863 59.2498 97.9512 58.8088 97.9512ZM60.0562 94.9461C60.0373 94.5303 59.9145 94.209 59.6877 93.9822C59.4609 93.7554 59.1616 93.642 58.7899 93.642C58.3993 93.642 58.078 93.7554 57.826 93.9822C57.5803 94.209 57.426 94.5303 57.363 94.9461H60.0562ZM64.0466 97.9512C63.6119 97.9512 63.2276 97.8441 62.8937 97.6299C62.5598 97.4094 62.2984 97.107 62.1094 96.7227C61.9267 96.3384 61.8353 95.9005 61.8353 95.4091C61.8353 94.9177 61.9267 94.4799 62.1094 94.0956C62.2984 93.7113 62.5598 93.412 62.8937 93.1978C63.2276 92.9773 63.6119 92.8671 64.0466 92.8671C64.3742 92.8671 64.6735 92.9395 64.9444 93.0844C65.2153 93.2293 65.4452 93.4309 65.6342 93.6892V90.9487H66.5603V97.8H65.6342V97.129C65.4452 97.3873 65.2153 97.5889 64.9444 97.7338C64.6735 97.8787 64.3742 97.9512 64.0466 97.9512ZM64.2167 97.1479C64.5002 97.1479 64.7491 97.0786 64.9633 96.94C65.1775 96.7951 65.3413 96.5935 65.4547 96.3352C65.5744 96.0706 65.6342 95.7619 65.6342 95.4091C65.6342 94.8736 65.5051 94.4515 65.2468 94.1428C64.9948 93.8278 64.6514 93.6703 64.2167 93.6703C63.782 93.6703 63.4355 93.8278 63.1772 94.1428C62.9189 94.4515 62.7898 94.8736 62.7898 95.4091C62.7898 95.7619 62.8465 96.0706 62.9599 96.3352C63.0796 96.5935 63.2465 96.7951 63.4607 96.94C63.6812 97.0786 63.9332 97.1479 64.2167 97.1479Z" fill="#38794E"/>
<rect width="174" height="30.4" transform="translate(0 109.5)" fill="white"/>
<rect x="14.4" y="115.5" width="121.3" height="18.4" rx="9.2" fill="#FFF3C2"/>
<g clip-path="url(#clip3_2148_7452)">
<path d="M24.3956 119.36C24.6583 119.32 24.9269 119.3 25.2 119.3C26.58 119.3 27.8391 119.818 28.7938 120.669C28.9208 120.783 29.0425 120.902 29.1584 121.027C30.0156 121.95 30.5537 123.174 30.5971 124.523C30.599 124.582 30.6 124.641 30.6 124.7C30.6 124.734 30.5997 124.768 30.5991 124.802C30.5742 126.143 30.0607 127.364 29.2292 128.295C29.1162 128.422 28.9974 128.543 28.8731 128.658C27.9497 129.516 26.7259 130.054 25.3771 130.097C25.3183 130.099 25.2592 130.1 25.2 130.1C24.9269 130.1 24.6583 130.08 24.3956 130.04C24.119 129.999 23.9284 129.741 23.9697 129.465C24.011 129.188 24.2687 128.998 24.5452 129.039C24.7586 129.071 24.9772 129.087 25.2 129.087C25.2279 129.087 25.2556 129.087 25.2834 129.087C26.3752 129.066 27.3695 128.647 28.1267 127.969C28.2276 127.878 28.3242 127.783 28.4163 127.684C29.1134 126.933 29.5508 125.938 29.5853 124.841C29.5868 124.794 29.5875 124.747 29.5875 124.7C29.5875 124.672 29.5872 124.644 29.5867 124.617C29.5664 123.525 29.1472 122.53 28.4687 121.773C28.3784 121.672 28.2834 121.576 28.1843 121.484C27.4329 120.786 26.4368 120.349 25.3391 120.315C25.2929 120.313 25.2466 120.312 25.2 120.312C24.9772 120.312 24.7586 120.329 24.5452 120.361C24.2687 120.402 24.011 120.212 23.9697 119.935C23.9284 119.659 24.119 119.401 24.3956 119.36Z" fill="#974E00"/>
<path d="M22.701 120.461C22.8672 120.686 22.8196 121.003 22.5948 121.169C22.2422 121.43 21.93 121.742 21.6693 122.095C21.5031 122.32 21.1861 122.367 20.9613 122.201C20.7364 122.035 20.6889 121.718 20.8551 121.493C21.1756 121.059 21.5594 120.676 21.9929 120.355C22.2178 120.189 22.5347 120.236 22.701 120.461Z" fill="#974E00"/>
<path d="M20.861 124.045C20.9023 123.769 20.7116 123.511 20.4351 123.47C20.1586 123.428 19.9009 123.619 19.8596 123.896C19.8203 124.158 19.8 124.427 19.8 124.7C19.8 124.973 19.8203 125.242 19.8596 125.504C19.9009 125.781 20.1586 125.972 20.4351 125.93C20.7116 125.889 20.9023 125.631 20.861 125.355C20.8291 125.141 20.8125 124.923 20.8125 124.7C20.8125 124.477 20.8291 124.259 20.861 124.045Z" fill="#974E00"/>
<path d="M20.9613 127.199C21.1861 127.033 21.5031 127.08 21.6693 127.305C21.93 127.658 22.2422 127.97 22.5948 128.231C22.8196 128.397 22.8672 128.714 22.701 128.939C22.5347 129.164 22.2178 129.211 21.9929 129.045C21.5594 128.724 21.1756 128.341 20.8551 127.907C20.6889 127.682 20.7364 127.365 20.9613 127.199Z" fill="#974E00"/>
<path d="M28.2375 124.025C28.4352 123.827 28.4352 123.507 28.2375 123.309C28.0398 123.111 27.7193 123.111 27.5216 123.309L24.8625 126.009L23.533 124.679C23.3353 124.482 23.0147 124.482 22.817 124.679C22.6193 124.877 22.6193 125.198 22.817 125.395L24.5045 127.083C24.7022 127.281 25.0228 127.281 25.2205 127.083L28.2375 124.025Z" fill="#974E00"/>
</g>
<path d="M36.0311 128.2L33.5646 121.547H34.6041L36.6264 127.028L38.6393 121.547H39.6882L37.2123 128.2H36.0311ZM42.0498 128.351C41.571 128.351 41.1489 128.244 40.7835 128.03C40.4244 127.809 40.1472 127.507 39.9519 127.123C39.7629 126.732 39.6684 126.291 39.6684 125.8C39.6684 125.321 39.7629 124.889 39.9519 124.505C40.1409 124.121 40.415 123.818 40.7741 123.598C41.1332 123.377 41.5521 123.267 42.0309 123.267C42.4908 123.267 42.8846 123.371 43.2122 123.579C43.5398 123.787 43.7886 124.08 43.9587 124.458C44.1288 124.83 44.2139 125.267 44.2139 125.771C44.2139 125.86 44.2107 125.938 44.2044 126.008H40.5756C40.6071 126.524 40.752 126.915 41.0103 127.179C41.2749 127.438 41.6309 127.567 42.0782 127.567C42.3995 127.567 42.6735 127.501 42.9003 127.368C43.1271 127.23 43.335 127.041 43.524 126.801L44.1099 127.312C43.8579 127.646 43.5618 127.904 43.2216 128.087C42.8814 128.263 42.4908 128.351 42.0498 128.351ZM43.2972 125.346C43.2783 124.93 43.1555 124.609 42.9287 124.382C42.7019 124.155 42.4026 124.042 42.0309 124.042C41.6403 124.042 41.319 124.155 41.067 124.382C40.8213 124.609 40.667 124.93 40.604 125.346H43.2972ZM45.3605 128.2V123.418H46.296V124.193C46.422 123.935 46.5953 123.733 46.8158 123.588C47.0363 123.444 47.2977 123.371 47.6001 123.371C47.6442 123.371 47.6852 123.374 47.723 123.381C47.7608 123.381 47.8017 123.384 47.8458 123.39V124.278C47.7702 124.266 47.6852 124.259 47.5907 124.259C47.2001 124.259 46.8851 124.392 46.6457 124.656C46.4126 124.915 46.296 125.264 46.296 125.705V128.2H45.3605ZM48.7379 128.2V123.418H49.6735V128.2H48.7379ZM49.2104 122.7C49.034 122.7 48.8828 122.64 48.7568 122.521C48.6371 122.395 48.5773 122.243 48.5773 122.067C48.5773 121.891 48.6371 121.743 48.7568 121.623C48.8828 121.497 49.034 121.434 49.2104 121.434C49.3805 121.434 49.5286 121.497 49.6546 121.623C49.7806 121.743 49.8436 121.891 49.8436 122.067C49.8436 122.243 49.7806 122.395 49.6546 122.521C49.5286 122.64 49.3805 122.7 49.2104 122.7ZM51.4496 128.2V124.193H50.5613V123.418H51.4496V122.766C51.4496 122.325 51.5725 121.969 51.8182 121.698C52.0639 121.428 52.4356 121.292 52.9333 121.292C53.0971 121.292 53.2703 121.311 53.453 121.349V122.124C53.3459 122.105 53.2231 122.095 53.0845 122.095C52.8514 122.095 52.6781 122.155 52.5647 122.275C52.4513 122.395 52.3946 122.571 52.3946 122.804V123.418H53.453V124.193H52.3946V128.2H51.4496ZM54.3488 128.2V123.418H55.2844V128.2H54.3488ZM54.8213 122.7C54.6449 122.7 54.4937 122.64 54.3677 122.521C54.248 122.395 54.1882 122.243 54.1882 122.067C54.1882 121.891 54.248 121.743 54.3677 121.623C54.4937 121.497 54.6449 121.434 54.8213 121.434C54.9914 121.434 55.1395 121.497 55.2655 121.623C55.3915 121.743 55.4545 121.891 55.4545 122.067C55.4545 122.243 55.3915 122.395 55.2655 122.521C55.1395 122.64 54.9914 122.7 54.8213 122.7ZM58.8372 128.342C58.3521 128.342 57.9268 128.235 57.5614 128.02C57.196 127.806 56.9157 127.507 56.7204 127.123C56.5251 126.738 56.4274 126.301 56.4274 125.809C56.4274 125.324 56.5251 124.889 56.7204 124.505C56.9157 124.121 57.1929 123.818 57.552 123.598C57.9174 123.377 58.3458 123.267 58.8372 123.267C59.1333 123.267 59.4042 123.314 59.6499 123.409C59.8956 123.497 60.1098 123.623 60.2925 123.787C60.4752 123.951 60.6327 124.143 60.765 124.363L60.1035 124.855C59.9586 124.628 59.7822 124.448 59.5743 124.316C59.3727 124.177 59.1301 124.108 58.8466 124.108C58.5316 124.108 58.2639 124.184 58.0434 124.335C57.8229 124.48 57.6559 124.681 57.5425 124.94C57.4354 125.198 57.3819 125.488 57.3819 125.809C57.3819 126.13 57.4354 126.42 57.5425 126.679C57.6559 126.937 57.8229 127.142 58.0434 127.293C58.2639 127.438 58.5316 127.51 58.8466 127.51C59.1238 127.51 59.3664 127.444 59.5743 127.312C59.7822 127.173 59.9586 126.99 60.1035 126.764L60.765 127.236C60.6453 127.457 60.4941 127.652 60.3114 127.822C60.135 127.986 59.9208 128.112 59.6688 128.2C59.4231 128.295 59.1459 128.342 58.8372 128.342ZM63.0243 128.313C62.6904 128.313 62.4038 128.254 62.1644 128.134C61.9313 128.014 61.7549 127.85 61.6352 127.642C61.5155 127.435 61.4556 127.201 61.4556 126.943C61.4556 126.521 61.6005 126.187 61.8903 125.941C62.1864 125.696 62.618 125.529 63.185 125.441L64.1489 125.299C64.319 125.274 64.4355 125.233 64.4985 125.176C64.5615 125.113 64.593 125.025 64.593 124.911C64.593 124.666 64.5017 124.464 64.319 124.307C64.1363 124.143 63.8843 124.061 63.563 124.061C63.2858 124.061 63.0464 124.127 62.8448 124.259C62.6432 124.392 62.4605 124.581 62.2967 124.826L61.5785 124.42C61.7171 124.168 61.884 123.957 62.0793 123.787C62.2809 123.617 62.5046 123.488 62.7503 123.399C63.0023 123.311 63.2795 123.267 63.5819 123.267C63.9725 123.267 64.3127 123.34 64.6025 123.484C64.8923 123.623 65.1159 123.822 65.2734 124.08C65.4309 124.332 65.5097 124.625 65.5097 124.959V128.2H64.593V127.331C64.4418 127.639 64.2276 127.882 63.9504 128.058C63.6732 128.228 63.3645 128.313 63.0243 128.313ZM63.2606 127.567C63.5252 127.567 63.7583 127.501 63.9599 127.368C64.1615 127.23 64.3158 127.044 64.4229 126.811C64.5363 126.571 64.593 126.301 64.593 125.998V125.771C64.5489 125.797 64.4859 125.822 64.404 125.847C64.3221 125.866 64.2308 125.885 64.13 125.904L63.4307 126.017C63.1031 126.067 62.8448 126.159 62.6558 126.291C62.4731 126.417 62.3817 126.603 62.3817 126.849C62.3817 127.069 62.4605 127.246 62.618 127.378C62.7755 127.504 62.9897 127.567 63.2606 127.567ZM68.3387 128.285C67.8662 128.285 67.5228 128.175 67.3086 127.954C67.1007 127.728 66.9968 127.409 66.9968 127V124.193H66.2313V123.418H66.9968V122.19H67.9323V123.418H68.9624V124.193H67.9323V126.953C67.9323 127.142 67.9827 127.277 68.0835 127.359C68.1906 127.441 68.3513 127.482 68.5655 127.482C68.6663 127.482 68.7954 127.472 68.9529 127.453V128.209C68.7387 128.26 68.534 128.285 68.3387 128.285ZM69.9635 128.2V123.418H70.899V128.2H69.9635ZM70.436 122.7C70.2596 122.7 70.1084 122.64 69.9824 122.521C69.8627 122.395 69.8028 122.243 69.8028 122.067C69.8028 121.891 69.8627 121.743 69.9824 121.623C70.1084 121.497 70.2596 121.434 70.436 121.434C70.6061 121.434 70.7541 121.497 70.8801 121.623C71.0061 121.743 71.0691 121.891 71.0691 122.067C71.0691 122.243 71.0061 122.395 70.8801 122.521C70.7541 122.64 70.6061 122.7 70.436 122.7ZM74.4234 128.351C73.9572 128.351 73.5446 128.244 73.1855 128.03C72.8264 127.816 72.546 127.516 72.3444 127.132C72.1428 126.748 72.042 126.307 72.042 125.809C72.042 125.318 72.1428 124.88 72.3444 124.496C72.546 124.105 72.8264 123.803 73.1855 123.588C73.5446 123.374 73.9572 123.267 74.4234 123.267C74.8833 123.267 75.2928 123.374 75.6519 123.588C76.011 123.803 76.2882 124.105 76.4835 124.496C76.6851 124.88 76.7859 125.318 76.7859 125.809C76.7859 126.307 76.6851 126.748 76.4835 127.132C76.2882 127.516 76.011 127.816 75.6519 128.03C75.2928 128.244 74.8833 128.351 74.4234 128.351ZM74.4234 127.548C74.7069 127.548 74.9526 127.479 75.1605 127.34C75.3747 127.201 75.5385 127.003 75.6519 126.745C75.7653 126.48 75.822 126.168 75.822 125.809C75.822 125.45 75.7653 125.141 75.6519 124.883C75.5448 124.618 75.3842 124.417 75.17 124.278C74.9621 124.14 74.7132 124.07 74.4234 124.07C74.1273 124.07 73.8722 124.14 73.658 124.278C73.4501 124.417 73.2863 124.618 73.1666 124.883C73.0532 125.141 72.9965 125.45 72.9965 125.809C72.9965 126.168 73.0532 126.477 73.1666 126.735C73.2863 126.994 73.4532 127.195 73.6674 127.34C73.8816 127.479 74.1336 127.548 74.4234 127.548ZM77.9372 128.2V123.418H78.8727V124.023C79.0365 123.784 79.2444 123.598 79.4964 123.466C79.7547 123.333 80.0477 123.267 80.3753 123.267C80.9171 123.267 81.3392 123.444 81.6416 123.796C81.9503 124.143 82.1046 124.618 82.1046 125.223V128.2H81.1691V125.318C81.1691 124.908 81.0809 124.6 80.9045 124.392C80.7281 124.177 80.4635 124.07 80.1107 124.07C79.865 124.07 79.6476 124.133 79.4586 124.259C79.2759 124.379 79.131 124.555 79.0239 124.789C78.9231 125.015 78.8727 125.283 78.8727 125.592V128.2H77.9372ZM85.7998 128.2V123.418H86.7354V124.193C86.8614 123.935 87.0346 123.733 87.2551 123.588C87.4756 123.444 87.7371 123.371 88.0395 123.371C88.0836 123.371 88.1245 123.374 88.1623 123.381C88.2001 123.381 88.2411 123.384 88.2852 123.39V124.278C88.2096 124.266 88.1245 124.259 88.03 124.259C87.6394 124.259 87.3244 124.392 87.085 124.656C86.8519 124.915 86.7354 125.264 86.7354 125.705V128.2H85.7998ZM91.2563 128.351C90.7775 128.351 90.3554 128.244 89.99 128.03C89.6309 127.809 89.3537 127.507 89.1584 127.123C88.9694 126.732 88.8749 126.291 88.8749 125.8C88.8749 125.321 88.9694 124.889 89.1584 124.505C89.3474 124.121 89.6214 123.818 89.9805 123.598C90.3396 123.377 90.7586 123.267 91.2374 123.267C91.6973 123.267 92.091 123.371 92.4186 123.579C92.7462 123.787 92.9951 124.08 93.1652 124.458C93.3353 124.83 93.4203 125.267 93.4203 125.771C93.4203 125.86 93.4172 125.938 93.4109 126.008H89.7821C89.8136 126.524 89.9585 126.915 90.2168 127.179C90.4814 127.438 90.8373 127.567 91.2846 127.567C91.6059 127.567 91.88 127.501 92.1068 127.368C92.3336 127.23 92.5415 127.041 92.7305 126.801L93.3164 127.312C93.0644 127.646 92.7683 127.904 92.4281 128.087C92.0879 128.263 91.6973 128.351 91.2563 128.351ZM92.5037 125.346C92.4848 124.93 92.3619 124.609 92.1351 124.382C91.9083 124.155 91.6091 124.042 91.2374 124.042C90.8468 124.042 90.5255 124.155 90.2735 124.382C90.0278 124.609 89.8734 124.93 89.8104 125.346H92.5037ZM98.0817 127.529C97.8927 127.787 97.6627 127.989 97.3918 128.134C97.1209 128.279 96.8217 128.351 96.4941 128.351C96.0594 128.351 95.6751 128.244 95.3412 128.03C95.0073 127.809 94.7458 127.507 94.5568 127.123C94.3741 126.738 94.2828 126.301 94.2828 125.809C94.2828 125.318 94.3741 124.88 94.5568 124.496C94.7458 124.111 95.0073 123.812 95.3412 123.598C95.6751 123.377 96.0594 123.267 96.4941 123.267C96.8217 123.267 97.1209 123.34 97.3918 123.484C97.6627 123.629 97.8927 123.831 98.0817 124.089V123.418H99.0078V129.996H98.0817V127.529ZM96.6642 127.548C96.9477 127.548 97.1965 127.479 97.4107 127.34C97.6249 127.195 97.7887 126.994 97.9021 126.735C98.0218 126.471 98.0817 126.162 98.0817 125.809C98.0817 125.274 97.9525 124.852 97.6942 124.543C97.4422 124.228 97.0989 124.07 96.6642 124.07C96.2295 124.07 95.883 124.228 95.6247 124.543C95.3664 124.852 95.2372 125.274 95.2372 125.809C95.2372 126.162 95.2939 126.471 95.4073 126.735C95.527 126.994 95.694 127.195 95.9082 127.34C96.1287 127.479 96.3807 127.548 96.6642 127.548ZM102.117 128.351C101.569 128.351 101.144 128.178 100.842 127.831C100.539 127.479 100.388 127 100.388 126.395V123.418H101.324V126.291C101.324 126.707 101.412 127.022 101.588 127.236C101.765 127.444 102.029 127.548 102.382 127.548C102.621 127.548 102.833 127.485 103.015 127.359C103.204 127.233 103.352 127.057 103.459 126.83C103.566 126.597 103.62 126.329 103.62 126.027V123.418H104.556V128.2H103.62V127.595C103.456 127.835 103.245 128.02 102.987 128.153C102.735 128.285 102.445 128.351 102.117 128.351ZM108.089 128.351C107.61 128.351 107.188 128.244 106.823 128.03C106.464 127.809 106.186 127.507 105.991 127.123C105.802 126.732 105.708 126.291 105.708 125.8C105.708 125.321 105.802 124.889 105.991 124.505C106.18 124.121 106.454 123.818 106.813 123.598C107.172 123.377 107.591 123.267 108.07 123.267C108.53 123.267 108.924 123.371 109.251 123.579C109.579 123.787 109.828 124.08 109.998 124.458C110.168 124.83 110.253 125.267 110.253 125.771C110.253 125.86 110.25 125.938 110.244 126.008H106.615C106.646 126.524 106.791 126.915 107.05 127.179C107.314 127.438 107.67 127.567 108.117 127.567C108.439 127.567 108.713 127.501 108.94 127.368C109.166 127.23 109.374 127.041 109.563 126.801L110.149 127.312C109.897 127.646 109.601 127.904 109.261 128.087C108.921 128.263 108.53 128.351 108.089 128.351ZM109.336 125.346C109.318 124.93 109.195 124.609 108.968 124.382C108.741 124.155 108.442 124.042 108.07 124.042C107.68 124.042 107.358 124.155 107.106 124.382C106.861 124.609 106.706 124.93 106.643 125.346H109.336ZM113.072 128.351C112.581 128.351 112.156 128.25 111.797 128.049C111.438 127.847 111.151 127.57 110.937 127.217L111.608 126.726C111.778 126.997 111.986 127.208 112.231 127.359C112.483 127.51 112.77 127.586 113.091 127.586C113.419 127.586 113.674 127.52 113.857 127.387C114.046 127.255 114.14 127.082 114.14 126.868C114.14 126.697 114.077 126.568 113.951 126.48C113.825 126.392 113.595 126.307 113.261 126.225C113.198 126.212 113.139 126.2 113.082 126.187C113.025 126.175 112.962 126.162 112.893 126.149C112.502 126.061 112.184 125.964 111.938 125.856C111.693 125.749 111.504 125.608 111.371 125.431C111.239 125.248 111.173 125.012 111.173 124.722C111.173 124.433 111.249 124.177 111.4 123.957C111.557 123.736 111.778 123.566 112.061 123.447C112.345 123.327 112.669 123.267 113.035 123.267C113.488 123.267 113.86 123.352 114.15 123.522C114.44 123.692 114.692 123.922 114.906 124.212L114.282 124.713C114.106 124.492 113.923 124.326 113.734 124.212C113.551 124.092 113.324 124.033 113.054 124.033C112.77 124.033 112.54 124.092 112.364 124.212C112.187 124.326 112.099 124.477 112.099 124.666C112.099 124.836 112.175 124.962 112.326 125.044C112.477 125.126 112.748 125.211 113.139 125.299C113.164 125.305 113.189 125.311 113.214 125.318C113.239 125.324 113.265 125.33 113.29 125.337C113.712 125.419 114.049 125.516 114.301 125.63C114.559 125.737 114.755 125.885 114.887 126.074C115.019 126.256 115.085 126.502 115.085 126.811C115.085 127.113 115.003 127.381 114.84 127.614C114.682 127.847 114.452 128.03 114.15 128.162C113.847 128.288 113.488 128.351 113.072 128.351ZM117.702 128.285C117.23 128.285 116.886 128.175 116.672 127.954C116.464 127.728 116.36 127.409 116.36 127V124.193H115.595V123.418H116.36V122.19H117.296V123.418H118.326V124.193H117.296V126.953C117.296 127.142 117.346 127.277 117.447 127.359C117.554 127.441 117.715 127.482 117.929 127.482C118.03 127.482 118.159 127.472 118.316 127.453V128.209C118.102 128.26 117.897 128.285 117.702 128.285ZM121.36 128.351C120.881 128.351 120.459 128.244 120.093 128.03C119.734 127.809 119.457 127.507 119.262 127.123C119.073 126.732 118.978 126.291 118.978 125.8C118.978 125.321 119.073 124.889 119.262 124.505C119.451 124.121 119.725 123.818 120.084 123.598C120.443 123.377 120.862 123.267 121.341 123.267C121.801 123.267 122.194 123.371 122.522 123.579C122.85 123.787 123.098 124.08 123.269 124.458C123.439 124.83 123.524 125.267 123.524 125.771C123.524 125.86 123.521 125.938 123.514 126.008H119.885C119.917 126.524 120.062 126.915 120.32 127.179C120.585 127.438 120.941 127.567 121.388 127.567C121.709 127.567 121.983 127.501 122.21 127.368C122.437 127.23 122.645 127.041 122.834 126.801L123.42 127.312C123.168 127.646 122.872 127.904 122.531 128.087C122.191 128.263 121.801 128.351 121.36 128.351ZM122.607 125.346C122.588 124.93 122.465 124.609 122.239 124.382C122.012 124.155 121.712 124.042 121.341 124.042C120.95 124.042 120.629 124.155 120.377 124.382C120.131 124.609 119.977 124.93 119.914 125.346H122.607ZM126.597 128.351C126.163 128.351 125.778 128.244 125.445 128.03C125.111 127.809 124.849 127.507 124.66 127.123C124.478 126.738 124.386 126.301 124.386 125.809C124.386 125.318 124.478 124.88 124.66 124.496C124.849 124.111 125.111 123.812 125.445 123.598C125.778 123.377 126.163 123.267 126.597 123.267C126.925 123.267 127.224 123.34 127.495 123.484C127.766 123.629 127.996 123.831 128.185 124.089V121.349H129.111V128.2H128.185V127.529C127.996 127.787 127.766 127.989 127.495 128.134C127.224 128.279 126.925 128.351 126.597 128.351ZM126.768 127.548C127.051 127.548 127.3 127.479 127.514 127.34C127.728 127.195 127.892 126.994 128.006 126.735C128.125 126.471 128.185 126.162 128.185 125.809C128.185 125.274 128.056 124.852 127.798 124.543C127.546 124.228 127.202 124.07 126.768 124.07C126.333 124.07 125.986 124.228 125.728 124.543C125.47 124.852 125.341 125.274 125.341 125.809C125.341 126.162 125.397 126.471 125.511 126.735C125.63 126.994 125.797 127.195 126.012 127.34C126.232 127.479 126.484 127.548 126.768 127.548Z" fill="#974E00"/>
<rect width="174" height="30.4" transform="translate(0 139.9)" fill="white"/>
<rect x="14.4" y="145.9" width="109.3" height="18.4" rx="9.2" fill="#FFE6CC"/>
<g clip-path="url(#clip4_2148_7452)">
<path d="M25.5375 152.4C25.5375 152.12 25.3108 151.894 25.0313 151.894C24.7517 151.894 24.525 152.12 24.525 152.4V155.269C24.525 155.548 24.7517 155.775 25.0313 155.775H27.9C28.1796 155.775 28.4063 155.548 28.4063 155.269C28.4063 154.989 28.1796 154.763 27.9 154.763H25.5375V152.4Z" fill="#974E00"/>
<path fill-rule="evenodd" clip-rule="evenodd" d="M25.2 149.7C22.2177 149.7 19.8 152.118 19.8 155.1C19.8 158.082 22.2177 160.5 25.2 160.5C28.1823 160.5 30.6 158.082 30.6 155.1C30.6 152.118 28.1823 149.7 25.2 149.7ZM20.8125 155.1C20.8125 152.677 22.7769 150.713 25.2 150.713C27.6232 150.713 29.5875 152.677 29.5875 155.1C29.5875 157.523 27.6232 159.488 25.2 159.488C22.7769 159.488 20.8125 157.523 20.8125 155.1Z" fill="#974E00"/>
</g>
<path d="M36.0311 158.6L33.5646 151.947H34.6041L36.6264 157.428L38.6393 151.947H39.6882L37.2123 158.6H36.0311ZM42.0498 158.751C41.571 158.751 41.1489 158.644 40.7835 158.43C40.4244 158.209 40.1472 157.907 39.9519 157.523C39.7629 157.132 39.6684 156.691 39.6684 156.2C39.6684 155.721 39.7629 155.289 39.9519 154.905C40.1409 154.521 40.415 154.218 40.7741 153.998C41.1332 153.777 41.5521 153.667 42.0309 153.667C42.4908 153.667 42.8846 153.771 43.2122 153.979C43.5398 154.187 43.7886 154.48 43.9587 154.858C44.1288 155.23 44.2139 155.667 44.2139 156.171C44.2139 156.26 44.2107 156.338 44.2044 156.408H40.5756C40.6071 156.924 40.752 157.315 41.0103 157.579C41.2749 157.838 41.6309 157.967 42.0782 157.967C42.3995 157.967 42.6735 157.901 42.9003 157.768C43.1271 157.63 43.335 157.441 43.524 157.201L44.1099 157.712C43.8579 158.046 43.5618 158.304 43.2216 158.487C42.8814 158.663 42.4908 158.751 42.0498 158.751ZM43.2972 155.746C43.2783 155.33 43.1555 155.009 42.9287 154.782C42.7019 154.555 42.4026 154.442 42.0309 154.442C41.6403 154.442 41.319 154.555 41.067 154.782C40.8213 155.009 40.667 155.33 40.604 155.746H43.2972ZM45.3605 158.6V153.818H46.296V154.593C46.422 154.335 46.5953 154.133 46.8158 153.988C47.0363 153.844 47.2977 153.771 47.6001 153.771C47.6442 153.771 47.6852 153.774 47.723 153.781C47.7608 153.781 47.8017 153.784 47.8458 153.79V154.678C47.7702 154.666 47.6852 154.659 47.5907 154.659C47.2001 154.659 46.8851 154.792 46.6457 155.056C46.4126 155.315 46.296 155.664 46.296 156.105V158.6H45.3605ZM48.7379 158.6V153.818H49.6735V158.6H48.7379ZM49.2104 153.1C49.034 153.1 48.8828 153.04 48.7568 152.921C48.6371 152.795 48.5773 152.643 48.5773 152.467C48.5773 152.291 48.6371 152.143 48.7568 152.023C48.8828 151.897 49.034 151.834 49.2104 151.834C49.3805 151.834 49.5286 151.897 49.6546 152.023C49.7806 152.143 49.8436 152.291 49.8436 152.467C49.8436 152.643 49.7806 152.795 49.6546 152.921C49.5286 153.04 49.3805 153.1 49.2104 153.1ZM51.4496 158.6V154.593H50.5613V153.818H51.4496V153.166C51.4496 152.725 51.5725 152.369 51.8182 152.098C52.0639 151.828 52.4356 151.692 52.9333 151.692C53.0971 151.692 53.2703 151.711 53.453 151.749V152.524C53.3459 152.505 53.2231 152.495 53.0845 152.495C52.8514 152.495 52.6781 152.555 52.5647 152.675C52.4513 152.795 52.3946 152.971 52.3946 153.204V153.818H53.453V154.593H52.3946V158.6H51.4496ZM54.3488 158.6V153.818H55.2844V158.6H54.3488ZM54.8213 153.1C54.6449 153.1 54.4937 153.04 54.3677 152.921C54.248 152.795 54.1882 152.643 54.1882 152.467C54.1882 152.291 54.248 152.143 54.3677 152.023C54.4937 151.897 54.6449 151.834 54.8213 151.834C54.9914 151.834 55.1395 151.897 55.2655 152.023C55.3915 152.143 55.4545 152.291 55.4545 152.467C55.4545 152.643 55.3915 152.795 55.2655 152.921C55.1395 153.04 54.9914 153.1 54.8213 153.1ZM58.8372 158.742C58.3521 158.742 57.9268 158.635 57.5614 158.42C57.196 158.206 56.9157 157.907 56.7204 157.523C56.5251 157.138 56.4274 156.701 56.4274 156.209C56.4274 155.724 56.5251 155.289 56.7204 154.905C56.9157 154.521 57.1929 154.218 57.552 153.998C57.9174 153.777 58.3458 153.667 58.8372 153.667C59.1333 153.667 59.4042 153.714 59.6499 153.809C59.8956 153.897 60.1098 154.023 60.2925 154.187C60.4752 154.351 60.6327 154.543 60.765 154.763L60.1035 155.255C59.9586 155.028 59.7822 154.848 59.5743 154.716C59.3727 154.577 59.1301 154.508 58.8466 154.508C58.5316 154.508 58.2639 154.584 58.0434 154.735C57.8229 154.88 57.6559 155.081 57.5425 155.34C57.4354 155.598 57.3819 155.888 57.3819 156.209C57.3819 156.53 57.4354 156.82 57.5425 157.079C57.6559 157.337 57.8229 157.542 58.0434 157.693C58.2639 157.838 58.5316 157.91 58.8466 157.91C59.1238 157.91 59.3664 157.844 59.5743 157.712C59.7822 157.573 59.9586 157.39 60.1035 157.164L60.765 157.636C60.6453 157.857 60.4941 158.052 60.3114 158.222C60.135 158.386 59.9208 158.512 59.6688 158.6C59.4231 158.695 59.1459 158.742 58.8372 158.742ZM63.0243 158.713C62.6904 158.713 62.4038 158.654 62.1644 158.534C61.9313 158.414 61.7549 158.25 61.6352 158.042C61.5155 157.835 61.4556 157.601 61.4556 157.343C61.4556 156.921 61.6005 156.587 61.8903 156.341C62.1864 156.096 62.618 155.929 63.185 155.841L64.1489 155.699C64.319 155.674 64.4355 155.633 64.4985 155.576C64.5615 155.513 64.593 155.425 64.593 155.311C64.593 155.066 64.5017 154.864 64.319 154.707C64.1363 154.543 63.8843 154.461 63.563 154.461C63.2858 154.461 63.0464 154.527 62.8448 154.659C62.6432 154.792 62.4605 154.981 62.2967 155.226L61.5785 154.82C61.7171 154.568 61.884 154.357 62.0793 154.187C62.2809 154.017 62.5046 153.888 62.7503 153.799C63.0023 153.711 63.2795 153.667 63.5819 153.667C63.9725 153.667 64.3127 153.74 64.6025 153.884C64.8923 154.023 65.1159 154.222 65.2734 154.48C65.4309 154.732 65.5097 155.025 65.5097 155.359V158.6H64.593V157.731C64.4418 158.039 64.2276 158.282 63.9504 158.458C63.6732 158.628 63.3645 158.713 63.0243 158.713ZM63.2606 157.967C63.5252 157.967 63.7583 157.901 63.9599 157.768C64.1615 157.63 64.3158 157.444 64.4229 157.211C64.5363 156.971 64.593 156.701 64.593 156.398V156.171C64.5489 156.197 64.4859 156.222 64.404 156.247C64.3221 156.266 64.2308 156.285 64.13 156.304L63.4307 156.417C63.1031 156.467 62.8448 156.559 62.6558 156.691C62.4731 156.817 62.3817 157.003 62.3817 157.249C62.3817 157.469 62.4605 157.646 62.618 157.778C62.7755 157.904 62.9897 157.967 63.2606 157.967ZM68.3387 158.685C67.8662 158.685 67.5228 158.575 67.3086 158.354C67.1007 158.128 66.9968 157.809 66.9968 157.4V154.593H66.2313V153.818H66.9968V152.59H67.9323V153.818H68.9624V154.593H67.9323V157.353C67.9323 157.542 67.9827 157.677 68.0835 157.759C68.1906 157.841 68.3513 157.882 68.5655 157.882C68.6663 157.882 68.7954 157.872 68.9529 157.853V158.609C68.7387 158.66 68.534 158.685 68.3387 158.685ZM69.9635 158.6V153.818H70.899V158.6H69.9635ZM70.436 153.1C70.2596 153.1 70.1084 153.04 69.9824 152.921C69.8627 152.795 69.8028 152.643 69.8028 152.467C69.8028 152.291 69.8627 152.143 69.9824 152.023C70.1084 151.897 70.2596 151.834 70.436 151.834C70.6061 151.834 70.7541 151.897 70.8801 152.023C71.0061 152.143 71.0691 152.291 71.0691 152.467C71.0691 152.643 71.0061 152.795 70.8801 152.921C70.7541 153.04 70.6061 153.1 70.436 153.1ZM74.4234 158.751C73.9572 158.751 73.5446 158.644 73.1855 158.43C72.8264 158.216 72.546 157.916 72.3444 157.532C72.1428 157.148 72.042 156.707 72.042 156.209C72.042 155.718 72.1428 155.28 72.3444 154.896C72.546 154.505 72.8264 154.203 73.1855 153.988C73.5446 153.774 73.9572 153.667 74.4234 153.667C74.8833 153.667 75.2928 153.774 75.6519 153.988C76.011 154.203 76.2882 154.505 76.4835 154.896C76.6851 155.28 76.7859 155.718 76.7859 156.209C76.7859 156.707 76.6851 157.148 76.4835 157.532C76.2882 157.916 76.011 158.216 75.6519 158.43C75.2928 158.644 74.8833 158.751 74.4234 158.751ZM74.4234 157.948C74.7069 157.948 74.9526 157.879 75.1605 157.74C75.3747 157.601 75.5385 157.403 75.6519 157.145C75.7653 156.88 75.822 156.568 75.822 156.209C75.822 155.85 75.7653 155.541 75.6519 155.283C75.5448 155.018 75.3842 154.817 75.17 154.678C74.9621 154.54 74.7132 154.47 74.4234 154.47C74.1273 154.47 73.8722 154.54 73.658 154.678C73.4501 154.817 73.2863 155.018 73.1666 155.283C73.0532 155.541 72.9965 155.85 72.9965 156.209C72.9965 156.568 73.0532 156.877 73.1666 157.135C73.2863 157.394 73.4532 157.595 73.6674 157.74C73.8816 157.879 74.1336 157.948 74.4234 157.948ZM77.9372 158.6V153.818H78.8727V154.423C79.0365 154.184 79.2444 153.998 79.4964 153.866C79.7547 153.733 80.0477 153.667 80.3753 153.667C80.9171 153.667 81.3392 153.844 81.6416 154.196C81.9503 154.543 82.1046 155.018 82.1046 155.623V158.6H81.1691V155.718C81.1691 155.308 81.0809 155 80.9045 154.792C80.7281 154.577 80.4635 154.47 80.1107 154.47C79.865 154.47 79.6476 154.533 79.4586 154.659C79.2759 154.779 79.131 154.955 79.0239 155.189C78.9231 155.415 78.8727 155.683 78.8727 155.992V158.6H77.9372ZM87.8694 158.751C87.3906 158.751 86.9685 158.644 86.6031 158.43C86.244 158.209 85.9668 157.907 85.7715 157.523C85.5825 157.132 85.488 156.691 85.488 156.2C85.488 155.721 85.5825 155.289 85.7715 154.905C85.9605 154.521 86.2345 154.218 86.5936 153.998C86.9527 153.777 87.3717 153.667 87.8505 153.667C88.3104 153.667 88.7041 153.771 89.0317 153.979C89.3593 154.187 89.6082 154.48 89.7783 154.858C89.9484 155.23 90.0334 155.667 90.0334 156.171C90.0334 156.26 90.0303 156.338 90.024 156.408H86.3952C86.4267 156.924 86.5716 157.315 86.8299 157.579C87.0945 157.838 87.4504 157.967 87.8977 157.967C88.219 157.967 88.4931 157.901 88.7199 157.768C88.9467 157.63 89.1546 157.441 89.3436 157.201L89.9295 157.712C89.6775 158.046 89.3814 158.304 89.0412 158.487C88.701 158.663 88.3104 158.751 87.8694 158.751ZM89.1168 155.746C89.0979 155.33 88.975 155.009 88.7482 154.782C88.5214 154.555 88.2222 154.442 87.8505 154.442C87.4599 154.442 87.1386 154.555 86.8866 154.782C86.6409 155.009 86.4865 155.33 86.4235 155.746H89.1168ZM90.503 158.6L92.2701 156.209L90.4935 153.818H91.5803L92.856 155.519L94.1129 153.818H95.1713L93.4136 156.2L95.1713 158.6H94.1034L92.8466 156.89L91.5803 158.6H90.503ZM96.0989 160.396V153.818H97.025V154.489C97.2077 154.231 97.4345 154.029 97.7054 153.884C97.9826 153.74 98.285 153.667 98.6126 153.667C99.041 153.667 99.4221 153.777 99.756 153.998C100.096 154.212 100.358 154.511 100.54 154.896C100.729 155.28 100.824 155.718 100.824 156.209C100.824 156.701 100.729 157.138 100.54 157.523C100.358 157.907 100.096 158.209 99.756 158.43C99.4221 158.644 99.041 158.751 98.6126 158.751C98.285 158.751 97.9826 158.679 97.7054 158.534C97.4345 158.389 97.2077 158.187 97.025 157.929V160.396H96.0989ZM98.433 157.948C98.7228 157.948 98.9748 157.879 99.189 157.74C99.4032 157.595 99.567 157.394 99.6804 157.135C99.8001 156.871 99.86 156.562 99.86 156.209C99.86 155.674 99.7308 155.252 99.4725 154.943C99.2205 154.628 98.874 154.47 98.433 154.47C97.9983 154.47 97.655 154.628 97.403 154.943C97.151 155.252 97.025 155.674 97.025 156.209C97.025 156.562 97.0817 156.871 97.1951 157.135C97.3148 157.394 97.4786 157.595 97.6865 157.74C97.9007 157.879 98.1495 157.948 98.433 157.948ZM101.968 158.6V153.818H102.904V158.6H101.968ZM102.44 153.1C102.264 153.1 102.113 153.04 101.987 152.921C101.867 152.795 101.807 152.643 101.807 152.467C101.807 152.291 101.867 152.143 101.987 152.023C102.113 151.897 102.264 151.834 102.44 151.834C102.611 151.834 102.759 151.897 102.885 152.023C103.011 152.143 103.074 152.291 103.074 152.467C103.074 152.643 103.011 152.795 102.885 152.921C102.759 153.04 102.611 153.1 102.44 153.1ZM104.358 158.6V153.818H105.294V154.593C105.42 154.335 105.593 154.133 105.814 153.988C106.034 153.844 106.296 153.771 106.598 153.771C106.642 153.771 106.683 153.774 106.721 153.781C106.759 153.781 106.8 153.784 106.844 153.79V154.678C106.768 154.666 106.683 154.659 106.589 154.659C106.198 154.659 105.883 154.792 105.644 155.056C105.41 155.315 105.294 155.664 105.294 156.105V158.6H104.358ZM109.815 158.751C109.336 158.751 108.914 158.644 108.549 158.43C108.189 158.209 107.912 157.907 107.717 157.523C107.528 157.132 107.433 156.691 107.433 156.2C107.433 155.721 107.528 155.289 107.717 154.905C107.906 154.521 108.18 154.218 108.539 153.998C108.898 153.777 109.317 153.667 109.796 153.667C110.256 153.667 110.65 153.771 110.977 153.979C111.305 154.187 111.554 154.48 111.724 154.858C111.894 155.23 111.979 155.667 111.979 156.171C111.979 156.26 111.976 156.338 111.969 156.408H108.341C108.372 156.924 108.517 157.315 108.775 157.579C109.04 157.838 109.396 157.967 109.843 157.967C110.164 157.967 110.439 157.901 110.665 157.768C110.892 157.63 111.1 157.441 111.289 157.201L111.875 157.712C111.623 158.046 111.327 158.304 110.987 158.487C110.646 158.663 110.256 158.751 109.815 158.751ZM111.062 155.746C111.043 155.33 110.92 155.009 110.694 154.782C110.467 154.555 110.168 154.442 109.796 154.442C109.405 154.442 109.084 154.555 108.832 154.782C108.586 155.009 108.432 155.33 108.369 155.746H111.062ZM115.053 158.751C114.618 158.751 114.234 158.644 113.9 158.43C113.566 158.209 113.304 157.907 113.115 157.523C112.933 157.138 112.841 156.701 112.841 156.209C112.841 155.718 112.933 155.28 113.115 154.896C113.304 154.511 113.566 154.212 113.9 153.998C114.234 153.777 114.618 153.667 115.053 153.667C115.38 153.667 115.679 153.74 115.95 153.884C116.221 154.029 116.451 154.231 116.64 154.489V151.749H117.566V158.6H116.64V157.929C116.451 158.187 116.221 158.389 115.95 158.534C115.679 158.679 115.38 158.751 115.053 158.751ZM115.223 157.948C115.506 157.948 115.755 157.879 115.969 157.74C116.183 157.595 116.347 157.394 116.461 157.135C116.58 156.871 116.64 156.562 116.64 156.209C116.64 155.674 116.511 155.252 116.253 154.943C116.001 154.628 115.657 154.47 115.223 154.47C114.788 154.47 114.442 154.628 114.183 154.943C113.925 155.252 113.796 155.674 113.796 156.209C113.796 156.562 113.852 156.871 113.966 157.135C114.086 157.394 114.253 157.595 114.467 157.74C114.687 157.879 114.939 157.948 115.223 157.948Z" fill="#974E00"/>
<rect width="174" height="30.4" transform="translate(0 170.3)" fill="white"/>
<rect x="14.4" y="176.3" width="66.3" height="18.4" rx="9.2" fill="#FFE6E6"/>
<g clip-path="url(#clip5_2148_7452)">
<path fill-rule="evenodd" clip-rule="evenodd" d="M25.2 189.887C27.6232 189.887 29.5875 187.923 29.5875 185.5C29.5875 183.077 27.6232 181.112 25.2 181.112C22.7769 181.112 20.8125 183.077 20.8125 185.5C20.8125 187.923 22.7769 189.887 25.2 189.887ZM25.2 190.9C28.1823 190.9 30.6 188.482 30.6 185.5C30.6 182.518 28.1823 180.1 25.2 180.1C22.2177 180.1 19.8 182.518 19.8 185.5C19.8 188.482 22.2177 190.9 25.2 190.9Z" fill="#BA1B1B"/>
<path d="M27.2455 184.17C27.4432 183.973 27.4432 183.652 27.2455 183.455C27.0478 183.257 26.7272 183.257 26.5295 183.455L25.2 184.784L23.8705 183.455C23.6728 183.257 23.3522 183.257 23.1545 183.455C22.9568 183.652 22.9568 183.973 23.1545 184.17L24.4841 185.5L23.1545 186.83C22.9568 187.027 22.9568 187.348 23.1545 187.545C23.3522 187.743 23.6728 187.743 23.8705 187.545L25.2 186.216L26.5295 187.545C26.7272 187.743 27.0478 187.743 27.2455 187.545C27.4432 187.348 27.4432 187.027 27.2455 186.83L25.9159 185.5L27.2455 184.17Z" fill="#BA1B1B"/>
</g>
<path d="M37.0895 189.151C36.428 189.151 35.8515 189.003 35.3601 188.707C34.875 188.411 34.5002 188.001 34.2356 187.479C33.971 186.956 33.8387 186.36 33.8387 185.692C33.8387 185.025 33.971 184.426 34.2356 183.897C34.5002 183.368 34.875 182.952 35.3601 182.65C35.8515 182.347 36.428 182.196 37.0895 182.196C37.7447 182.196 38.3148 182.347 38.7999 182.65C39.2913 182.946 39.6662 183.362 39.9245 183.897C40.1828 184.426 40.3119 185.025 40.3119 185.692C40.3119 186.36 40.1828 186.956 39.9245 187.479C39.6662 188.001 39.2945 188.411 38.8094 188.707C38.3243 189.003 37.751 189.151 37.0895 189.151ZM37.08 188.272C37.5399 188.272 37.94 188.165 38.2802 187.951C38.6204 187.731 38.8787 187.425 39.0551 187.034C39.2378 186.644 39.3291 186.196 39.3291 185.692C39.3291 185.182 39.2378 184.732 39.0551 184.341C38.8724 183.944 38.6109 183.636 38.2707 183.415C37.9368 183.188 37.5399 183.075 37.08 183.075C36.6264 183.075 36.2295 183.188 35.8893 183.415C35.5491 183.636 35.2845 183.944 35.0955 184.341C34.9128 184.732 34.8215 185.182 34.8215 185.692C34.8215 186.196 34.9128 186.644 35.0955 187.034C35.2782 187.425 35.5397 187.731 35.8799 187.951C36.2201 188.165 36.6201 188.272 37.08 188.272ZM43.2303 189.151C42.6822 189.151 42.257 188.978 41.9546 188.631C41.6522 188.279 41.501 187.8 41.501 187.195V184.218H42.4365V187.091C42.4365 187.507 42.5247 187.822 42.7011 188.036C42.8775 188.244 43.1421 188.348 43.4949 188.348C43.7343 188.348 43.9454 188.285 44.1281 188.159C44.3171 188.033 44.4651 187.857 44.5722 187.63C44.6793 187.397 44.7329 187.129 44.7329 186.827V184.218H45.6684V189H44.7329V188.395C44.5691 188.635 44.358 188.82 44.0997 188.953C43.8477 189.085 43.5579 189.151 43.2303 189.151ZM48.6727 189.085C48.2002 189.085 47.8569 188.975 47.6427 188.754C47.4348 188.527 47.3308 188.209 47.3308 187.8V184.993H46.5654V184.218H47.3308V182.99H48.2664V184.218H49.2964V184.993H48.2664V187.753C48.2664 187.942 48.3168 188.077 48.4176 188.159C48.5247 188.241 48.6853 188.282 48.8995 188.282C49.0003 188.282 49.1295 188.272 49.287 188.253V189.009C49.0728 189.06 48.868 189.085 48.6727 189.085ZM52.1603 189.151C51.7256 189.151 51.3413 189.044 51.0074 188.83C50.6735 188.609 50.412 188.307 50.223 187.923C50.0403 187.538 49.949 187.101 49.949 186.609C49.949 186.118 50.0403 185.68 50.223 185.296C50.412 184.911 50.6735 184.612 51.0074 184.398C51.3413 184.177 51.7256 184.067 52.1603 184.067C52.4879 184.067 52.7871 184.14 53.058 184.284C53.3289 184.429 53.5589 184.631 53.7479 184.889V182.149H54.674V189H53.7479V188.329C53.5589 188.587 53.3289 188.789 53.058 188.934C52.7871 189.079 52.4879 189.151 52.1603 189.151ZM52.3304 188.348C52.6139 188.348 52.8627 188.279 53.0769 188.14C53.2911 187.995 53.4549 187.794 53.5683 187.535C53.688 187.271 53.7479 186.962 53.7479 186.609C53.7479 186.074 53.6187 185.652 53.3604 185.343C53.1084 185.028 52.7651 184.87 52.3304 184.87C51.8957 184.87 51.5492 185.028 51.2909 185.343C51.0326 185.652 50.9034 186.074 50.9034 186.609C50.9034 186.962 50.9601 187.271 51.0735 187.535C51.1932 187.794 51.3602 187.995 51.5744 188.14C51.7949 188.279 52.0469 188.348 52.3304 188.348ZM57.3395 189.113C57.0056 189.113 56.719 189.054 56.4796 188.934C56.2465 188.814 56.0701 188.65 55.9504 188.442C55.8307 188.235 55.7708 188.001 55.7708 187.743C55.7708 187.321 55.9157 186.987 56.2055 186.741C56.5016 186.496 56.9332 186.329 57.5002 186.241L58.4641 186.099C58.6342 186.074 58.7507 186.033 58.8137 185.976C58.8767 185.913 58.9082 185.825 58.9082 185.711C58.9082 185.466 58.8169 185.264 58.6342 185.107C58.4515 184.943 58.1995 184.861 57.8782 184.861C57.601 184.861 57.3616 184.927 57.16 185.059C56.9584 185.192 56.7757 185.381 56.6119 185.626L55.8937 185.22C56.0323 184.968 56.1992 184.757 56.3945 184.587C56.5961 184.417 56.8198 184.288 57.0655 184.199C57.3175 184.111 57.5947 184.067 57.8971 184.067C58.2877 184.067 58.6279 184.14 58.9177 184.284C59.2075 184.423 59.4311 184.621 59.5886 184.88C59.7461 185.132 59.8249 185.425 59.8249 185.759V189H58.9082V188.131C58.757 188.439 58.5428 188.682 58.2656 188.858C57.9884 189.028 57.6797 189.113 57.3395 189.113ZM57.5758 188.367C57.8404 188.367 58.0735 188.301 58.2751 188.168C58.4767 188.03 58.631 187.844 58.7381 187.611C58.8515 187.371 58.9082 187.101 58.9082 186.798V186.571C58.8641 186.597 58.8011 186.622 58.7192 186.647C58.6373 186.666 58.546 186.685 58.4452 186.704L57.7459 186.817C57.4183 186.867 57.16 186.959 56.971 187.091C56.7883 187.217 56.6969 187.403 56.6969 187.649C56.6969 187.869 56.7757 188.046 56.9332 188.178C57.0907 188.304 57.3049 188.367 57.5758 188.367ZM62.6539 189.085C62.1814 189.085 61.8381 188.975 61.6239 188.754C61.416 188.527 61.312 188.209 61.312 187.8V184.993H60.5466V184.218H61.312V182.99H62.2476V184.218H63.2776V184.993H62.2476V187.753C62.2476 187.942 62.298 188.077 62.3988 188.159C62.5059 188.241 62.6665 188.282 62.8807 188.282C62.9815 188.282 63.1107 188.272 63.2682 188.253V189.009C63.054 189.06 62.8492 189.085 62.6539 189.085ZM66.3116 189.151C65.8328 189.151 65.4107 189.044 65.0453 188.83C64.6862 188.609 64.409 188.307 64.2137 187.923C64.0247 187.532 63.9302 187.091 63.9302 186.6C63.9302 186.121 64.0247 185.689 64.2137 185.305C64.4027 184.921 64.6767 184.618 65.0358 184.398C65.3949 184.177 65.8139 184.067 66.2927 184.067C66.7526 184.067 67.1463 184.171 67.4739 184.379C67.8015 184.587 68.0504 184.88 68.2205 185.258C68.3906 185.629 68.4756 186.067 68.4756 186.571C68.4756 186.66 68.4725 186.738 68.4662 186.808H64.8374C64.8689 187.324 65.0138 187.715 65.2721 187.979C65.5367 188.238 65.8926 188.367 66.3399 188.367C66.6612 188.367 66.9353 188.301 67.1621 188.168C67.3889 188.03 67.5968 187.841 67.7858 187.601L68.3717 188.112C68.1197 188.446 67.8236 188.704 67.4834 188.887C67.1432 189.063 66.7526 189.151 66.3116 189.151ZM67.559 186.146C67.5401 185.73 67.4172 185.409 67.1904 185.182C66.9636 184.955 66.6644 184.842 66.2927 184.842C65.9021 184.842 65.5808 184.955 65.3288 185.182C65.0831 185.409 64.9287 185.73 64.8657 186.146H67.559ZM71.5494 189.151C71.1147 189.151 70.7304 189.044 70.3965 188.83C70.0626 188.609 69.8011 188.307 69.6121 187.923C69.4294 187.538 69.3381 187.101 69.3381 186.609C69.3381 186.118 69.4294 185.68 69.6121 185.296C69.8011 184.911 70.0626 184.612 70.3965 184.398C70.7304 184.177 71.1147 184.067 71.5494 184.067C71.877 184.067 72.1762 184.14 72.4471 184.284C72.718 184.429 72.948 184.631 73.137 184.889V182.149H74.0631V189H73.137V188.329C72.948 188.587 72.718 188.789 72.4471 188.934C72.1762 189.079 71.877 189.151 71.5494 189.151ZM71.7195 188.348C72.003 188.348 72.2518 188.279 72.466 188.14C72.6802 187.995 72.844 187.794 72.9574 187.535C73.0771 187.271 73.137 186.962 73.137 186.609C73.137 186.074 73.0078 185.652 72.7495 185.343C72.4975 185.028 72.1542 184.87 71.7195 184.87C71.2848 184.87 70.9383 185.028 70.68 185.343C70.4217 185.652 70.2925 186.074 70.2925 186.609C70.2925 186.962 70.3492 187.271 70.4626 187.535C70.5823 187.794 70.7493 187.995 70.9635 188.14C71.184 188.279 71.436 188.348 71.7195 188.348Z" fill="#BA1B1B"/>
<defs>
<clipPath id="clip0_2148_7452">
<rect y="7.20001" width="174" height="33.4" rx="7.2" fill="white"/>
</clipPath>
<clipPath id="clip1_2148_7452">
<rect width="10.8" height="10.8" fill="white" transform="translate(19.8 58.5)"/>
</clipPath>
<clipPath id="clip2_2148_7452">
<rect width="10.8" height="10.8" fill="white" transform="translate(19.8 88.9)"/>
</clipPath>
<clipPath id="clip3_2148_7452">
<rect width="10.8" height="10.8" fill="white" transform="translate(19.8 119.3)"/>
</clipPath>
<clipPath id="clip4_2148_7452">
<rect width="10.8" height="10.8" fill="white" transform="translate(19.8 149.7)"/>
</clipPath>
<clipPath id="clip5_2148_7452">
<rect width="10.8" height="10.8" fill="white" transform="translate(19.8 180.1)"/>
</clipPath>
</defs>
</svg>
