<svg width="149" height="34" viewBox="0 0 149 34" fill="none" xmlns="http://www.w3.org/2000/svg">
<rect width="149" height="34" fill="white"/>
<path fill-rule="evenodd" clip-rule="evenodd" d="M12 13.25C12 12.0074 13.0074 11 14.25 11H14.375C14.7892 11 15.125 11.3358 15.125 11.75C15.125 12.1642 14.7892 12.5 14.375 12.5H14.25C13.8358 12.5 13.5 12.8358 13.5 13.25V13.375C13.5 13.7892 13.1642 14.125 12.75 14.125C12.3358 14.125 12 13.7892 12 13.375V13.25ZM16.25 11.75C16.25 11.3358 16.5858 11 17 11L19 11C19.4142 11 19.75 11.3358 19.75 11.75C19.75 12.1642 19.4142 12.5 19 12.5L17 12.5C16.5858 12.5 16.25 12.1642 16.25 11.75ZM20.875 11.75C20.875 11.3358 21.2108 11 21.625 11H21.75C22.9926 11 24 12.0074 24 13.25V13.375C24 13.7892 23.6642 14.125 23.25 14.125C22.8358 14.125 22.5 13.7892 22.5 13.375V13.25C22.5 12.8358 22.1642 12.5 21.75 12.5H21.625C21.2108 12.5 20.875 12.1642 20.875 11.75ZM12.75 15.75C13.1642 15.75 13.5 16.0858 13.5 16.5L13.5 18C13.5 18.4142 13.1642 18.75 12.75 18.75C12.3358 18.75 12 18.4142 12 18L12 16.5C12 16.0858 12.3358 15.75 12.75 15.75ZM23.25 15.75C23.6642 15.75 24 16.0858 24 16.5V18C24 18.4142 23.6642 18.75 23.25 18.75C22.8358 18.75 22.5 18.4142 22.5 18V16.5C22.5 16.0858 22.8358 15.75 23.25 15.75ZM12.75 19.875C13.1642 19.875 13.5 20.2108 13.5 20.625V20.75C13.5 21.1642 13.8358 21.5 14.25 21.5H14.375C14.7892 21.5 15.125 21.8358 15.125 22.25C15.125 22.6642 14.7892 23 14.375 23H14.25C13.0074 23 12 21.9926 12 20.75V20.625C12 20.2108 12.3358 19.875 12.75 19.875ZM23.25 19.875C23.6642 19.875 24 20.2108 24 20.625V20.75C24 21.9926 22.9926 23 21.75 23H21.625C21.2108 23 20.875 22.6642 20.875 22.25C20.875 21.8358 21.2108 21.5 21.625 21.5H21.75C22.1642 21.5 22.5 21.1642 22.5 20.75V20.625C22.5 20.2108 22.8358 19.875 23.25 19.875ZM16.25 22.25C16.25 21.8358 16.5858 21.5 17 21.5H19C19.4142 21.5 19.75 21.8358 19.75 22.25C19.75 22.6642 19.4142 23 19 23H17C16.5858 23 16.25 22.6642 16.25 22.25Z" fill="#6A707C"/>
<path d="M33.274 22V12.835H37.382C38.318 12.835 39.0417 13.0863 39.553 13.589C40.0643 14.0917 40.32 14.7633 40.32 15.604C40.32 16.4447 40.0643 17.1163 39.553 17.619C39.0417 18.1217 38.318 18.373 37.382 18.373H34.587V22H33.274ZM37.265 17.229C37.811 17.229 38.2313 17.086 38.526 16.8C38.8207 16.514 38.968 16.1153 38.968 15.604C38.968 15.0927 38.8207 14.6983 38.526 14.421C38.2313 14.135 37.811 13.992 37.265 13.992H34.587V17.229H37.265ZM41.7583 22V12.575H43.0323V22H41.7583ZM46.5986 22.156C46.1393 22.156 45.7449 22.0737 45.4156 21.909C45.0949 21.7443 44.8523 21.519 44.6876 21.233C44.5229 20.947 44.4406 20.6263 44.4406 20.271C44.4406 19.6903 44.6399 19.231 45.0386 18.893C45.4459 18.555 46.0396 18.3253 46.8196 18.204L48.1456 18.009C48.3796 17.9743 48.5399 17.918 48.6266 17.84C48.7133 17.7533 48.7566 17.632 48.7566 17.476C48.7566 17.138 48.6309 16.8607 48.3796 16.644C48.1283 16.4187 47.7816 16.306 47.3396 16.306C46.9583 16.306 46.6289 16.397 46.3516 16.579C46.0743 16.761 45.8229 17.021 45.5976 17.359L44.6096 16.8C44.8003 16.4533 45.0299 16.163 45.2986 15.929C45.5759 15.695 45.8836 15.5173 46.2216 15.396C46.5683 15.2747 46.9496 15.214 47.3656 15.214C47.9029 15.214 48.3709 15.3137 48.7696 15.513C49.1683 15.7037 49.4759 15.9767 49.6926 16.332C49.9093 16.6787 50.0176 17.0817 50.0176 17.541V22H48.7566V20.804C48.5486 21.2287 48.2539 21.5623 47.8726 21.805C47.4913 22.039 47.0666 22.156 46.5986 22.156ZM46.9236 21.129C47.2876 21.129 47.6083 21.038 47.8856 20.856C48.1629 20.6653 48.3753 20.4097 48.5226 20.089C48.6786 19.7597 48.7566 19.387 48.7566 18.971V18.659C48.6959 18.6937 48.6093 18.7283 48.4966 18.763C48.3839 18.789 48.2583 18.815 48.1196 18.841L47.1576 18.997C46.7069 19.0663 46.3516 19.192 46.0916 19.374C45.8403 19.5473 45.7146 19.803 45.7146 20.141C45.7146 20.4443 45.8229 20.687 46.0396 20.869C46.2563 21.0423 46.5509 21.129 46.9236 21.129ZM54.8033 22.195C54.136 22.195 53.551 22.0477 53.0483 21.753C52.5457 21.4583 52.16 21.0467 51.8913 20.518C51.6227 19.9893 51.4883 19.387 51.4883 18.711C51.4883 18.0437 51.6227 17.4457 51.8913 16.917C52.16 16.3883 52.5413 15.9723 53.0353 15.669C53.538 15.3657 54.1273 15.214 54.8033 15.214C55.2107 15.214 55.5833 15.279 55.9213 15.409C56.2593 15.5303 56.554 15.7037 56.8053 15.929C57.0567 16.1543 57.2733 16.4187 57.4553 16.722L56.5453 17.398C56.346 17.086 56.1033 16.839 55.8173 16.657C55.54 16.4663 55.2063 16.371 54.8163 16.371C54.383 16.371 54.0147 16.475 53.7113 16.683C53.408 16.8823 53.1783 17.1597 53.0223 17.515C52.875 17.8703 52.8013 18.269 52.8013 18.711C52.8013 19.153 52.875 19.5517 53.0223 19.907C53.1783 20.2623 53.408 20.544 53.7113 20.752C54.0147 20.9513 54.383 21.051 54.8163 21.051C55.1977 21.051 55.5313 20.96 55.8173 20.778C56.1033 20.5873 56.346 20.336 56.5453 20.024L57.4553 20.674C57.2907 20.9773 57.0827 21.246 56.8313 21.48C56.5887 21.7053 56.294 21.8787 55.9473 22C55.6093 22.13 55.228 22.195 54.8033 22.195ZM61.6706 22.208C61.0119 22.208 60.4312 22.0607 59.9286 21.766C59.4346 21.4627 59.0532 21.0467 58.7846 20.518C58.5246 19.9807 58.3946 19.374 58.3946 18.698C58.3946 18.0393 58.5246 17.4457 58.7846 16.917C59.0446 16.3883 59.4216 15.9723 59.9156 15.669C60.4096 15.3657 60.9859 15.214 61.6446 15.214C62.2772 15.214 62.8189 15.357 63.2696 15.643C63.7202 15.929 64.0626 16.332 64.2966 16.852C64.5306 17.3633 64.6476 17.9657 64.6476 18.659C64.6476 18.7803 64.6432 18.8887 64.6346 18.984H59.6426C59.6859 19.6947 59.8852 20.232 60.2406 20.596C60.6046 20.9513 61.0942 21.129 61.7096 21.129C62.1516 21.129 62.5286 21.038 62.8406 20.856C63.1526 20.6653 63.4386 20.4053 63.6986 20.076L64.5046 20.778C64.1579 21.2373 63.7506 21.5927 63.2826 21.844C62.8146 22.0867 62.2772 22.208 61.6706 22.208ZM63.3866 18.074C63.3606 17.502 63.1916 17.06 62.8796 16.748C62.5676 16.436 62.1559 16.28 61.6446 16.28C61.1072 16.28 60.6652 16.436 60.3186 16.748C59.9806 17.06 59.7682 17.502 59.6816 18.074H63.3866ZM66.2249 22V12.575H67.4989V16.254C67.7243 15.9247 68.0103 15.669 68.3569 15.487C68.7123 15.305 69.1153 15.214 69.5659 15.214C70.3113 15.214 70.8919 15.4567 71.3079 15.942C71.7326 16.4187 71.9449 17.073 71.9449 17.905V22H70.6579V18.035C70.6579 17.4717 70.5366 17.047 70.2939 16.761C70.0513 16.4663 69.6873 16.319 69.2019 16.319C68.8639 16.319 68.5649 16.4057 68.3049 16.579C68.0536 16.7437 67.8543 16.9863 67.7069 17.307C67.5683 17.619 67.4989 17.9873 67.4989 18.412V22H66.2249ZM76.6891 22.208C76.0478 22.208 75.4801 22.0607 74.9861 21.766C74.4921 21.4713 74.1065 21.0597 73.8291 20.531C73.5518 20.0023 73.4131 19.3957 73.4131 18.711C73.4131 18.035 73.5518 17.4327 73.8291 16.904C74.1065 16.3667 74.4921 15.9507 74.9861 15.656C75.4801 15.3613 76.0478 15.214 76.6891 15.214C77.3218 15.214 77.8851 15.3613 78.3791 15.656C78.8731 15.9507 79.2545 16.3667 79.5231 16.904C79.8005 17.4327 79.9391 18.035 79.9391 18.711C79.9391 19.3957 79.8005 20.0023 79.5231 20.531C79.2545 21.0597 78.8731 21.4713 78.3791 21.766C77.8851 22.0607 77.3218 22.208 76.6891 22.208ZM76.6891 21.103C77.0791 21.103 77.4171 21.0077 77.7031 20.817C77.9978 20.6263 78.2231 20.3533 78.3791 19.998C78.5351 19.634 78.6131 19.205 78.6131 18.711C78.6131 18.217 78.5351 17.7923 78.3791 17.437C78.2318 17.073 78.0108 16.7957 77.7161 16.605C77.4301 16.4143 77.0878 16.319 76.6891 16.319C76.2818 16.319 75.9308 16.4143 75.6361 16.605C75.3501 16.7957 75.1248 17.073 74.9601 17.437C74.8041 17.7923 74.7261 18.217 74.7261 18.711C74.7261 19.205 74.8041 19.6297 74.9601 19.985C75.1248 20.3403 75.3545 20.6177 75.6491 20.817C75.9438 21.0077 76.2905 21.103 76.6891 21.103ZM81.4058 22V12.575H82.6798V22H81.4058ZM87.2081 22.208C86.6101 22.208 86.0814 22.0607 85.6221 21.766C85.1627 21.4627 84.8031 21.0467 84.5431 20.518C84.2917 19.9893 84.1661 19.387 84.1661 18.711C84.1661 18.035 84.2917 17.4327 84.5431 16.904C84.8031 16.3753 85.1627 15.9637 85.6221 15.669C86.0814 15.3657 86.6101 15.214 87.2081 15.214C87.6587 15.214 88.0704 15.3137 88.4431 15.513C88.8157 15.7123 89.1321 15.9897 89.3921 16.345V12.575H90.6661V22H89.3921V21.077C89.1321 21.4323 88.8157 21.7097 88.4431 21.909C88.0704 22.1083 87.6587 22.208 87.2081 22.208ZM87.4421 21.103C87.8321 21.103 88.1744 21.0077 88.4691 20.817C88.7637 20.6177 88.9891 20.3403 89.1451 19.985C89.3097 19.621 89.3921 19.1963 89.3921 18.711C89.3921 17.9743 89.2144 17.3937 88.8591 16.969C88.5124 16.5357 88.0401 16.319 87.4421 16.319C86.8441 16.319 86.3674 16.5357 86.0121 16.969C85.6567 17.3937 85.4791 17.9743 85.4791 18.711C85.4791 19.1963 85.5571 19.621 85.7131 19.985C85.8777 20.3403 86.1074 20.6177 86.4021 20.817C86.7054 21.0077 87.0521 21.103 87.4421 21.103ZM95.529 22.208C94.8703 22.208 94.2896 22.0607 93.787 21.766C93.293 21.4627 92.9116 21.0467 92.643 20.518C92.383 19.9807 92.253 19.374 92.253 18.698C92.253 18.0393 92.383 17.4457 92.643 16.917C92.903 16.3883 93.28 15.9723 93.774 15.669C94.268 15.3657 94.8443 15.214 95.503 15.214C96.1356 15.214 96.6773 15.357 97.128 15.643C97.5786 15.929 97.921 16.332 98.155 16.852C98.389 17.3633 98.506 17.9657 98.506 18.659C98.506 18.7803 98.5016 18.8887 98.493 18.984H93.501C93.5443 19.6947 93.7436 20.232 94.099 20.596C94.463 20.9513 94.9526 21.129 95.568 21.129C96.01 21.129 96.387 21.038 96.699 20.856C97.011 20.6653 97.297 20.4053 97.557 20.076L98.363 20.778C98.0163 21.2373 97.609 21.5927 97.141 21.844C96.673 22.0867 96.1356 22.208 95.529 22.208ZM97.245 18.074C97.219 17.502 97.05 17.06 96.738 16.748C96.426 16.436 96.0143 16.28 95.503 16.28C94.9656 16.28 94.5236 16.436 94.177 16.748C93.839 17.06 93.6266 17.502 93.54 18.074H97.245ZM100.083 22V15.422H101.37V16.488C101.544 16.1327 101.782 15.8553 102.085 15.656C102.389 15.4567 102.748 15.357 103.164 15.357C103.225 15.357 103.281 15.3613 103.333 15.37C103.385 15.37 103.442 15.3743 103.502 15.383V16.605C103.398 16.5877 103.281 16.579 103.151 16.579C102.614 16.579 102.181 16.761 101.851 17.125C101.531 17.4803 101.37 17.9613 101.37 18.568V22H100.083Z" fill="#3F434A"/>
</svg>
