<svg width="12" height="12" viewBox="0 0 12 12" fill="none" xmlns="http://www.w3.org/2000/svg">
<g clip-path="url(#clip0_2080_21440)">
<path d="M5.10617 0.0662028C5.39808 0.0225671 5.69658 0 6 0C7.53336 0 8.93238 0.575199 9.99306 1.52159C10.1343 1.64757 10.2694 1.78012 10.3982 1.91877C11.3507 2.94478 11.9485 4.30459 11.9968 5.80326C11.9989 5.8686 12 5.93418 12 6C12 6.03793 11.9996 6.07578 11.9989 6.11355C11.9713 7.6032 11.4008 8.96012 10.4769 9.99478C10.3514 10.1354 10.2193 10.27 10.0812 10.3982C9.05522 11.3507 7.6954 11.9485 6.19674 11.9968C6.1314 11.9989 6.06581 12 6 12C5.69658 12 5.39808 11.9774 5.10617 11.9338C4.79892 11.8879 4.58708 11.6016 4.63301 11.2943C4.67893 10.9871 4.96524 10.7752 5.27248 10.8212C5.50952 10.8566 5.75243 10.875 6 10.875C6.03094 10.875 6.06182 10.8747 6.09261 10.8741C7.30577 10.8515 8.41057 10.3858 9.25192 9.63196C9.36395 9.53157 9.47132 9.42607 9.57366 9.31584C10.3483 8.4814 10.8342 7.37523 10.8725 6.15619C10.8742 6.10434 10.875 6.05227 10.875 6C10.875 5.96905 10.8747 5.93818 10.8741 5.90738C10.8515 4.69418 10.3857 3.58935 9.63188 2.74799C9.53152 2.63599 9.42605 2.52865 9.31584 2.42634C8.48103 1.6514 7.37425 1.16539 6.15458 1.1274C6.10326 1.1258 6.05173 1.125 6 1.125C5.75243 1.125 5.50952 1.14341 5.27248 1.17884C4.96524 1.22477 4.67893 1.01293 4.63301 0.70568C4.58708 0.398434 4.79892 0.11213 5.10617 0.0662028Z" fill="white"/>
<path d="M3.22328 1.2903C3.40795 1.54011 3.35514 1.89233 3.10533 2.077C2.71355 2.36662 2.36662 2.71355 2.077 3.10533C1.89233 3.35514 1.54011 3.40795 1.2903 3.22328C1.04048 3.0386 0.987677 2.68639 1.17235 2.43657C1.52844 1.95488 1.95488 1.52844 2.43657 1.17235C2.68639 0.987678 3.0386 1.04048 3.22328 1.2903Z" fill="white"/>
<path d="M1.17884 5.27248C1.22477 4.96524 1.01293 4.67893 0.70568 4.63301C0.398434 4.58708 0.11213 4.79892 0.0662028 5.10617C0.0225671 5.39808 0 5.69658 0 6C0 6.30341 0.0225671 6.60191 0.0662028 6.89383C0.11213 7.20108 0.398434 7.41292 0.70568 7.36699C1.01293 7.32106 1.22477 7.03476 1.17884 6.72751C1.14341 6.49047 1.125 6.24756 1.125 6C1.125 5.75243 1.14341 5.50952 1.17884 5.27248Z" fill="white"/>
<path d="M1.2903 8.77672C1.54011 8.59205 1.89233 8.64486 2.077 8.89467C2.36662 9.28645 2.71355 9.63338 3.10533 9.923C3.35514 10.1077 3.40795 10.4599 3.22328 10.7097C3.03861 10.9595 2.68639 11.0123 2.43657 10.8276C1.95488 10.4716 1.52844 10.0451 1.17235 9.56342C0.987678 9.31361 1.04048 8.96139 1.2903 8.77672Z" fill="white"/>
<path d="M9.375 5.25C9.59467 5.03033 9.59467 4.67417 9.375 4.4545C9.15533 4.23483 8.79917 4.23483 8.5795 4.4545L5.625 7.45446L4.14775 5.97721C3.92808 5.75754 3.57192 5.75754 3.35225 5.97721C3.13258 6.19688 3.13258 6.55303 3.35225 6.7727L5.22725 8.6477C5.44692 8.86737 5.80308 8.86737 6.02275 8.6477L9.375 5.25Z" fill="white"/>
</g>
<defs>
<clipPath id="clip0_2080_21440">
<rect width="12" height="12" fill="white"/>
</clipPath>
</defs>
</svg>
